<svg xmlns="http://www.w3.org/2000/svg" viewBox="0 0 10003.23 1050"><defs><style>.cls-1{fill:#fff;}.cls-2,.cls-3,.cls-4{fill:#6380d3;}.cls-2{opacity:0.4;}.cls-4{opacity:0.6;}</style></defs><g id="Layer_2" data-name="Layer 2"><path class="cls-1" d="M5931.12,499.37c-156.49-11.61-332.1-20.65-516.07-26.11,0,1.48,0,3,0,4.46,181.15,3,348.17,10,515.48,26.64,33.81,5.12,51.85,5.72,73.79,15.79-21.84,10.3-39.89,11.08-73.63,16.53C5644.64,568.05,5359,571,5001.75,575c-357.14-.48-642.85-.59-929.26-29.13-33.73-5.11-51.86-5.72-73.79-15.8,21.85-10.3,40-11.08,73.63-16.52,177.14-19.44,354.23-27.95,548.24-32.57,0-2.27,0-4.53,0-6.79C4403,481.85,4194.77,496.34,4013,519.24c-9,2.59-29.44,8.34-15.13,16.13,22.06,9.25,40.33,10.56,74,15.45,257.75,26.35,519.79,27.54,837.53,29.4,369-2.15,718.73-5.08,1021.94-38.59,32.13-5.89,61.14-6,78.53-20.2C6010.91,508.65,5957.69,503.42,5931.12,499.37Z"/><path class="cls-2" d="M6730.68,511.22c-37.4-15.55-69-17.91-126.19-26.18-384.91-37.91-748.85-46.6-1190.88-49.09q.71,9.24,1.08,18.74c314.53,2.67,582.13,10.77,863.55,38.5,45.52,6.59,70.8,8.46,100.52,20.86,2.64,1.5,4,2.3,5,3.94.1.29.16.23,0,.58-6.15,6.47-13.19,7.49-25.07,11.29-18.18,5-45.19,9.84-80.19,14.55-396.28,43-765,46.72-1276.64,52.66-511.56-.87-880.6-1-1277.11-40-45.5-6.59-70.79-8.48-100.51-20.85-2.81-1.62-4.13-2.32-5.09-4.25.9-1.91,2.34-2.64,5-4.28,29.68-12.68,54.79-14.81,100.31-21.84,291.13-31.59,567.35-42,896.3-47.63q.31-9.45,1-18.66c-457.07,6.77-829.66,18.6-1223.57,61.36-57.07,8.83-88.77,11.5-125.94,27.43-3.5,2.05-5.16,3-6.33,5.38,1.15,2.41,3,3.29,6.39,5.31,37.41,15.55,69,17.92,126.2,26.18,498.07,49.07,961,49.19,1603.43,50.28,642.23-7.45,1105.55-12.13,1602.86-66.11,57.06-8.83,88.77-11.5,125.93-27.43,3.51-2,5.16-3,6.33-5.38C6736,514.12,6734,513.25,6730.68,511.22Z"/><path class="cls-1" d="M5218.76,638.83q-119.52,1.13-241.52,2.54Q5098.58,640.58,5218.76,638.83Z"/><path class="cls-1" d="M6921.05,545.56q-116.7,18.47-235.7,32C6769.91,570.07,6843.52,561.14,6921.05,545.56Z"/><path class="cls-1" d="M7006.22,505.82c-6.57-3.85-16.61-7.74-29.82-11.58-501.68-83-986.17-78.86-1565.57-84.38l.39,3c579,5.5,1062.82,1.4,1564.35,84.27,13,3.75,22.77,7.54,29.14,11.27,7.17,4.19,7.26,6.66,7.26,6.77s-.06,2.58-7.19,6.85c-6.33,3.79-16.09,7.68-29,11.56-18.57,4.39-36.74,8.35-54.7,12q27.84-4.41,55.56-9.1c13.18-4,23.17-7.94,29.71-11.85,7.17-4.3,8.66-7.51,8.65-9.45C7015,513.57,7013.81,510.26,7006.22,505.82Z"/><path class="cls-1" d="M3144.16,575.08c-29.54-3.69-186.63-27.5-145.92-46.88,42.71-20.07,79.09-23.46,145.53-34.71,450.48-54.46,949.78-71.61,1480.43-78.77l.39-3c-531,7.16-1030.6,24.33-1481.26,78.81-66.95,11.33-103.43,14.72-146.63,35.11-7.16,4.28-8.66,7.49-8.66,9.43s1.55,5.14,8.75,9.35c43.35,20,79.95,23,147,33.65,520,58.51,1047.81,61.17,1690.36,65.32q72-1.15,143.12-2C4324.62,645.65,3654.6,628.59,3144.16,575.08Z"/><path class="cls-1" d="M5218.76,638.83c521.11-4.94,1007.18-8.5,1466.59-61.27-74.11,6.56-156.63,12-257.63,19.84C6080.35,617.07,5658.69,632.47,5218.76,638.83Z"/><path class="cls-1" d="M5849.57,642.08c-304.11,6.48-619.11,7.19-946.6,11.71C5217.73,655.25,5538.28,652.2,5849.57,642.08Z"/><path class="cls-1" d="M2830,556c-17.89-5.89-32.85-9.3-40.15-20,0-.12.08-2.93,8-7.66,47-22.09,87-25.82,160.13-38.21,506.67-61.24,1069.46-79.59,1667.86-87.16.16-1,.31-2,.47-3-598.73,7.56-1161.91,25.93-1668.76,87.21-73.64,12.46-113.75,16.19-161.24,38.6-8.23,4.92-9.45,8.52-9.45,10.24s1.27,5.32,9.54,10.16c47.67,21.94,87.91,25.25,161.61,37,572,64.36,1152.58,67.28,1859.43,71.85q42.91-.69,85.54-1.27c-530.27-2.46-1044.1-17.73-1469.44-33.53C3166,602.19,3016.5,598.11,2830,556Z"/><path class="cls-1" d="M7206.62,504c-7.23-4.23-18.25-8.5-32.77-12.72q-15.69-2.6-31.35-5.09c21.81,4.73,41.47,10.73,62.6,20.4,8,4.67,8.06,7.44,8.06,7.58s-.06,2.92-8,7.66c-7,4.18-17.72,8.46-32,12.76-381.68,59.14-841.55,91.79-1323.65,107.47,465.1-9.92,904.72-33.34,1324.51-104.63,17.51-6.17,37.94-10.88,42.08-23.28C7216.16,512.45,7214.9,508.86,7206.62,504Z"/><path class="cls-1" d="M6983.43,463.36q79.41,10.22,159.07,22.85c-27-5.85-57.32-9.76-97.9-16.22Q7014,466.55,6983.43,463.36Z"/><path class="cls-1" d="M5409.32,399.67c583.47,4.24,1083,12.25,1574.11,63.69-498-64-992.11-59.32-1574.38-65.29Z"/><path class="cls-1" d="M5634.85,658.55c-229.84,2.89-465.32,4.32-707,7.49C5163.22,666,5400.67,663.59,5634.85,658.55Z"/><path class="cls-1" d="M7249.42,563.71c48.35-8.2,83.54-13,115.17-20.72q-104.84,17.31-211.19,31.2Q7202.11,569.1,7249.42,563.71Z"/><path class="cls-1" d="M7153.4,574.19c-442.6,46.18-971.61,72.59-1518.55,84.36C6169.4,651.83,6673.36,637.16,7153.4,574.19Z"/><path class="cls-1" d="M3276.72,629.93c-294.34-19.88-458.75-24.37-663.91-70.66-18.71-6.14-38-11-44.28-22.14,0-.33.25-3.39,8.86-8.55,51.73-24.32,95.77-28.42,176.21-42.05,568.55-68.72,1201.31-88.35,1874.4-96.36.18-1,.36-2,.56-3-673.44,8-1306.66,27.66-1875.4,96.42-81,13.7-125.08,17.8-177.31,42.43-9,5.38-10.32,9.29-10.32,11.14s1.39,5.77,10.43,11.05c52.41,24.12,96.66,27.76,177.71,40.68,629.22,70.79,1267.85,74,2045.34,79q64.71-1,128.84-1.86C4335.72,666.25,3756.81,652.07,3276.72,629.93Z"/><path class="cls-1" d="M7427.05,502c-7.94-4.65-20.05-9.34-36-14-632.82-104.71-1243-94.8-1984.34-103,.2,1,.4,2,.59,3,740.82,8.19,1350.25-1.64,1982.92,102.91,18.64,6.17,38.06,10.89,44.27,22.13,0,.33-.23,3.39-8.85,8.56a317.64,317.64,0,0,1-61,21.33q13.35-2.21,26.71-4.45c18.93-6.63,41.91-12.13,46.18-25.47C7437.47,511.22,7436.1,507.33,7427.05,502Z"/><path class="cls-1" d="M7474.24,567.71c54.92-9.31,94.42-14.58,130.1-23.64Q7482,564.35,7357.71,580.39,7416.92,574.25,7474.24,567.71Z"/><path class="cls-1" d="M7357.71,580.39c-475.79,49.18-1041.31,77.75-1626.85,90.94C6302.72,663.79,6842.73,647.19,7357.71,580.39Z"/><path class="cls-1" d="M5730.86,671.33c-270.42,3.56-548,5.1-833.35,9C5174.88,680.34,5455.09,677.54,5730.86,671.33Z"/><path class="cls-1" d="M2373.9,562.83c-20.58-6.77-42-12.09-48.81-24.5,0-.37.26-3.82,9.81-9.54,56.92-26.76,105.38-31.27,193.88-46.26,636.72-77,1346.66-98,2102.06-106.47.22-1,.45-2,.68-3-755.79,8.51-1466.24,29.52-2103.17,106.52-89,15.07-137.56,19.58-195,46.66-9.82,5.88-11.28,10.12-11.27,12.13s1.51,6.24,11.39,12c57.63,26.51,106.3,30.52,195.43,44.72C3221.05,673,3923.51,676.5,4778.77,682q59.59-1,118.74-1.74c-643.34-.14-1271.39-15.66-1793.27-39.73C2780.45,618.69,2599.59,613.76,2373.9,562.83Z"/><path class="cls-1" d="M7669.53,499.86c-8.72-5.1-22-10.27-39.57-15.36C6921.49,367.28,6238.81,380.65,5403.62,370.69c.24,1,.46,2,.69,3,834.68,9.93,1516.48-3.36,2224.81,113.7,20.51,6.81,42.09,12,48.81,24.48,0,.38-.25,3.82-9.81,9.55a345.82,345.82,0,0,1-63.78,22.63q13-2.15,25.89-4.33c20.54-7.12,46.25-13.55,50.7-27.87C7680.92,509.87,7679.43,505.65,7669.53,499.86Z"/><path class="cls-1" d="M5517.07,689c-231.5,2.29-467.74,4.16-709.06,7.76C5046.39,696.09,5284.08,693.39,5517.07,689Z"/><path class="cls-1" d="M4658.62,696.94c-209.09-1.36-409.94-2.75-604.35-5.14C4254,695.15,4456.25,696.79,4658.62,696.94Z"/><path class="cls-1" d="M7936.26,497.47c-9.58-5.61-24.22-11.28-43.5-16.89C7101,349.59,6338.47,366.86,5399.57,354.86c.28,1,.55,2,.82,3,938.37,12,1699.89-5.21,2491.53,125.62,19.05,5.51,33.46,11.08,42.82,16.57,10.67,6.23,11,10.08,11,10.5s-.28,4.29-10.87,10.64c-9.3,5.58-23.65,11.29-42.65,17q-25.68,6.07-50.73,11.43,25.83-4.2,51.59-8.56c22.27-7.65,51-15.11,55.66-30.51C7948.71,508.37,7947.08,503.79,7936.26,497.47Z"/><path class="cls-1" d="M7841.47,549.62Q7631.3,583.75,7416,606.91C7572.91,594.07,7701.49,579.59,7841.47,549.62Z"/><path class="cls-1" d="M5517.07,689c669.74-6.6,1299.87-16.67,1899-82.11-95.36,7.81-201.17,15-326.36,24.73C6633.29,657.48,6089.34,678.29,5517.07,689Z"/><path class="cls-1" d="M4658.62,696.94l97.85.63q25.81-.41,51.54-.79Q4733.34,697,4658.62,696.94Z"/><path class="cls-1" d="M2068.27,550.17c-10.64-6.22-11-10.1-11-10.52s.3-4.28,10.88-10.62c62.63-29.45,115.93-34.41,213.32-50.91,711.84-86.05,1506.9-108.49,2353.08-117.57l.81-3c-846.63,9.08-1642.25,31.54-2354.33,117.63-97.93,16.57-151.27,21.53-214.42,51.3-10.74,6.43-12.34,11-12.34,13.21s1.66,6.78,12.46,13.1c63.37,29.14,116.89,33.55,214.92,49.17,563.44,63.4,1133.16,82,1772.6,89.86C3409.68,681,2791.58,652.37,2282.08,599,2184.41,583.43,2131.28,579,2068.27,550.17Z"/><path class="cls-1" d="M1774.76,529.29c68.91-32.41,127.57-37.87,234.71-56,794.67-96.06,1683.62-120,2630-129.76l1-3C3693.56,350.19,2804,374.2,2009,470.31c-107.7,18.22-166.37,23.68-235.81,56.42-11.76,7-13.5,12-13.5,14.39s1.81,7.37,13.63,14.28c69.69,32.05,128.55,36.9,236.36,54.08,601.33,67.66,1209.11,88.94,1887.14,98-677.95-15.66-1325.71-49.24-1886.74-101C1961.8,600.34,1707.13,562.28,1774.76,529.29Z"/><path class="cls-1" d="M7874.91,588.74C7311,642.8,6666.6,680,5995.76,700.14,6654.69,690.13,7278.66,667.58,7874.91,588.74Z"/><path class="cls-1" d="M3896.85,707.51c688.25,15.91,1407.61,13.35,2098.91-7.37-407.33,6.18-828,7.58-1263.78,14.53C4440.19,712.78,4163.1,711.09,3896.85,707.51Z"/><path class="cls-1" d="M7993.56,577c63.24-9.68,112.95-19,150.36-28.1q-133.58,22-269,39.84Q7934.85,583,7993.56,577Z"/><path class="cls-1" d="M7785.63,421.14c-568.68-65-1138.32-72.47-1772.91-77.74C6573,355,7316.89,380.53,7785.63,421.14Z"/><path class="cls-1" d="M8181.84,476.27a316.65,316.65,0,0,1,32.42,11.09c-53.43-25.38-211.51-47.42-428.63-66.22C7917.49,436.2,8049.29,454.34,8181.84,476.27Z"/><path class="cls-1" d="M8229.66,494.83a128.94,128.94,0,0,0-15.4-7.47c39.33,18.69,21.95,39.19-70.34,61.54q19.14-3.17,38.25-6.39c24.18-8.23,56.33-16.84,61.12-33.42C8243.28,506.73,8241.5,501.75,8229.66,494.83Z"/><path class="cls-1" d="M5393.87,336.17c.13.41.27.81.4,1.21,213.86,2.92,419.35,4.36,618.45,6C5750.5,338,5528.53,335.6,5393.87,336.17Z"/><path class="cls-1" d="M5002.52,729.77q358.35-1.93,686.76-7.28c-230.46,2.35-464.81,4.23-703.27,7.1Z"/><path class="cls-1" d="M7816.63,634.9c-493.94,40.54-1220.69,73-2127.35,87.59C6436.42,714.85,7142.8,702.21,7816.63,634.9Z"/><path class="cls-1" d="M8462.15,550.47c-211.94,35-427,62.6-645.52,84.43C8130,609.17,8349.72,580.19,8462.15,550.47Z"/><path class="cls-1" d="M4705,733.47q141.45-2.25,281-3.88c-627.59-7-1189-2.63-1721.26-14C3714.84,727.35,4189.05,730.14,4705,733.47Z"/><path class="cls-1" d="M5388.23,320.41c1190.73,9.23,2014.7,37,2522.07,74.15-784.2-77-1579.11-62.74-2522.95-76.45C5387.65,318.87,5387.94,319.64,5388.23,320.41Z"/><path class="cls-1" d="M8498.63,471.33c-84.27-27.65-276.5-54-588.33-76.77C8106.36,413.82,8301.75,438.79,8498.63,471.33Z"/><path class="cls-1" d="M8552.4,491.93c-11.58-6.78-29.26-13.63-52.56-20.4l-1.21-.2c78.6,25.8,63.3,52.76-36.48,79.14q19-3.15,38.05-6.37c26.56-9,61.78-18.46,67.12-36.61C8567.31,504.93,8565.36,499.51,8552.4,491.93Z"/><path class="cls-1" d="M1452.13,555.71c-12.75-7.46-13.43-12.15-13.44-13s.64-5.53,13.31-13.13c75.83-35.67,140.37-41.68,258.24-61.64C2596.3,360.83,3588.9,335.17,4645.79,324.77c.37-1,.74-2,1.12-3C3589.48,332.14,2596.16,357.82,1709.8,465c-118.44,20-183,26-259.34,62-12.86,7.7-14.77,13.14-14.77,15.71s2,8,14.92,15.58c76.64,35.24,141.37,40.57,259.94,59.47,244.72,27.53,490.42,48.08,740.64,63.56-316.56-21.66-629.36-54.71-947.16-105.55C1480.94,569.11,1463.48,562.36,1452.13,555.71Z"/><path class="cls-1" d="M3264.75,715.64c-279.06-7.26-548.84-17.94-813.56-34.31C2718,699.58,2987.4,709.74,3264.75,715.64Z"/><path class="cls-1" d="M8396.57,612.29C7750.31,677,6995.41,716.43,6211,736.48,6975.87,724.78,7701.82,699,8396.57,612.29Z"/><path class="cls-1" d="M8621.93,588.17c87.71-14.87,148.58-22.7,204.61-38.36q-213,35.61-430,62.48Q8511.62,600.77,8621.93,588.17Z"/><path class="cls-1" d="M6211,736.48c-469.4,7.18-953.45,9-1453.94,16.43C5240.68,753.76,5731.35,748.74,6211,736.48Z"/><path class="cls-1" d="M1724,661.36c904.77,80.73,1840,85.61,2951.33,92.8q40.94-.66,81.71-1.25c-909.63-1.61-1794.24-24-2533.39-58.08C2027.89,681.61,1867.8,672.61,1724,661.36Z"/><path class="cls-1" d="M8907.41,488.74c-12.72-7.44-32.16-15-57.78-22.42C7753.12,284.93,6698.77,317.16,5378.25,296.84c.47,1,.94,2,1.4,3C6699.48,320.13,7752.43,288,8848.79,469.24c25.39,7.34,44.6,14.77,57.1,22.09,14.14,8.28,14.86,13.44,14.86,14.42s-.67,6.18-14.7,14.58a498.15,498.15,0,0,1-79.51,29.48q11.74-2,23.48-3.95c29.18-9.94,67.78-20.25,73.73-40.13C8923.74,502.94,8921.6,497,8907.41,488.74Z"/><path class="cls-1" d="M1724,661.36q-116.41-10.4-232.26-22.5C1566.29,647.87,1642.54,655,1724,661.36Z"/><path class="cls-1" d="M1097.11,558.9c-14.09-8.24-14.84-13.48-14.85-14.43s.7-6.17,14.72-14.57c83.43-39.25,154.42-45.86,284.11-67.83,986.92-119.3,2094-146.74,3273-157.91.44-1,.89-2,1.34-3-1179.62,11.16-2287.51,38.62-3274.76,158-130.28,22.05-201.25,28.65-285.22,68.22-14.09,8.43-16.18,14.36-16.18,17.15s2.17,8.72,16.34,17c84.28,38.75,155.48,44.61,285.87,65.39q55.11,6.21,110.3,12c-112.39-13.6-220.87-31.53-337.53-57.86C1128.84,573.65,1109.62,566.22,1097.11,558.9Z"/><path class="cls-3" d="M1047.19,527.67l-2.35,1.09c-13.65,8.18-15.41,13.75-15.56,15.66C1032,538.85,1038.05,533.26,1047.19,527.67Z"/><path class="cls-3" d="M4656,299.8q3.51-7.74,7.33-15.22C2764.07,296.5,1236.07,412.12,1047.19,527.67c83.75-38.93,155.53-45.7,286-67.81C2335.31,338.75,3458.89,311.08,4656,299.8Z"/><path class="cls-3" d="M7817.46,347.19q-159.07-10.17-320-17.1C7606.52,335.4,7713.71,341.1,7817.46,347.19Z"/><path class="cls-3" d="M7817.46,347.19c363.45,23.25,720.65,60.13,1082.37,120,30.09,9.94,65.94,18.89,73.92,38.33,0,1.55-1.1,7.29-15.58,16h0c-84.72,39.91-156.73,46.58-288.36,68.9C7541.58,725.81,6412.38,738,5002.64,754.7c-1315-1.34-2576.89-4.61-3668.61-128.11-132-21-203.76-27-289-66-14.57-8.54-15.73-14.26-15.74-15.82,0-.09,0-.19,0-.31-49.67,100.38,951.11,196.91,3641,221.1,1091.36,1.09,2337.4-30.59,3147.89-84.87C9716.56,532.89,8984.17,415.66,7817.46,347.19Z"/><path class="cls-3" d="M5371.69,283.46q3,5.9,5.9,12c777.27,12,1463.51,6,2119.86,34.67C6676.33,290.15,5748.09,272.79,5371.69,283.46Z"/><path class="cls-1" d="M1422.6,677.16Q1272.83,664,1124,648.31C1219.24,660.21,1316.74,669.14,1422.6,677.16Z"/><path class="cls-1" d="M6360.85,757c-530.94,8.36-1078.92,10.3-1646.1,18.78C5262.21,776.91,5818.15,771.2,6360.85,757Z"/><path class="cls-1" d="M8984,594.63c97.88-16.6,165.38-25.23,227.76-43q-241.92,40.51-488.45,70.77Q8856.51,609.18,8984,594.63Z"/><path class="cls-1" d="M8723.31,622.44C8023.21,692.09,7208.17,734.87,6360.85,757,7186.92,744,7971.71,715.43,8723.31,622.44Z"/><path class="cls-1" d="M706.6,562.4c-15.58-9.1-16.41-14.93-16.41-16s.77-6.87,16.26-16.15c91.79-43.19,169.91-50.46,312.58-74.63C2117.37,322.85,3351,293.51,4665,281.49l1.6-3c-1314.67,12-2549.24,41.36-3648,174.2-143.27,24.24-221.33,31.51-313.68,75-15.43,9.24-17.73,15.7-17.72,18.74s2.37,9.5,17.89,18.58c92.69,42.6,171,49,314.41,71.91q52.2,5.88,104.46,11.4c-117.67-14.7-232-33.93-354.48-61.58C741.51,578.65,720.36,570.47,706.6,562.4Z"/><path class="cls-1" d="M9297.92,485.23c-14-8.18-35.35-16.46-63.52-24.65C8014.55,258.79,6842.13,297.36,5366.26,273.38c.57,1,1.13,2,1.69,3C6843,300.32,8013.88,261.91,9233.56,463.51c27.94,8.07,49.08,16.25,62.85,24.31,15.62,9.14,16.41,14.91,16.42,16s-.74,6.88-16.25,16.17a546.16,546.16,0,0,1-84.82,31.69l23.07-3.88c32.07-10.93,74.36-22.22,81-44C9315.82,500.76,9313.47,494.33,9297.92,485.23Z"/><path class="cls-1" d="M1422.6,677.16c987.09,86.57,2008.39,91.92,3220.16,99.75l72-1.11c-994.3-2-1960.62-26.58-2768.86-63.85C1742.4,698.21,1574,688.62,1422.6,677.16Z"/><path class="cls-3" d="M4680.31,255c-634.68,10.47-1255.15,29.66-1831.72,51.87C3434.8,285.07,4044.15,275.7,4671.21,270Q4675.59,262.36,4680.31,255Z"/><path class="cls-3" d="M2694.77,312.91q76.36-3,153.82-6Q2771.42,309.75,2694.77,312.91Z"/><path class="cls-3" d="M9387.26,449.1c-239.75-34.5-493.5-63.76-758.09-88.4,251.73,24.4,502.53,56.25,755.31,98.07,34,11.23,75.91,21.72,84,44.28,0,2.46-1.75,9.22-18.12,19-14.37,8.61-36.38,17.38-65.44,26.13-1381,235.11-2690.51,200.22-4382.13,236.27-1478.25-1.51-2897.12-5.17-4124.56-144-148.6-23.65-229.37-30.35-325.39-74.4-16.49-9.66-18.3-16.4-18.31-18.85s1.74-9.22,18.12-19c95.48-45,176.31-52.47,324.65-77.63,572.82-69.24,1181-111.31,1817.47-137.61-301.18,12-589.29,24.76-859.91,37.34-3804.41,296.11,1789.46,483.2,2794.26,445.13,1631.15-10.42,3161.5-24.16,4498.05-185.8,149.91-25.4,231.28-32.88,328.33-78.93C9511.23,495.75,9455.25,468.63,9387.26,449.1Z"/><path class="cls-3" d="M8629.17,360.7q-154.43-15-309.51-26.37Q8476.65,346.53,8629.17,360.7Z"/><path class="cls-3" d="M5350.28,247.46q5.78,8.52,11.11,17.47l12.6-.08c1099.75,18,2036.46,2.21,2945.67,69.48C7400.05,262.9,6370.35,241.61,5350.28,247.46Z"/><path class="cls-4" d="M9828.79,446.3c-1448.74-229.41-2726.88-195.62-4486-209.47q5.45,7.41,10.54,15.18c1362.38,1.68,2703.36,52.19,3772.13,152.78,107.48,15.36,426.81,60.46,327.48,121.57-96.21,45.54-178.63,53.26-326.48,78.27C6806.68,846.17,3199.64,864,877.56,645.44,770.08,630.08,450.75,585,550.08,523.87c96.22-45.54,178.63-53.26,326.49-78.28C1953,333.52,3306.5,269.62,4680.22,255.14q5.07-7.94,10.5-15.52c-1775.9,32.1-3062,9.14-4517,254.32-32.64,9.82-57.17,19.63-73.41,29.37-16.65,10-22.91,18.82-22.87,26.12,4.8,28.26,59.69,42.15,96.82,54.5C1715.4,848,3063.46,794.17,5002.94,816.71,6941.8,775,8291.08,815.47,9829.34,556.29q49-14.74,73.4-29.37c16.65-10,22.91-18.82,22.87-26.13C9920.79,472.53,9866,458.65,9828.79,446.3Z"/><path class="cls-1" d="M6388.62,516.73c-6.2-9.72-15.23-10.19-28.78-14.63-309.86-45.1-607-50.46-945.35-51.92q.23,4.68.36,9.42c306.65,2.86,599.93,11.56,862.77,38.55,45.21,6.51,69.41,8.39,98.51,20.17-29,12.07-53.23,14.2-98.3,21.14-392.89,43.08-785.19,47.08-1276,52.61-490.59-.66-883-.8-1276.46-40-45.07-6.48-69.41-8.39-98.52-20.16,29-12.07,53.34-14.21,98.32-21.14,286-31.37,571.86-42,895.5-47.62.08-3.74.21-7.44.37-11.12-1232.21,23.16-1522,141.63,253.93,150.37,507-3,987.65-7,1404.2-53,35.45-4.76,62.64-9.7,80.83-14.68,12.48-3.8,19.62-5.4,26.85-11.87C6388.34,521.12,6389.42,518.76,6388.62,516.73Z"/><path class="cls-1" d="M6706.62,497.47c-146.94-30.21-264.51-33-474.69-45.86-239.62-10.19-521.08-17.72-818.77-21q.45,5.1.8,10.29c433.32,2.48,811.2,11.39,1189.91,49.12,57.83,8.59,88.64,10.13,126.11,26.57-37.29,16.82-68.18,18.67-125.84,27.83-493.27,54.1-986,59.13-1602.22,66.06-616.12-.82-1108.77-1-1602.79-50.24-57.69-8.57-88.65-10.12-126.1-26.57,37.3-16.82,68.24-18.67,125.84-27.82,387.75-42.53,775.21-54.73,1222.57-61.38q.38-6,.88-11.92c-447.2,7.58-881.93,27.07-1224.79,63.4-58.25,9-89.61,11.57-127.67,28-4.87,2.79-7.78,4.76-9.07,9.57,1,5.06,4.06,7.15,9.17,9.93,38.17,16,69.68,18.27,127.94,26.73,444.49,45.44,896.47,47.5,1444.48,50.7C5522,611,6139,623.92,6706.8,535.91c13.46-4.56,35.53-8.64,35.18-21C6733.75,503.57,6723.35,502.81,6706.62,497.47Z"/><path class="cls-1" d="M6976,495.7C6460.18,414.12,5997.1,414,5411.06,411.59q1.57,12,2.55,24.36c442,2.49,806.16,11.17,1190.88,49.09,57.15,8.27,88.87,10.63,126.19,26.18,3.32,1.9,5,2.89,6.28,5,.12.35.19.3,0,.73-1.28,2.07-2.92,3.08-6.23,5-37.24,15.93-68.79,18.6-125.93,27.43-497.54,54-960.47,58.66-1602.86,66.11-642.27-1.09-1105.61-1.21-1603.43-50.27-57.14-8.27-88.89-10.64-126.2-26.18-3.53-2-5.19-2.91-6.39-5.32,1.11-2.42,2.93-3.33,6.33-5.38,37.26-15.93,68.79-18.6,125.94-27.43,394.12-42.76,766.5-54.59,1223.57-61.36q.87-12.39,2.37-24.34c-601.8,8.5-1072.78,11.72-1597.31,100-13.27,4-23,7.93-29.36,11.72-6.73,4-7.93,6.89-7.93,8.14,5.4,10.7,21,13.84,37.49,19.48,630.26,99.67,1181.75,77.76,1975.06,87,793-17,1345-.57,1974.09-106.44,13.28-4,23-7.94,29.37-11.73,6.73-4,7.93-6.88,7.92-8.15C7008.06,504.48,6992.48,501.34,6976,495.7Z"/></g></svg>