<svg width="428" height="170" viewBox="0 0 428 170" fill="none" xmlns="http://www.w3.org/2000/svg">
<g filter="url(#filter0_d)">
<path d="M69.3875 98.345H79.1375L86.2375 71.845H96.7375L98.9875 63.345H68.3375L66.0375 71.845H76.5375L69.3875 98.345ZM93.4641 98.345H103.214L106.764 85.045H119.114L115.514 98.345H125.264L134.664 63.345H124.914L121.414 76.445H109.064L112.614 63.345H102.864L93.4641 98.345ZM131.306 98.345H159.606L161.806 90.095H143.106L144.606 84.545H161.306L163.356 76.895H146.656L148.106 71.595H166.506L168.756 63.345H140.706L131.306 98.345ZM178.62 98.345H196.77C207.62 98.345 212.67 93.745 212.67 87.695C212.67 84.095 210.47 81.795 207.37 80.695C212.27 79.495 215.22 76.195 215.22 71.745C215.22 67.295 212.12 63.345 202.57 63.345H188.02L178.62 98.345ZM190.17 90.545L191.92 84.095H198.62C201.47 84.095 202.92 85.045 202.92 86.845C202.92 89.045 200.87 90.545 197.52 90.545H190.17ZM193.77 77.295L195.37 71.145H201.42C204.37 71.145 205.62 72.145 205.62 73.745C205.62 75.945 203.77 77.295 200.32 77.295H193.77ZM214.314 98.345H242.614L244.814 90.095H226.114L227.614 84.545H244.314L246.364 76.895H229.664L231.114 71.595H249.514L251.764 63.345H223.714L214.314 98.345ZM244.661 98.345H255.211L259.411 92.095H272.911L273.761 98.345H283.961L278.511 63.095H269.011L244.661 98.345ZM264.311 84.545L270.861 74.495L272.111 84.545H264.311ZM303.496 99.045C310.146 99.045 314.746 96.345 318.146 92.495L311.596 86.695C309.346 88.945 307.146 90.245 304.096 90.245C300.046 90.245 297.096 87.495 297.096 83.045C297.096 76.945 301.746 71.495 307.546 71.495C310.996 71.495 313.196 73.145 314.596 75.995L322.996 71.495C320.896 66.095 315.946 62.645 308.796 62.645C295.346 62.645 286.946 73.395 286.946 83.745C286.946 93.095 293.796 99.045 303.496 99.045ZM320.124 98.345H329.874L333.424 85.045H345.774L342.174 98.345H351.924L361.324 63.345H351.574L348.074 76.445H335.724L339.274 63.345H329.524L320.124 98.345Z" fill="white" fill-opacity="0.7"/>
<path d="M69.3875 98.345L68.422 98.0845C68.341 98.385 68.4044 98.706 68.5936 98.9531C68.7829 99.2001 69.0763 99.345 69.3875 99.345V98.345ZM79.1375 98.345V99.345C79.5901 99.345 79.9863 99.041 80.1035 98.6038L79.1375 98.345ZM86.2375 71.845V70.845C85.7849 70.845 85.3887 71.149 85.2716 71.5862L86.2375 71.845ZM96.7375 71.845V72.845C97.1913 72.845 97.5881 72.5395 97.7042 72.1009L96.7375 71.845ZM98.9875 63.345L99.9542 63.6009C100.034 63.3009 99.9693 62.981 99.78 62.7351C99.5907 62.4891 99.2979 62.345 98.9875 62.345V63.345ZM68.3375 63.345V62.345C67.8858 62.345 67.4902 62.6478 67.3722 63.0838L68.3375 63.345ZM66.0375 71.845L65.0722 71.5838C64.9909 71.8843 65.0542 72.2056 65.2434 72.4528C65.4326 72.7 65.7262 72.845 66.0375 72.845V71.845ZM76.5375 71.845L77.503 72.1055C77.5841 71.8051 77.5206 71.484 77.3314 71.2369C77.1422 70.9899 76.8487 70.845 76.5375 70.845V71.845ZM69.3875 99.345H79.1375V97.345H69.3875V99.345ZM80.1035 98.6038L87.2035 72.1038L85.2716 71.5862L78.1716 98.0862L80.1035 98.6038ZM86.2375 72.845H96.7375V70.845H86.2375V72.845ZM97.7042 72.1009L99.9542 63.6009L98.0208 63.0891L95.7708 71.5891L97.7042 72.1009ZM98.9875 62.345H68.3375V64.345H98.9875V62.345ZM67.3722 63.0838L65.0722 71.5838L67.0028 72.1062L69.3028 63.6062L67.3722 63.0838ZM66.0375 72.845H76.5375V70.845H66.0375V72.845ZM75.572 71.5845L68.422 98.0845L70.353 98.6055L77.503 72.1055L75.572 71.5845ZM93.4641 98.345L92.4983 98.0856C92.4176 98.386 92.4813 98.7068 92.6706 98.9535C92.8598 99.2003 93.1531 99.345 93.4641 99.345V98.345ZM103.214 98.345V99.345C103.667 99.345 104.063 99.0405 104.18 98.6029L103.214 98.345ZM106.764 85.045V84.045C106.311 84.045 105.915 84.3495 105.798 84.7871L106.764 85.045ZM119.114 85.045L120.079 85.3063C120.161 85.0058 120.097 84.6845 119.908 84.4373C119.719 84.19 119.425 84.045 119.114 84.045V85.045ZM115.514 98.345L114.549 98.0837C114.467 98.3843 114.531 98.7055 114.72 98.9528C114.909 99.2 115.203 99.345 115.514 99.345V98.345ZM125.264 98.345V99.345C125.716 99.345 126.113 99.0413 126.23 98.6044L125.264 98.345ZM134.664 63.345L135.63 63.6044C135.711 63.304 135.647 62.9833 135.458 62.7365C135.268 62.4897 134.975 62.345 134.664 62.345V63.345ZM124.914 63.345V62.345C124.461 62.345 124.065 62.6494 123.948 63.0869L124.914 63.345ZM121.414 76.445V77.445C121.867 77.445 122.263 77.1407 122.38 76.7031L121.414 76.445ZM109.064 76.445L108.099 76.1835C108.017 76.484 108.081 76.8053 108.27 77.0527C108.459 77.3 108.753 77.445 109.064 77.445V76.445ZM112.614 63.345L113.579 63.6066C113.661 63.306 113.598 62.9847 113.408 62.7374C113.219 62.4901 112.925 62.345 112.614 62.345V63.345ZM102.864 63.345V62.345C102.412 62.345 102.016 62.6487 101.898 63.0856L102.864 63.345ZM93.4641 99.345H103.214V97.345H93.4641V99.345ZM104.18 98.6029L107.73 85.3029L105.798 84.7871L102.248 98.0871L104.18 98.6029ZM106.764 86.045H119.114V84.045H106.764V86.045ZM118.149 84.7837L114.549 98.0837L116.479 98.6063L120.079 85.3063L118.149 84.7837ZM115.514 99.345H125.264V97.345H115.514V99.345ZM126.23 98.6044L135.63 63.6044L133.698 63.0856L124.298 98.0856L126.23 98.6044ZM134.664 62.345H124.914V64.345H134.664V62.345ZM123.948 63.0869L120.448 76.1869L122.38 76.7031L125.88 63.6031L123.948 63.0869ZM121.414 75.445H109.064V77.445H121.414V75.445ZM110.029 76.7066L113.579 63.6066L111.649 63.0835L108.099 76.1835L110.029 76.7066ZM112.614 62.345H102.864V64.345H112.614V62.345ZM101.898 63.0856L92.4983 98.0856L94.4299 98.6044L103.83 63.6044L101.898 63.0856ZM131.306 98.345L130.34 98.0856C130.259 98.386 130.323 98.7068 130.512 98.9535C130.702 99.2003 130.995 99.345 131.306 99.345V98.345ZM159.606 98.345V99.345C160.059 99.345 160.455 99.0404 160.572 98.6027L159.606 98.345ZM161.806 90.095L162.772 90.3527C162.852 90.0525 162.788 89.7321 162.599 89.4858C162.41 89.2394 162.117 89.095 161.806 89.095V90.095ZM143.106 90.095L142.141 89.8341C142.059 90.1346 142.123 90.4558 142.312 90.7029C142.501 90.9501 142.795 91.095 143.106 91.095V90.095ZM144.606 84.545V83.545C144.154 83.545 143.758 83.848 143.641 84.2841L144.606 84.545ZM161.306 84.545V85.545C161.758 85.545 162.155 85.241 162.272 84.8039L161.306 84.545ZM163.356 76.895L164.322 77.1539C164.402 76.8536 164.339 76.5329 164.149 76.2863C163.96 76.0396 163.667 75.895 163.356 75.895V76.895ZM146.656 76.895L145.691 76.6311C145.609 76.9319 145.672 77.2538 145.861 77.5017C146.05 77.7496 146.344 77.895 146.656 77.895V76.895ZM148.106 71.595V70.595C147.655 70.595 147.26 70.8964 147.141 71.3311L148.106 71.595ZM166.506 71.595V72.595C166.957 72.595 167.352 72.2932 167.471 71.8581L166.506 71.595ZM168.756 63.345L169.721 63.6081C169.803 63.3074 169.74 62.9857 169.551 62.738C169.361 62.4903 169.068 62.345 168.756 62.345V63.345ZM140.706 63.345V62.345C140.253 62.345 139.857 62.6487 139.74 63.0856L140.706 63.345ZM131.306 99.345H159.606V97.345H131.306V99.345ZM160.572 98.6027L162.772 90.3527L160.84 89.8374L158.64 98.0874L160.572 98.6027ZM161.806 89.095H143.106V91.095H161.806V89.095ZM144.071 90.3559L145.571 84.8059L143.641 84.2841L142.141 89.8341L144.071 90.3559ZM144.606 85.545H161.306V83.545H144.606V85.545ZM162.272 84.8039L164.322 77.1539L162.39 76.6362L160.34 84.2862L162.272 84.8039ZM163.356 75.895H146.656V77.895H163.356V75.895ZM147.62 77.1589L149.07 71.8589L147.141 71.3311L145.691 76.6311L147.62 77.1589ZM148.106 72.595H166.506V70.595H148.106V72.595ZM167.471 71.8581L169.721 63.6081L167.791 63.0819L165.541 71.3319L167.471 71.8581ZM168.756 62.345H140.706V64.345H168.756V62.345ZM139.74 63.0856L130.34 98.0856L132.272 98.6044L141.672 63.6044L139.74 63.0856ZM178.62 98.345L177.655 98.0856C177.574 98.386 177.638 98.7068 177.827 98.9535C178.016 99.2003 178.309 99.345 178.62 99.345V98.345ZM207.37 80.695L207.132 79.7237C206.703 79.8288 206.394 80.2033 206.372 80.6446C206.349 81.086 206.619 81.4897 207.036 81.6374L207.37 80.695ZM188.02 63.345V62.345C187.568 62.345 187.172 62.6487 187.055 63.0856L188.02 63.345ZM190.17 90.545L189.205 90.2832C189.124 90.5837 189.187 90.9052 189.376 91.1525C189.565 91.3999 189.859 91.545 190.17 91.545V90.545ZM191.92 84.095V83.095C191.469 83.095 191.073 83.3975 190.955 83.8332L191.92 84.095ZM193.77 77.295L192.803 77.0432C192.725 77.3429 192.79 77.6617 192.979 77.9067C193.169 78.1516 193.461 78.295 193.77 78.295V77.295ZM195.37 71.145V70.145C194.915 70.145 194.517 70.4526 194.403 70.8932L195.37 71.145ZM178.62 99.345H196.77V97.345H178.62V99.345ZM196.77 99.345C202.319 99.345 206.529 98.1712 209.378 96.0973C212.262 93.9976 213.67 91.0309 213.67 87.695H211.67C211.67 90.4091 210.554 92.7674 208.201 94.4803C205.812 96.2189 202.071 97.345 196.77 97.345V99.345ZM213.67 87.695C213.67 85.6773 213.049 83.9782 211.961 82.6298C210.883 81.2925 209.387 80.3497 207.705 79.7526L207.036 81.6374C208.453 82.1404 209.608 82.8976 210.404 83.8853C211.192 84.8618 211.67 86.1128 211.67 87.695H213.67ZM207.608 81.6663C212.858 80.3807 216.22 76.7491 216.22 71.745H214.22C214.22 75.6409 211.683 78.6094 207.132 79.7237L207.608 81.6663ZM216.22 71.745C216.22 69.2699 215.346 66.8553 213.094 65.0893C210.88 63.3532 207.461 62.345 202.57 62.345V64.345C207.229 64.345 210.136 65.3118 211.86 66.6632C213.545 67.9847 214.22 69.7701 214.22 71.745H216.22ZM202.57 62.345H188.02V64.345H202.57V62.345ZM187.055 63.0856L177.655 98.0856L179.586 98.6044L188.986 63.6044L187.055 63.0856ZM191.135 90.8069L192.885 84.3569L190.955 83.8332L189.205 90.2832L191.135 90.8069ZM191.92 85.095H198.62V83.095H191.92V85.095ZM198.62 85.095C199.964 85.095 200.813 85.3242 201.298 85.636C201.713 85.9029 201.92 86.2633 201.92 86.845H203.92C203.92 85.6267 203.403 84.6121 202.38 83.9541C201.427 83.3409 200.127 83.095 198.62 83.095V85.095ZM201.92 86.845C201.92 87.593 201.589 88.2221 200.904 88.7C200.19 89.1983 199.061 89.545 197.52 89.545V91.545C199.33 91.545 200.9 91.1418 202.049 90.34C203.227 89.5179 203.92 88.297 203.92 86.845H201.92ZM197.52 89.545H190.17V91.545H197.52V89.545ZM194.738 77.5468L196.338 71.3968L194.403 70.8932L192.803 77.0432L194.738 77.5468ZM195.37 72.145H201.42V70.145H195.37V72.145ZM201.42 72.145C202.812 72.145 203.631 72.3862 204.075 72.6794C204.451 72.9278 204.62 73.2498 204.62 73.745H206.62C206.62 72.6402 206.164 71.6622 205.178 71.0106C204.259 70.4039 202.979 70.145 201.42 70.145V72.145ZM204.62 73.745C204.62 74.5217 204.315 75.0977 203.699 75.5201C203.035 75.9754 201.937 76.295 200.32 76.295V78.295C202.154 78.295 203.706 77.9397 204.829 77.1699C206.001 76.3673 206.62 75.1683 206.62 73.745H204.62ZM200.32 76.295H193.77V78.295H200.32V76.295ZM214.314 98.345L213.348 98.0856C213.267 98.386 213.331 98.7068 213.52 98.9535C213.709 99.2003 214.003 99.345 214.314 99.345V98.345ZM242.614 98.345V99.345C243.067 99.345 243.463 99.0404 243.58 98.6027L242.614 98.345ZM244.814 90.095L245.78 90.3527C245.86 90.0525 245.796 89.7321 245.607 89.4858C245.417 89.2394 245.124 89.095 244.814 89.095V90.095ZM226.114 90.095L225.148 89.8341C225.067 90.1346 225.13 90.4558 225.32 90.7029C225.509 90.9501 225.802 91.095 226.114 91.095V90.095ZM227.614 84.545V83.545C227.162 83.545 226.766 83.848 226.648 84.2841L227.614 84.545ZM244.314 84.545V85.545C244.766 85.545 245.162 85.241 245.28 84.8039L244.314 84.545ZM246.364 76.895L247.33 77.1539C247.41 76.8536 247.346 76.5329 247.157 76.2863C246.968 76.0396 246.675 75.895 246.364 75.895V76.895ZM229.664 76.895L228.699 76.6311C228.617 76.9319 228.68 77.2538 228.869 77.5017C229.058 77.7496 229.352 77.895 229.664 77.895V76.895ZM231.114 71.595V70.595C230.663 70.595 230.268 70.8964 230.149 71.3311L231.114 71.595ZM249.514 71.595V72.595C249.965 72.595 250.36 72.2932 250.478 71.8581L249.514 71.595ZM251.764 63.345L252.728 63.6081C252.81 63.3074 252.748 62.9857 252.558 62.738C252.369 62.4903 252.075 62.345 251.764 62.345V63.345ZM223.714 63.345V62.345C223.261 62.345 222.865 62.6487 222.748 63.0856L223.714 63.345ZM214.314 99.345H242.614V97.345H214.314V99.345ZM243.58 98.6027L245.78 90.3527L243.847 89.8374L241.647 98.0874L243.58 98.6027ZM244.814 89.095H226.114V91.095H244.814V89.095ZM227.079 90.3559L228.579 84.8059L226.648 84.2841L225.148 89.8341L227.079 90.3559ZM227.614 85.545H244.314V83.545H227.614V85.545ZM245.28 84.8039L247.33 77.1539L245.398 76.6362L243.348 84.2862L245.28 84.8039ZM246.364 75.895H229.664V77.895H246.364V75.895ZM230.628 77.1589L232.078 71.8589L230.149 71.3311L228.699 76.6311L230.628 77.1589ZM231.114 72.595H249.514V70.595H231.114V72.595ZM250.478 71.8581L252.728 63.6081L250.799 63.0819L248.549 71.3319L250.478 71.8581ZM251.764 62.345H223.714V64.345H251.764V62.345ZM222.748 63.0856L213.348 98.0856L215.279 98.6044L224.679 63.6044L222.748 63.0856ZM244.661 98.345L243.838 97.7767C243.627 98.0825 243.603 98.4804 243.775 98.8096C243.948 99.1388 244.289 99.345 244.661 99.345V98.345ZM255.211 98.345V99.345C255.544 99.345 255.855 99.1792 256.041 98.9028L255.211 98.345ZM259.411 92.095V91.095C259.078 91.095 258.767 91.2608 258.581 91.5373L259.411 92.095ZM272.911 92.095L273.902 91.9603C273.834 91.4646 273.411 91.095 272.911 91.095V92.095ZM273.761 98.345L272.77 98.4798C272.837 98.9754 273.261 99.345 273.761 99.345V98.345ZM283.961 98.345V99.345C284.253 99.345 284.53 99.2175 284.72 98.9959C284.91 98.7743 284.994 98.4807 284.949 98.1922L283.961 98.345ZM278.511 63.095L279.499 62.9422C279.424 62.4547 279.004 62.095 278.511 62.095V63.095ZM269.011 63.095V62.095C268.682 62.095 268.375 62.2564 268.188 62.5267L269.011 63.095ZM264.311 84.545L263.473 83.999C263.273 84.3064 263.257 84.6988 263.432 85.0215C263.607 85.3441 263.944 85.545 264.311 85.545V84.545ZM270.861 74.495L271.853 74.3716C271.802 73.955 271.495 73.6151 271.086 73.5207C270.677 73.4262 270.252 73.5973 270.023 73.949L270.861 74.495ZM272.111 84.545V85.545C272.398 85.545 272.671 85.4219 272.86 85.207C273.05 84.9922 273.139 84.7061 273.103 84.4216L272.111 84.545ZM244.661 99.345H255.211V97.345H244.661V99.345ZM256.041 98.9028L260.241 92.6528L258.581 91.5373L254.381 97.7873L256.041 98.9028ZM259.411 93.095H272.911V91.095H259.411V93.095ZM271.92 92.2298L272.77 98.4798L274.752 98.2103L273.902 91.9603L271.92 92.2298ZM273.761 99.345H283.961V97.345H273.761V99.345ZM284.949 98.1922L279.499 62.9422L277.523 63.2478L282.973 98.4978L284.949 98.1922ZM278.511 62.095H269.011V64.095H278.511V62.095ZM268.188 62.5267L243.838 97.7767L245.484 98.9134L269.834 63.6634L268.188 62.5267ZM265.149 85.091L271.699 75.041L270.023 73.949L263.473 83.999L265.149 85.091ZM269.869 74.6184L271.119 84.6684L273.103 84.4216L271.853 74.3716L269.869 74.6184ZM272.111 83.545H264.311V85.545H272.111V83.545ZM318.146 92.495L318.896 93.157C319.261 92.7434 319.222 92.1121 318.809 91.7463L318.146 92.495ZM311.596 86.695L312.259 85.9463C311.863 85.5958 311.263 85.614 310.889 85.9879L311.596 86.695ZM314.596 75.995L313.699 76.4359C313.818 76.6794 314.032 76.8639 314.29 76.947C314.548 77.0301 314.829 77.0046 315.068 76.8765L314.596 75.995ZM322.996 71.495L323.468 72.3765C323.914 72.1377 324.111 71.6038 323.928 71.1326L322.996 71.495ZM303.496 100.045C310.467 100.045 315.33 97.1946 318.896 93.157L317.397 91.8331C314.162 95.4954 309.825 98.045 303.496 98.045V100.045ZM318.809 91.7463L312.259 85.9463L310.933 87.4437L317.483 93.2437L318.809 91.7463ZM310.889 85.9879C308.748 88.1289 306.787 89.245 304.096 89.245V91.245C307.505 91.245 309.944 89.7611 312.303 87.4021L310.889 85.9879ZM304.096 89.245C302.301 89.245 300.817 88.6395 299.784 87.6067C298.754 86.5757 298.096 85.0428 298.096 83.045H296.096C296.096 85.4973 296.914 87.5643 298.37 89.0209C299.825 90.4755 301.841 91.245 304.096 91.245V89.245ZM298.096 83.045C298.096 77.3826 302.407 72.495 307.546 72.495V70.495C301.086 70.495 296.096 76.5074 296.096 83.045H298.096ZM307.546 72.495C309.104 72.495 310.318 72.865 311.286 73.509C312.261 74.1569 313.056 75.1278 313.699 76.4359L315.494 75.5541C314.736 74.0122 313.731 72.7331 312.394 71.8435C311.05 70.9501 309.438 70.495 307.546 70.495V72.495ZM315.068 76.8765L323.468 72.3765L322.524 70.6135L314.124 75.1135L315.068 76.8765ZM323.928 71.1326C321.662 65.3054 316.311 61.645 308.796 61.645V63.645C315.582 63.645 320.13 66.8846 322.064 71.8575L323.928 71.1326ZM308.796 61.645C294.746 61.645 285.946 72.8919 285.946 83.745H287.946C287.946 73.8981 295.946 63.645 308.796 63.645V61.645ZM285.946 83.745C285.946 88.6784 287.761 92.7805 290.911 95.6416C294.052 98.4937 298.444 100.045 303.496 100.045V98.045C298.848 98.045 294.965 96.6213 292.256 94.161C289.556 91.7095 287.946 88.1616 287.946 83.745H285.946ZM320.124 98.345L319.158 98.0856C319.078 98.386 319.141 98.7068 319.331 98.9535C319.52 99.2003 319.813 99.345 320.124 99.345V98.345ZM329.874 98.345V99.345C330.327 99.345 330.724 99.0405 330.84 98.6029L329.874 98.345ZM333.424 85.045V84.045C332.971 84.045 332.575 84.3495 332.458 84.7871L333.424 85.045ZM345.774 85.045L346.74 85.3063C346.821 85.0058 346.758 84.6845 346.568 84.4373C346.379 84.19 346.086 84.045 345.774 84.045V85.045ZM342.174 98.345L341.209 98.0837C341.128 98.3843 341.191 98.7055 341.38 98.9528C341.569 99.2 341.863 99.345 342.174 99.345V98.345ZM351.924 98.345V99.345C352.377 99.345 352.773 99.0413 352.89 98.6044L351.924 98.345ZM361.324 63.345L362.29 63.6044C362.371 63.304 362.307 62.9833 362.118 62.7365C361.929 62.4897 361.635 62.345 361.324 62.345V63.345ZM351.574 63.345V62.345C351.121 62.345 350.725 62.6494 350.608 63.0869L351.574 63.345ZM348.074 76.445V77.445C348.527 77.445 348.923 77.1407 349.04 76.7031L348.074 76.445ZM335.724 76.445L334.759 76.1835C334.678 76.484 334.741 76.8053 334.93 77.0527C335.119 77.3 335.413 77.445 335.724 77.445V76.445ZM339.274 63.345L340.239 63.6066C340.321 63.306 340.258 62.9847 340.068 62.7374C339.879 62.4901 339.586 62.345 339.274 62.345V63.345ZM329.524 63.345V62.345C329.072 62.345 328.676 62.6487 328.558 63.0856L329.524 63.345ZM320.124 99.345H329.874V97.345H320.124V99.345ZM330.84 98.6029L334.39 85.3029L332.458 84.7871L328.908 98.0871L330.84 98.6029ZM333.424 86.045H345.774V84.045H333.424V86.045ZM344.809 84.7837L341.209 98.0837L343.14 98.6063L346.74 85.3063L344.809 84.7837ZM342.174 99.345H351.924V97.345H342.174V99.345ZM352.89 98.6044L362.29 63.6044L360.358 63.0856L350.958 98.0856L352.89 98.6044ZM361.324 62.345H351.574V64.345H361.324V62.345ZM350.608 63.0869L347.108 76.1869L349.04 76.7031L352.54 63.6031L350.608 63.0869ZM348.074 75.445H335.724V77.445H348.074V75.445ZM336.689 76.7066L340.239 63.6066L338.309 63.0835L334.759 76.1835L336.689 76.7066ZM339.274 62.345H329.524V64.345H339.274V62.345ZM328.558 63.0856L319.158 98.0856L321.09 98.6044L330.49 63.6044L328.558 63.0856Z" fill="white"/>
</g>
<defs>
<filter id="filter0_d" x="0.0375366" y="0.645014" width="427.287" height="168.4" filterUnits="userSpaceOnUse" color-interpolation-filters="sRGB">
<feFlood flood-opacity="0" result="BackgroundImageFix"/>
<feColorMatrix in="SourceAlpha" type="matrix" values="0 0 0 0 0 0 0 0 0 0 0 0 0 0 0 0 0 0 127 0"/>
<feOffset dy="4"/>
<feGaussianBlur stdDeviation="32.5"/>
<feColorMatrix type="matrix" values="0 0 0 0 0.490196 0 0 0 0 0.611765 0 0 0 0 1 0 0 0 1 0"/>
<feBlend mode="normal" in2="BackgroundImageFix" result="effect1_dropShadow"/>
<feBlend mode="normal" in="SourceGraphic" in2="effect1_dropShadow" result="shape"/>
</filter>
</defs>
</svg>
