<svg xmlns="http://www.w3.org/2000/svg" xmlns:xlink="http://www.w3.org/1999/xlink" viewBox="0 0 891.1 897.23"><defs><style>.cls-1,.cls-12,.cls-13{fill:none;}.cls-11,.cls-15,.cls-2{fill:#fff;}.cls-2,.cls-4,.cls-5,.cls-6{opacity:0.5;}.cls-3{clip-path:url(#clip-path);}.cls-10,.cls-4{fill:#6380d3;}.cls-5{fill:url(#linear-gradient);}.cls-16,.cls-7,.cls-9{opacity:0.4;}.cls-7{fill:url(#linear-gradient-2);}.cls-10,.cls-11,.cls-12,.cls-8{opacity:0.3;}.cls-8{fill:url(#linear-gradient-3);}.cls-9{fill:url(#linear-gradient-4);}.cls-12{stroke:#6380d3;}.cls-12,.cls-13{stroke-miterlimit:10;}.cls-13{stroke:#fff;}.cls-14{opacity:0.8;}.cls-17{fill:#c5d2fe;}.cls-18{opacity:0.7;}</style><clipPath id="clip-path"><circle class="cls-1" cx="445.55" cy="448.62" r="397.98"/></clipPath><linearGradient id="linear-gradient" x1="1193.43" y1="103.6" x2="1005.23" y2="809.85" gradientTransform="matrix(0.97, 0.25, -0.25, 0.97, -523.42, -234.2)" gradientUnits="userSpaceOnUse"><stop offset="0" stop-color="#fff"/><stop offset="0.93" stop-color="#29235c"/></linearGradient><linearGradient id="linear-gradient-2" x1="1202.58" y1="72.81" x2="1170.7" y2="972.76" gradientTransform="matrix(0.97, 0.25, -0.25, 0.97, -523.42, -234.2)" gradientUnits="userSpaceOnUse"><stop offset="0.01" stop-color="#fff"/><stop offset="0.09" stop-color="#d4ecf9"/><stop offset="0.18" stop-color="#aadbf2"/><stop offset="0.28" stop-color="#86cbed"/><stop offset="0.39" stop-color="#69bfe9"/><stop offset="0.5" stop-color="#52b5e5"/><stop offset="0.62" stop-color="#42aee3"/><stop offset="0.75" stop-color="#39aae1"/><stop offset="0.93" stop-color="#36a9e1"/></linearGradient><linearGradient id="linear-gradient-3" x1="1197.96" y1="331.49" x2="1169.91" y2="1022.66" gradientTransform="matrix(0.97, 0.25, -0.25, 0.97, -523.42, -234.2)" gradientUnits="userSpaceOnUse"><stop offset="0.01" stop-color="#fff"/><stop offset="1" stop-color="#29235c"/></linearGradient><linearGradient id="linear-gradient-4" x1="1150.14" y1="484.37" x2="1200.6" y2="780.86" xlink:href="#linear-gradient-3"/></defs><g id="Layer_2" data-name="Layer 2"><g id="planet"><circle class="cls-2" cx="445.55" cy="448.62" r="397.98"/><g class="cls-3"><path class="cls-4" d="M-1,504.82S138.7,435.58,269.9,563.1s561.23,111.15,541.62-99.68,168.87-136,168.87-136L748.94,925.13,431.37,897.55,173.68,837,.23,652.6Z"/></g><circle class="cls-5" cx="445.55" cy="448.62" r="397.98"/><g class="cls-6"><g class="cls-3"><path class="cls-7" d="M6.07,464.89c4.86-13,180.55-284.07,383.83-158.7s465-107.95,306.58-229.73l339.38,408.39L764.8,1053.57-20,847.44Z"/><path class="cls-8" d="M28.26,470.72S223,96.7,693.38,535.18C945.32,770.06,820.82,126.3,820.82,126.3L978.23,622.51,547,1070.79,134.48,935.25Z"/><path class="cls-9" d="M-74.8,543.86c73,40.77,160,81.23,243.41,92.77,46.16,6.38,95.78.31,134-26.4C371.39,562.08,442.65,518,529,515.17c88.64-2.9,171.31,42.54,224.79,111.75,148.51,192.18,235.49,79,235.49,79L670.45,994.9S263.54,909,255.83,898.4-74.8,543.86-74.8,543.86Z"/></g></g><circle class="cls-10" cx="772.34" cy="534.45" r="49.12"/><circle class="cls-11" cx="434.51" cy="559.11" r="49.12"/><circle class="cls-10" cx="720.07" cy="458.45" r="27.66"/><circle class="cls-10" cx="711.67" cy="456.24" r="36.35"/><circle class="cls-10" cx="133.04" cy="357.94" r="27.66"/><circle class="cls-10" cx="492.53" cy="131.19" r="27.66"/><circle class="cls-10" cx="429.37" cy="558.89" r="42.02"/><circle class="cls-12" cx="494.78" cy="785.75" r="55.24"/><circle class="cls-13" cx="762.8" cy="542.84" r="42.02"/><circle class="cls-13" cx="457.58" cy="112.5" r="42.02"/><g class="cls-14"><path class="cls-15" d="M512.59,836.19l-7.93-10.47a2.09,2.09,0,0,0-3.7.79l-3,12.8-2.6-12.88a2.09,2.09,0,0,0-3.67-.89l-8.23,10.24,3.24-12.73a2.09,2.09,0,0,0-2.92-2.4L472,826.3l8.45-10.06a2.09,2.09,0,0,0-1.6-3.43l-13.13,0,12-5.4a2.09,2.09,0,0,0,.06-3.78l-11.82-5.74,13.13.32a2.08,2.08,0,0,0,1.69-3.38l-8.15-10.3,11.69,6a2.08,2.08,0,0,0,3-2.31l-2.88-12.82,7.93,10.47A2.09,2.09,0,0,0,496,785l3-12.79,2.61,12.87a2.08,2.08,0,0,0,3.67.9l8.23-10.24-3.24,12.73a2.09,2.09,0,0,0,2.92,2.4L525,785.23l-8.44,10.06a2.09,2.09,0,0,0,1.59,3.43l13.14,0-12,5.41a2.09,2.09,0,0,0,0,3.78l11.81,5.74-13.13-.33a2.09,2.09,0,0,0-1.69,3.38l8.15,10.3-11.68-6a2.09,2.09,0,0,0-3,2.32Z"/></g><g class="cls-16"><path class="cls-17" d="M237.75,505.92l-14.62-19.31a3.85,3.85,0,0,0-6.82,1.45l-5.48,23.6L206,487.91a3.85,3.85,0,0,0-6.78-1.65l-15.17,18.89,6-23.48a3.85,3.85,0,0,0-5.39-4.42L162.8,487.68l15.57-18.56a3.85,3.85,0,0,0-2.93-6.33l-24.23-.09,22.08-10a3.85,3.85,0,0,0,.1-7l-21.79-10.6,24.22.61a3.85,3.85,0,0,0,3.12-6.24l-15-19,21.56,11.06a3.86,3.86,0,0,0,5.52-4.27l-5.31-23.64L200.3,413a3.85,3.85,0,0,0,6.82-1.45l5.48-23.61,4.8,23.75a3.85,3.85,0,0,0,6.78,1.65l15.17-18.88-6,23.47a3.85,3.85,0,0,0,5.39,4.43l21.87-10.43-15.58,18.56a3.85,3.85,0,0,0,2.94,6.32l24.23.09-22.09,10a3.85,3.85,0,0,0-.1,7l21.79,10.59-24.22-.6a3.85,3.85,0,0,0-3.11,6.24l15,19L238,478a3.85,3.85,0,0,0-5.51,4.27Z"/></g><g class="cls-18"><path class="cls-15" d="M393.75,165.9l-7.94-10.47a2.08,2.08,0,0,0-3.69.79l-3,12.79-2.61-12.87a2.08,2.08,0,0,0-3.67-.9l-8.23,10.24,3.24-12.73a2.09,2.09,0,0,0-2.92-2.4L353.11,156,361.55,146a2.09,2.09,0,0,0-1.59-3.43l-13.14-.05,12-5.4a2.09,2.09,0,0,0,.05-3.78L347,127.54l13.13.33a2.08,2.08,0,0,0,1.69-3.38l-8.16-10.3,11.69,6a2.09,2.09,0,0,0,3-2.31l-2.87-12.82,7.93,10.47a2.09,2.09,0,0,0,3.7-.79l3-12.79,2.6,12.87a2.08,2.08,0,0,0,3.67.9l8.23-10.24-3.24,12.73a2.09,2.09,0,0,0,2.92,2.4l11.86-5.66L397.7,125a2.09,2.09,0,0,0,1.6,3.43l13.13,0-12,5.4a2.09,2.09,0,0,0-.06,3.78l11.82,5.75-13.13-.33a2.08,2.08,0,0,0-1.69,3.38l8.15,10.3-11.69-6a2.09,2.09,0,0,0-3,2.31Z"/></g><circle class="cls-4" cx="509.86" cy="580.06" r="18.22"/><circle class="cls-11" cx="402.56" cy="746.63" r="85.7"/></g></g></svg>