<svg width="287" height="210" viewBox="0 0 287 210" fill="none" xmlns="http://www.w3.org/2000/svg">
<path d="M23.9108 93.1557C23.9827 93.1557 24.0547 93.1737 24.1266 93.1737C23.9828 91.8067 23.9108 90.4218 23.9108 89.0189C23.9108 66.1048 42.4887 47.5074 65.4188 47.5074C67.1453 47.5074 68.8538 47.6333 70.5263 47.8311C81.353 20.1868 108.24 0.600098 139.712 0.600098C172.84 0.600098 200.895 22.2911 210.481 52.2557C213.646 51.0866 217.063 50.4211 220.642 50.4211C236.217 50.4211 248.931 62.5076 250.011 77.8137C250.047 77.8137 250.082 77.8137 250.118 77.8137C270.045 77.7957 286.213 93.965 286.213 113.911C286.213 133.858 270.045 150.027 250.1 150.027C249.993 150.027 249.885 150.009 249.777 150.009C247.529 167.797 232.386 181.574 213.988 181.574C213.862 181.574 213.736 181.556 213.61 181.556C199.762 198.535 178.684 209.381 155.053 209.381C133.49 209.381 114.049 200.334 100.291 185.837C93.96 188.697 86.9281 190.298 79.5185 190.298C51.5528 190.298 28.8925 167.635 28.8925 139.667C28.8925 139.487 28.9105 139.308 28.9105 139.11C27.2919 139.469 25.6373 139.667 23.9108 139.667C11.0699 139.667 0.674957 129.253 0.674957 116.429C0.674957 103.605 11.0879 93.1557 23.9108 93.1557Z" fill="url(#paint0_radial)" stroke="white" stroke-miterlimit="10"/>
<defs>
<radialGradient id="paint0_radial" cx="0" cy="0" r="1" gradientUnits="userSpaceOnUse" gradientTransform="translate(143.444 104.99) rotate(90) scale(104.39 142.769)">
<stop offset="0.536458" stop-color="white"/>
<stop offset="1" stop-color="white" stop-opacity="0"/>
</radialGradient>
</defs>
</svg>
