<svg width="413" height="170" viewBox="0 0 413 170" fill="none" xmlns="http://www.w3.org/2000/svg">
<g filter="url(#filter0_d)">
<path d="M70.099 98.3646H79.849L86.949 71.8646H97.449L99.699 63.3646H69.049L66.749 71.8646H77.249L70.099 98.3646ZM94.1755 98.3646H103.926L107.476 85.0646H119.826L116.226 98.3646H125.976L135.376 63.3646H125.626L122.126 76.4646H109.776L113.326 63.3646H103.576L94.1755 98.3646ZM132.017 98.3646H160.317L162.517 90.1146H143.817L145.317 84.5646H162.017L164.067 76.9146H147.367L148.817 71.6146H167.217L169.467 63.3646H141.417L132.017 98.3646ZM179.332 98.3646H188.932L194.282 78.3646L199.432 91.9646H199.632L212.182 78.2646L206.832 98.3646H216.582L225.982 63.3646H215.082L203.182 76.9146L198.532 63.3646H188.732L179.332 98.3646ZM242.542 99.0146C254.692 99.0146 263.392 89.0646 263.392 78.4146C263.392 69.5146 256.642 62.7146 246.692 62.7146C234.542 62.7146 225.842 72.6646 225.842 83.3146C225.842 92.2146 232.592 99.0146 242.542 99.0146ZM243.392 90.3146C238.442 90.3146 235.742 87.0146 235.742 82.5646C235.742 77.3646 239.742 71.4146 245.842 71.4146C250.792 71.4146 253.492 74.7146 253.492 79.1646C253.492 84.3646 249.542 90.3146 243.392 90.3146ZM283.216 99.0146C295.366 99.0146 304.066 89.0646 304.066 78.4146C304.066 69.5146 297.316 62.7146 287.366 62.7146C275.216 62.7146 266.516 72.6646 266.516 83.3146C266.516 92.2146 273.266 99.0146 283.216 99.0146ZM284.066 90.3146C279.116 90.3146 276.416 87.0146 276.416 82.5646C276.416 77.3646 280.416 71.4146 286.516 71.4146C291.466 71.4146 294.166 74.7146 294.166 79.1646C294.166 84.3646 290.216 90.3146 284.066 90.3146ZM303.99 98.3646H313.64L319.04 78.2146L328.49 98.3646H336.99L346.39 63.3646H336.74L331.49 82.8146L322.44 63.3646H313.39L303.99 98.3646Z" fill="white" fill-opacity="0.7"/>
<path d="M70.099 98.3646L69.1335 98.1041C69.0524 98.4046 69.1158 98.7256 69.3051 98.9727C69.4943 99.2197 69.7878 99.3646 70.099 99.3646V98.3646ZM79.849 98.3646V99.3646C80.3016 99.3646 80.6977 99.0606 80.8149 98.6234L79.849 98.3646ZM86.949 71.8646V70.8646C86.4963 70.8646 86.1002 71.1686 85.983 71.6058L86.949 71.8646ZM97.449 71.8646V72.8646C97.9027 72.8646 98.2995 72.5591 98.4157 72.1205L97.449 71.8646ZM99.699 63.3646L100.666 63.6205C100.745 63.3205 100.681 63.0006 100.491 62.7547C100.302 62.5087 100.009 62.3646 99.699 62.3646V63.3646ZM69.049 63.3646V62.3646C68.5973 62.3646 68.2016 62.6674 68.0837 63.1034L69.049 63.3646ZM66.749 71.8646L65.7837 71.6034C65.7023 71.9039 65.7656 72.2252 65.9548 72.4724C66.1441 72.7196 66.4376 72.8646 66.749 72.8646V71.8646ZM77.249 71.8646L78.2144 72.1251C78.2955 71.8247 78.2321 71.5036 78.0428 71.2566C77.8536 71.0095 77.5601 70.8646 77.249 70.8646V71.8646ZM70.099 99.3646H79.849V97.3646H70.099V99.3646ZM80.8149 98.6234L87.9149 72.1234L85.983 71.6058L78.883 98.1058L80.8149 98.6234ZM86.949 72.8646H97.449V70.8646H86.949V72.8646ZM98.4157 72.1205L100.666 63.6205L98.7322 63.1087L96.4822 71.6087L98.4157 72.1205ZM99.699 62.3646H69.049V64.3646H99.699V62.3646ZM68.0837 63.1034L65.7837 71.6034L67.7142 72.1258L70.0142 63.6258L68.0837 63.1034ZM66.749 72.8646H77.249V70.8646H66.749V72.8646ZM76.2835 71.6041L69.1335 98.1041L71.0644 98.6251L78.2144 72.1251L76.2835 71.6041ZM94.1755 98.3646L93.2097 98.1052C93.1291 98.4056 93.1927 98.7264 93.382 98.9732C93.5712 99.2199 93.8645 99.3646 94.1755 99.3646V98.3646ZM103.926 98.3646V99.3646C104.378 99.3646 104.775 99.0602 104.892 98.6225L103.926 98.3646ZM107.476 85.0646V84.0646C107.023 84.0646 106.626 84.3691 106.509 84.8067L107.476 85.0646ZM119.826 85.0646L120.791 85.3259C120.872 85.0254 120.809 84.7041 120.62 84.4569C120.43 84.2096 120.137 84.0646 119.826 84.0646V85.0646ZM116.226 98.3646L115.26 98.1033C115.179 98.4039 115.242 98.7251 115.431 98.9724C115.621 99.2196 115.914 99.3646 116.226 99.3646V98.3646ZM125.976 98.3646V99.3646C126.428 99.3646 126.824 99.0609 126.941 98.624L125.976 98.3646ZM135.376 63.3646L136.341 63.624C136.422 63.3237 136.358 63.0029 136.169 62.7561C135.98 62.5093 135.687 62.3646 135.376 62.3646V63.3646ZM125.626 63.3646V62.3646C125.173 62.3646 124.776 62.669 124.659 63.1065L125.626 63.3646ZM122.126 76.4646V77.4646C122.578 77.4646 122.975 77.1603 123.092 76.7227L122.126 76.4646ZM109.776 76.4646L108.81 76.2031C108.729 76.5036 108.792 76.8249 108.981 77.0723C109.171 77.3196 109.464 77.4646 109.776 77.4646V76.4646ZM113.326 63.3646L114.291 63.6262C114.372 63.3256 114.309 63.0043 114.12 62.757C113.931 62.5097 113.637 62.3646 113.326 62.3646V63.3646ZM103.576 63.3646V62.3646C103.123 62.3646 102.727 62.6683 102.61 63.1052L103.576 63.3646ZM94.1755 99.3646H103.926V97.3646H94.1755V99.3646ZM104.892 98.6225L108.442 85.3225L106.509 84.8067L102.959 98.1067L104.892 98.6225ZM107.476 86.0646H119.826V84.0646H107.476V86.0646ZM118.86 84.8033L115.26 98.1033L117.191 98.6259L120.791 85.3259L118.86 84.8033ZM116.226 99.3646H125.976V97.3646H116.226V99.3646ZM126.941 98.624L136.341 63.624L134.41 63.1052L125.01 98.1052L126.941 98.624ZM135.376 62.3646H125.626V64.3646H135.376V62.3646ZM124.659 63.1065L121.159 76.2065L123.092 76.7227L126.592 63.6227L124.659 63.1065ZM122.126 75.4646H109.776V77.4646H122.126V75.4646ZM110.741 76.7262L114.291 63.6262L112.36 63.1031L108.81 76.2031L110.741 76.7262ZM113.326 62.3646H103.576V64.3646H113.326V62.3646ZM102.61 63.1052L93.2097 98.1052L95.1413 98.624L104.541 63.624L102.61 63.1052ZM132.017 98.3646L131.052 98.1052C130.971 98.4056 131.035 98.7264 131.224 98.9732C131.413 99.2199 131.706 99.3646 132.017 99.3646V98.3646ZM160.317 98.3646V99.3646C160.77 99.3646 161.167 99.06 161.284 98.6223L160.317 98.3646ZM162.517 90.1146L163.484 90.3723C163.564 90.0721 163.5 89.7518 163.31 89.5054C163.121 89.259 162.828 89.1146 162.517 89.1146V90.1146ZM143.817 90.1146L142.852 89.8537C142.771 90.1542 142.834 90.4754 143.023 90.7225C143.213 90.9697 143.506 91.1146 143.817 91.1146V90.1146ZM145.317 84.5646V83.5646C144.866 83.5646 144.47 83.8676 144.352 84.3037L145.317 84.5646ZM162.017 84.5646V85.5646C162.47 85.5646 162.866 85.2606 162.983 84.8235L162.017 84.5646ZM164.067 76.9146L165.033 77.1735C165.114 76.8732 165.05 76.5525 164.861 76.3059C164.671 76.0592 164.378 75.9146 164.067 75.9146V76.9146ZM147.367 76.9146L146.403 76.6507C146.32 76.9515 146.383 77.2734 146.572 77.5213C146.762 77.7692 147.055 77.9146 147.367 77.9146V76.9146ZM148.817 71.6146V70.6146C148.367 70.6146 147.972 70.9161 147.853 71.3507L148.817 71.6146ZM167.217 71.6146V72.6146C167.668 72.6146 168.063 72.3128 168.182 71.8777L167.217 71.6146ZM169.467 63.3646L170.432 63.6277C170.514 63.327 170.451 63.0053 170.262 62.7576C170.073 62.5099 169.779 62.3646 169.467 62.3646V63.3646ZM141.417 63.3646V62.3646C140.965 62.3646 140.569 62.6683 140.452 63.1052L141.417 63.3646ZM132.017 99.3646H160.317V97.3646H132.017V99.3646ZM161.284 98.6223L163.484 90.3723L161.551 89.857L159.351 98.107L161.284 98.6223ZM162.517 89.1146H143.817V91.1146H162.517V89.1146ZM144.783 90.3755L146.283 84.8255L144.352 84.3037L142.852 89.8537L144.783 90.3755ZM145.317 85.5646H162.017V83.5646H145.317V85.5646ZM162.983 84.8235L165.033 77.1735L163.101 76.6558L161.051 84.3058L162.983 84.8235ZM164.067 75.9146H147.367V77.9146H164.067V75.9146ZM148.332 77.1785L149.782 71.8785L147.853 71.3507L146.403 76.6507L148.332 77.1785ZM148.817 72.6146H167.217V70.6146H148.817V72.6146ZM168.182 71.8777L170.432 63.6277L168.503 63.1015L166.253 71.3515L168.182 71.8777ZM169.467 62.3646H141.417V64.3646H169.467V62.3646ZM140.452 63.1052L131.052 98.1052L132.983 98.624L142.383 63.624L140.452 63.1052ZM179.332 98.3646L178.366 98.1052C178.285 98.4056 178.349 98.7264 178.538 98.9732C178.727 99.2199 179.021 99.3646 179.332 99.3646V98.3646ZM188.932 98.3646V99.3646C189.385 99.3646 189.781 99.0604 189.898 98.623L188.932 98.3646ZM194.282 78.3646L195.217 78.0105C195.063 77.6045 194.665 77.3441 194.231 77.3659C193.798 77.3877 193.428 77.6868 193.316 78.1062L194.282 78.3646ZM199.432 91.9646L198.497 92.3188C198.644 92.7075 199.016 92.9646 199.432 92.9646V91.9646ZM199.632 91.9646V92.9646C199.912 92.9646 200.18 92.8469 200.369 92.6401L199.632 91.9646ZM212.182 78.2646L213.148 78.5218C213.267 78.0769 213.066 77.6086 212.662 77.3875C212.258 77.1664 211.755 77.2496 211.444 77.5891L212.182 78.2646ZM206.832 98.3646L205.865 98.1074C205.786 98.4076 205.85 98.7278 206.039 98.974C206.228 99.2203 206.521 99.3646 206.832 99.3646V98.3646ZM216.582 98.3646V99.3646C217.034 99.3646 217.43 99.0609 217.548 98.624L216.582 98.3646ZM225.982 63.3646L226.948 63.624C227.028 63.3237 226.965 63.0029 226.775 62.7561C226.586 62.5093 226.293 62.3646 225.982 62.3646V63.3646ZM215.082 63.3646V62.3646C214.794 62.3646 214.52 62.4886 214.33 62.7047L215.082 63.3646ZM203.182 76.9146L202.236 77.2392C202.352 77.5765 202.638 77.8266 202.988 77.8957C203.338 77.9648 203.698 77.8424 203.933 77.5745L203.182 76.9146ZM198.532 63.3646L199.478 63.04C199.339 62.636 198.959 62.3646 198.532 62.3646V63.3646ZM188.732 63.3646V62.3646C188.279 62.3646 187.883 62.6683 187.766 63.1052L188.732 63.3646ZM179.332 99.3646H188.932V97.3646H179.332V99.3646ZM189.898 98.623L195.248 78.623L193.316 78.1062L187.966 98.1062L189.898 98.623ZM193.347 78.7188L198.497 92.3188L200.367 91.6105L195.217 78.0105L193.347 78.7188ZM199.432 92.9646H199.632V90.9646H199.432V92.9646ZM200.369 92.6401L212.919 78.9401L211.444 77.5891L198.894 91.2891L200.369 92.6401ZM211.215 78.0074L205.865 98.1074L207.798 98.6218L213.148 78.5218L211.215 78.0074ZM206.832 99.3646H216.582V97.3646H206.832V99.3646ZM217.548 98.624L226.948 63.624L225.016 63.1052L215.616 98.1052L217.548 98.624ZM225.982 62.3646H215.082V64.3646H225.982V62.3646ZM214.33 62.7047L202.43 76.2547L203.933 77.5745L215.833 64.0245L214.33 62.7047ZM204.128 76.59L199.478 63.04L197.586 63.6892L202.236 77.2392L204.128 76.59ZM198.532 62.3646H188.732V64.3646H198.532V62.3646ZM187.766 63.1052L178.366 98.1052L180.298 98.624L189.698 63.624L187.766 63.1052ZM242.542 100.015C255.276 100.015 264.392 89.5853 264.392 78.4146H262.392C262.392 88.544 254.109 98.0146 242.542 98.0146V100.015ZM264.392 78.4146C264.392 68.9238 257.155 61.7146 246.692 61.7146V63.7146C256.129 63.7146 262.392 70.1055 262.392 78.4146H264.392ZM246.692 61.7146C233.959 61.7146 224.842 72.144 224.842 83.3146H226.842C226.842 73.1853 235.126 63.7146 246.692 63.7146V61.7146ZM224.842 83.3146C224.842 92.8055 232.079 100.015 242.542 100.015V98.0146C233.105 98.0146 226.842 91.6238 226.842 83.3146H224.842ZM243.392 89.3146C241.15 89.3146 239.518 88.5742 238.441 87.4248C237.355 86.2654 236.742 84.5907 236.742 82.5646H234.742C234.742 84.9885 235.48 87.1888 236.981 88.792C238.492 90.4051 240.685 91.3146 243.392 91.3146V89.3146ZM236.742 82.5646C236.742 80.2039 237.657 77.6398 239.276 75.6758C240.886 73.7242 243.144 72.4146 245.842 72.4146V70.4146C242.44 70.4146 239.649 72.08 237.733 74.4034C235.828 76.7145 234.742 79.7253 234.742 82.5646H236.742ZM245.842 72.4146C248.085 72.4146 249.717 73.1551 250.794 74.3045C251.88 75.4638 252.492 77.1385 252.492 79.1646H254.492C254.492 76.7407 253.755 74.5404 252.253 72.9373C250.743 71.3242 248.55 70.4146 245.842 70.4146V72.4146ZM252.492 79.1646C252.492 81.5285 251.588 84.0926 249.976 86.0548C248.375 88.0036 246.117 89.3146 243.392 89.3146V91.3146C246.818 91.3146 249.61 89.6506 251.521 87.3245C253.422 85.0116 254.492 82.0008 254.492 79.1646H252.492ZM283.216 100.015C295.95 100.015 305.066 89.5853 305.066 78.4146H303.066C303.066 88.544 294.783 98.0146 283.216 98.0146V100.015ZM305.066 78.4146C305.066 68.9238 297.829 61.7146 287.366 61.7146V63.7146C296.803 63.7146 303.066 70.1055 303.066 78.4146H305.066ZM287.366 61.7146C274.633 61.7146 265.516 72.144 265.516 83.3146H267.516C267.516 73.1853 275.8 63.7146 287.366 63.7146V61.7146ZM265.516 83.3146C265.516 92.8055 272.753 100.015 283.216 100.015V98.0146C273.779 98.0146 267.516 91.6238 267.516 83.3146H265.516ZM284.066 89.3146C281.824 89.3146 280.191 88.5742 279.115 87.4248C278.029 86.2654 277.416 84.5907 277.416 82.5646H275.416C275.416 84.9885 276.153 87.1888 277.655 88.792C279.166 90.4051 281.359 91.3146 284.066 91.3146V89.3146ZM277.416 82.5646C277.416 80.2039 278.331 77.6398 279.95 75.6758C281.559 73.7242 283.818 72.4146 286.516 72.4146V70.4146C283.114 70.4146 280.323 72.08 278.407 74.4034C276.502 76.7145 275.416 79.7253 275.416 82.5646H277.416ZM286.516 72.4146C288.759 72.4146 290.391 73.1551 291.468 74.3045C292.553 75.4638 293.166 77.1385 293.166 79.1646H295.166C295.166 76.7407 294.429 74.5404 292.927 72.9373C291.416 71.3242 289.224 70.4146 286.516 70.4146V72.4146ZM293.166 79.1646C293.166 81.5285 292.262 84.0926 290.65 86.0548C289.048 88.0036 286.791 89.3146 284.066 89.3146V91.3146C287.491 91.3146 290.284 89.6506 292.195 87.3245C294.095 85.0116 295.166 82.0008 295.166 79.1646H293.166ZM303.99 98.3646L303.024 98.1052C302.944 98.4056 303.007 98.7264 303.196 98.9732C303.386 99.2199 303.679 99.3646 303.99 99.3646V98.3646ZM313.64 98.3646V99.3646C314.093 99.3646 314.489 99.0606 314.606 98.6235L313.64 98.3646ZM319.04 78.2146L319.945 77.79C319.767 77.4098 319.37 77.1815 318.952 77.2185C318.533 77.2556 318.183 77.5501 318.074 77.9558L319.04 78.2146ZM328.49 98.3646L327.585 98.7892C327.749 99.1404 328.102 99.3646 328.49 99.3646V98.3646ZM336.99 98.3646V99.3646C337.442 99.3646 337.838 99.0609 337.956 98.624L336.99 98.3646ZM346.39 63.3646L347.356 63.624C347.436 63.3237 347.373 63.0029 347.183 62.7561C346.994 62.5093 346.701 62.3646 346.39 62.3646V63.3646ZM336.74 63.3646V62.3646C336.288 62.3646 335.892 62.6677 335.775 63.104L336.74 63.3646ZM331.49 82.8146L330.583 83.2365C330.761 83.6175 331.157 83.847 331.576 83.8109C331.994 83.7749 332.346 83.4809 332.455 83.0752L331.49 82.8146ZM322.44 63.3646L323.347 62.9428C323.183 62.5901 322.829 62.3646 322.44 62.3646V63.3646ZM313.39 63.3646V62.3646C312.938 62.3646 312.542 62.6683 312.424 63.1052L313.39 63.3646ZM303.99 99.3646H313.64V97.3646H303.99V99.3646ZM314.606 98.6235L320.006 78.4735L318.074 77.9558L312.674 98.1058L314.606 98.6235ZM318.135 78.6392L327.585 98.7892L329.395 97.94L319.945 77.79L318.135 78.6392ZM328.49 99.3646H336.99V97.3646H328.49V99.3646ZM337.956 98.624L347.356 63.624L345.424 63.1052L336.024 98.1052L337.956 98.624ZM346.39 62.3646H336.74V64.3646H346.39V62.3646ZM335.775 63.104L330.525 82.554L332.455 83.0752L337.705 63.6252L335.775 63.104ZM332.397 82.3928L323.347 62.9428L321.533 63.7865L330.583 83.2365L332.397 82.3928ZM322.44 62.3646H313.39V64.3646H322.44V62.3646ZM312.424 63.1052L303.024 98.1052L304.956 98.624L314.356 63.624L312.424 63.1052Z" fill="white"/>
</g>
<defs>
<filter id="filter0_d" x="0.748901" y="0.714621" width="411.641" height="168.3" filterUnits="userSpaceOnUse" color-interpolation-filters="sRGB">
<feFlood flood-opacity="0" result="BackgroundImageFix"/>
<feColorMatrix in="SourceAlpha" type="matrix" values="0 0 0 0 0 0 0 0 0 0 0 0 0 0 0 0 0 0 127 0"/>
<feOffset dy="4"/>
<feGaussianBlur stdDeviation="32.5"/>
<feColorMatrix type="matrix" values="0 0 0 0 0.490196 0 0 0 0 0.611765 0 0 0 0 1 0 0 0 1 0"/>
<feBlend mode="normal" in2="BackgroundImageFix" result="effect1_dropShadow"/>
<feBlend mode="normal" in="SourceGraphic" in2="effect1_dropShadow" result="shape"/>
</filter>
</defs>
</svg>
