<svg width="5785" height="406" viewBox="0 0 5785 406" fill="none" xmlns="http://www.w3.org/2000/svg">
<g filter="url(#filter0_d)">
<path d="M5512.69 398.561C5729.86 289.502 5869.08 400.686 5911.55 469.911L5784.64 471.592V405.477H5498.4C5503.09 403.291 5507.86 400.987 5512.69 398.561Z" fill="url(#paint0_linear)"/>
<path d="M5245.1 405.477C5224.36 392.781 5206.24 378.238 5189.61 364.887C5153.12 335.596 5123.78 312.05 5089.62 326.371C5026.02 353.036 5018.85 382.147 5024.98 398.713C4993.37 345.488 4920.64 259.092 4848.54 286.639C4772.8 315.574 4765.03 368.232 4770.61 390.943C4737.81 358.238 4655.46 297.14 4588.4 314.394C4504.58 335.961 4292.96 371.574 4192.66 310.166C4092.35 248.758 3778 289.763 3697.55 394.109C3694.35 398.252 3690.49 402.035 3686.03 405.477H5245.1Z" fill="url(#paint1_linear)"/>
<path d="M3332.34 405.477C3213.86 377.848 3112.69 335.827 3110.37 304.416C3105.19 234.031 3021.52 141.854 2910.03 197.667C2874.94 168.296 2778.48 123.996 2673.37 181.766C2549.41 153.027 2283.96 133.421 2213.86 284.906C2032.68 189.108 1616.13 61.6168 1399.36 318.038C1309.12 214.293 1050.9 31.1548 739.989 128.563C531.845 193.774 238.077 302.63 106.308 405.477H3332.34Z" fill="url(#paint2_linear)"/>
</g>
<defs>
<filter id="filter0_d" x="0.307617" y="0.90332" width="6005.24" height="570.689" filterUnits="userSpaceOnUse" color-interpolation-filters="sRGB">
<feFlood flood-opacity="0" result="BackgroundImageFix"/>
<feColorMatrix in="SourceAlpha" type="matrix" values="0 0 0 0 0 0 0 0 0 0 0 0 0 0 0 0 0 0 127 0"/>
<feOffset dx="-6"/>
<feGaussianBlur stdDeviation="50"/>
<feColorMatrix type="matrix" values="0 0 0 0 0 0 0 0 0 0 0 0 0 0 0 0 0 0 0.05 0"/>
<feBlend mode="normal" in2="BackgroundImageFix" result="effect1_dropShadow"/>
<feBlend mode="normal" in="SourceGraphic" in2="effect1_dropShadow" result="shape"/>
</filter>
<linearGradient id="paint0_linear" x1="6093.16" y1="-105.068" x2="1194.44" y2="974.806" gradientUnits="userSpaceOnUse">
<stop offset="0.0520833" stop-color="white" stop-opacity="0"/>
<stop offset="1" stop-color="white"/>
</linearGradient>
<linearGradient id="paint1_linear" x1="6093.16" y1="-105.068" x2="1194.44" y2="974.806" gradientUnits="userSpaceOnUse">
<stop offset="0.0520833" stop-color="white" stop-opacity="0"/>
<stop offset="1" stop-color="white"/>
</linearGradient>
<linearGradient id="paint2_linear" x1="6093.16" y1="-105.068" x2="1194.44" y2="974.806" gradientUnits="userSpaceOnUse">
<stop offset="0.0520833" stop-color="white" stop-opacity="0"/>
<stop offset="1" stop-color="white"/>
</linearGradient>
</defs>
</svg>
