<svg xmlns="http://www.w3.org/2000/svg" xmlns:xlink="http://www.w3.org/1999/xlink" viewBox="0 0 10094.77 1050"><defs><style>.cls-1,.cls-2,.cls-20,.cls-21,.cls-4,.cls-5,.cls-6,.cls-9{fill:none;}.cls-2,.cls-21,.cls-5,.cls-9{stroke:#fff;}.cls-2,.cls-4{stroke-width:10px;}.cls-3{opacity:0.8;}.cls-20,.cls-4,.cls-6{stroke:#6380d3;}.cls-5{stroke-width:3px;}.cls-6{stroke-width:8px;}.cls-10,.cls-12,.cls-13,.cls-14,.cls-6{opacity:0.5;}.cls-12,.cls-18,.cls-7,.cls-8{fill:#6380d3;}.cls-7{opacity:0.6;}.cls-15,.cls-17,.cls-23,.cls-8{opacity:0.4;}.cls-9{stroke-width:5px;}.cls-10,.cls-19,.cls-22{fill:#fff;}.cls-11{clip-path:url(#clip-path);}.cls-13{fill:url(#linear-gradient);}.cls-15{fill:url(#linear-gradient-2);}.cls-16,.cls-18,.cls-19,.cls-20{opacity:0.3;}.cls-16{fill:url(#linear-gradient-3);}.cls-17{fill:url(#linear-gradient-4);}.cls-20,.cls-21{stroke-miterlimit:10;}.cls-24{fill:#c5d2fe;}.cls-25{opacity:0.7;}.cls-26{clip-path:url(#clip-path-3);}</style><clipPath id="clip-path"><circle class="cls-1" cx="5046.54" cy="483.08" r="397.98"/></clipPath><linearGradient id="linear-gradient" x1="4746.66" y1="217.64" x2="4558.45" y2="923.9" gradientTransform="matrix(0.97, 0.25, -0.25, 0.97, 669.89, -1212.72)" gradientUnits="userSpaceOnUse"><stop offset="0" stop-color="#fff"/><stop offset="0.93" stop-color="#29235c"/></linearGradient><linearGradient id="linear-gradient-2" x1="4755.8" y1="186.85" x2="4723.92" y2="1086.8" gradientTransform="matrix(0.97, 0.25, -0.25, 0.97, 669.89, -1212.72)" gradientUnits="userSpaceOnUse"><stop offset="0.01" stop-color="#fff"/><stop offset="0.09" stop-color="#d4ecf9"/><stop offset="0.18" stop-color="#aadbf2"/><stop offset="0.28" stop-color="#86cbed"/><stop offset="0.39" stop-color="#69bfe9"/><stop offset="0.5" stop-color="#52b5e5"/><stop offset="0.62" stop-color="#42aee3"/><stop offset="0.75" stop-color="#39aae1"/><stop offset="0.93" stop-color="#36a9e1"/></linearGradient><linearGradient id="linear-gradient-3" x1="4751.18" y1="445.54" x2="4723.14" y2="1136.7" gradientTransform="matrix(0.97, 0.25, -0.25, 0.97, 669.89, -1212.72)" gradientUnits="userSpaceOnUse"><stop offset="0.01" stop-color="#fff"/><stop offset="1" stop-color="#29235c"/></linearGradient><linearGradient id="linear-gradient-4" x1="4703.37" y1="598.41" x2="4753.82" y2="894.91" xlink:href="#linear-gradient-3"/><clipPath id="clip-path-3"><polygon class="cls-1" points="5848.79 1018.01 5615.51 532.68 4513.96 533.39 4647.2 927.24 5848.79 1018.01"/></clipPath></defs><g id="Layer_2" data-name="Layer 2"><path class="cls-2" d="M6412.53,528.57a4.31,4.31,0,0,1-.65.92,17.5,17.5,0,0,1-4.31,3.07c-4.31,2.36-11,4.81-20.12,7.3-18.18,5-45.18,9.85-80.18,14.55-70,9.41-171.32,18.09-296.69,25.57-250.71,15-597.18,25.19-979.95,27.09s-729.33-4.9-980.18-17.4C3925,583.42,3823.58,575.75,3753.52,567c-35-4.36-62.1-9-80.33-13.75-9.14-2.4-15.84-4.79-20.18-7.09a17.26,17.26,0,0,1-4.33-3,3.93,3.93,0,0,1-.67-.91.64.64,0,0,1-.09-.3,1.32,1.32,0,0,1,.09-.28,3.21,3.21,0,0,1,.66-.91,16.8,16.8,0,0,1,4.29-3.09c4.32-2.35,11-4.81,20.13-7.29,18.17-5,45.18-9.85,80.18-14.55,70-9.42,171.32-18.09,296.69-25.57,250.72-15,597.17-25.19,979.95-27.08s729.33,4.89,980.17,17.4C6135.53,486.8,6237,494.47,6307,503.19c35.05,4.37,62.1,9,80.33,13.76,9.15,2.4,15.86,4.79,20.19,7.1a16.66,16.66,0,0,1,4.33,3,3.28,3.28,0,0,1,.66.91.87.87,0,0,1,.08.19c0,.06,0,.09,0,.1S6412.61,528.39,6412.53,528.57Z"/><path class="cls-2" d="M6412.53,528.57a4.31,4.31,0,0,1-.65.92,17.5,17.5,0,0,1-4.31,3.07c-4.31,2.36-11,4.81-20.12,7.3-18.18,5-45.18,9.85-80.18,14.55-70,9.41-171.32,18.09-296.69,25.57-250.71,15-597.18,25.19-979.95,27.09s-729.33-4.9-980.18-17.4C3925,583.42,3823.58,575.75,3753.52,567c-35-4.36-62.1-9-80.33-13.75-9.14-2.4-15.84-4.79-20.18-7.09a17.26,17.26,0,0,1-4.33-3,3.93,3.93,0,0,1-.67-.91.64.64,0,0,1-.09-.3,1.32,1.32,0,0,1,.09-.28,3.21,3.21,0,0,1,.66-.91,16.8,16.8,0,0,1,4.29-3.09c4.32-2.35,11-4.81,20.13-7.29,18.17-5,45.18-9.85,80.18-14.55,70-9.42,171.32-18.09,296.69-25.57,250.72-15,597.17-25.19,979.95-27.08s729.33,4.89,980.17,17.4C6135.53,486.8,6237,494.47,6307,503.19c35.05,4.37,62.1,9,80.33,13.76,9.15,2.4,15.86,4.79,20.19,7.1a16.66,16.66,0,0,1,4.33,3,3.28,3.28,0,0,1,.66.91.87.87,0,0,1,.08.19c0,.06,0,.09,0,.1S6412.61,528.39,6412.53,528.57Z"/><path class="cls-2" d="M7042.24,525.17c0-1.25-1.23-4.09-8-8-6.37-3.74-16.17-7.57-29.48-11.42-26.55-7.66-65.93-15-116.93-22.05-101.93-14-249.53-26.31-432-36.39-365-20.15-869.18-31.24-1426.08-28.49s-1061,18.82-1425.73,42.58C3421.57,473.23,3274.11,487,3172.32,502c-50.94,7.5-90.24,15.28-116.71,23.2-13.28,4-23,7.91-29.37,11.7-6.74,4-7.93,6.89-7.93,8.14s1.23,4.1,8,8.07c6.37,3.73,16.16,7.56,29.48,11.41,26.56,7.66,65.94,15,116.93,22,101.94,14,249.53,26.32,432,36.4,365,20.15,869.18,31.24,1426.09,28.5s1061-18.83,1425.73-42.58C6639,597,6786.45,583.22,6888.24,568.22c50.92-7.5,90.23-15.28,116.71-23.2,13.28-4,23-7.91,29.37-11.7C7041.05,529.29,7042.25,526.44,7042.24,525.17Zm-276.5,1.74a5.55,5.55,0,0,1-.82,1.15,21.77,21.77,0,0,1-5.41,3.86c-5.42,3-13.8,6-25.26,9.16-22.82,6.24-56.73,12.36-100.67,18.27-87.85,11.82-215.1,22.71-372.51,32.11-314.77,18.81-749.77,31.62-1230.35,34S4115,619.31,3800.08,603.61c-157.49-7.84-284.84-17.47-372.8-28.43-44-5.47-78-11.26-100.86-17.27-11.48-3-19.89-6-25.33-8.91a21.81,21.81,0,0,1-5.45-3.8,4.78,4.78,0,0,1-.83-1.15.86.86,0,0,1-.11-.36.91.91,0,0,1,.1-.37,4.78,4.78,0,0,1,.83-1.15,21.47,21.47,0,0,1,5.4-3.86c5.42-3,13.81-6,25.26-9.16,22.83-6.24,56.73-12.36,100.68-18.27,87.84-11.82,215.09-22.71,372.5-32.11,314.77-18.81,749.77-31.62,1230.35-34s915.69,6.15,1230.64,21.84c157.49,7.85,284.85,17.48,372.79,28.43,44,5.49,78,11.26,100.87,17.27,11.48,3,19.89,6,25.33,8.91a21.36,21.36,0,0,1,5.44,3.81,4.36,4.36,0,0,1,.84,1.15,1,1,0,0,1,.09.23.53.53,0,0,1,0,.13A1,1,0,0,1,6765.74,526.91Z"/><path class="cls-2" d="M6412.53,528.57a4.31,4.31,0,0,1-.65.92,17.5,17.5,0,0,1-4.31,3.07c-4.31,2.36-11,4.81-20.12,7.3-18.18,5-45.18,9.85-80.18,14.55-70,9.41-171.32,18.09-296.69,25.57-250.71,15-597.18,25.19-979.95,27.09s-729.33-4.9-980.18-17.4C3925,583.42,3823.58,575.75,3753.52,567c-35-4.36-62.1-9-80.33-13.75-9.14-2.4-15.84-4.79-20.18-7.09a17.26,17.26,0,0,1-4.33-3,3.93,3.93,0,0,1-.67-.91.64.64,0,0,1-.09-.3,1.32,1.32,0,0,1,.09-.28,3.21,3.21,0,0,1,.66-.91,16.8,16.8,0,0,1,4.29-3.09c4.32-2.35,11-4.81,20.13-7.29,18.17-5,45.18-9.85,80.18-14.55,70-9.42,171.32-18.09,296.69-25.57,250.72-15,597.17-25.19,979.95-27.08s729.33,4.89,980.17,17.4C6135.53,486.8,6237,494.47,6307,503.19c35.05,4.37,62.1,9,80.33,13.76,9.15,2.4,15.86,4.79,20.19,7.1a16.66,16.66,0,0,1,4.33,3,3.28,3.28,0,0,1,.66.91.87.87,0,0,1,.08.19c0,.06,0,.09,0,.1S6412.61,528.39,6412.53,528.57Z"/><path class="cls-2" d="M7042.24,525.17c0-1.25-1.23-4.09-8-8-6.37-3.74-16.17-7.57-29.48-11.42-26.55-7.66-65.93-15-116.93-22.05-101.93-14-249.53-26.31-432-36.39-365-20.15-869.18-31.24-1426.08-28.49s-1061,18.82-1425.73,42.58C3421.57,473.23,3274.11,487,3172.32,502c-50.94,7.5-90.24,15.28-116.71,23.2-13.28,4-23,7.91-29.37,11.7-6.74,4-7.93,6.89-7.93,8.14s1.23,4.1,8,8.07c6.37,3.73,16.16,7.56,29.48,11.41,26.56,7.66,65.94,15,116.93,22,101.94,14,249.53,26.32,432,36.4,365,20.15,869.18,31.24,1426.09,28.5s1061-18.83,1425.73-42.58C6639,597,6786.45,583.22,6888.24,568.22c50.92-7.5,90.23-15.28,116.71-23.2,13.28-4,23-7.91,29.37-11.7C7041.05,529.29,7042.25,526.44,7042.24,525.17Zm-276.5,1.74a5.55,5.55,0,0,1-.82,1.15,21.77,21.77,0,0,1-5.41,3.86c-5.42,3-13.8,6-25.26,9.16-22.82,6.24-56.73,12.36-100.67,18.27-87.85,11.82-215.1,22.71-372.51,32.11-314.77,18.81-749.77,31.62-1230.35,34S4115,619.31,3800.08,603.61c-157.49-7.84-284.84-17.47-372.8-28.43-44-5.47-78-11.26-100.86-17.27-11.48-3-19.89-6-25.33-8.91a21.81,21.81,0,0,1-5.45-3.8,4.78,4.78,0,0,1-.83-1.15.86.86,0,0,1-.11-.36.91.91,0,0,1,.1-.37,4.78,4.78,0,0,1,.83-1.15,21.47,21.47,0,0,1,5.4-3.86c5.42-3,13.81-6,25.26-9.16,22.83-6.24,56.73-12.36,100.68-18.27,87.84-11.82,215.09-22.71,372.5-32.11,314.77-18.81,749.77-31.62,1230.35-34s915.69,6.15,1230.64,21.84c157.49,7.85,284.85,17.48,372.79,28.43,44,5.49,78,11.26,100.87,17.27,11.48,3,19.89,6,25.33,8.91a21.36,21.36,0,0,1,5.44,3.81,4.36,4.36,0,0,1,.84,1.15,1,1,0,0,1,.09.23.53.53,0,0,1,0,.13A1,1,0,0,1,6765.74,526.91Z"/><path class="cls-2" d="M6412.53,528.57a4.31,4.31,0,0,1-.65.92,17.5,17.5,0,0,1-4.31,3.07c-4.31,2.36-11,4.81-20.12,7.3-18.18,5-45.18,9.85-80.18,14.55-70,9.41-171.32,18.09-296.69,25.57-250.71,15-597.18,25.19-979.95,27.09s-729.33-4.9-980.18-17.4C3925,583.42,3823.58,575.75,3753.52,567c-35-4.36-62.1-9-80.33-13.75-9.14-2.4-15.84-4.79-20.18-7.09a17.26,17.26,0,0,1-4.33-3,3.93,3.93,0,0,1-.67-.91.64.64,0,0,1-.09-.3,1.32,1.32,0,0,1,.09-.28,3.21,3.21,0,0,1,.66-.91,16.8,16.8,0,0,1,4.29-3.09c4.32-2.35,11-4.81,20.13-7.29,18.17-5,45.18-9.85,80.18-14.55,70-9.42,171.32-18.09,296.69-25.57,250.72-15,597.17-25.19,979.95-27.08s729.33,4.89,980.17,17.4C6135.53,486.8,6237,494.47,6307,503.19c35.05,4.37,62.1,9,80.33,13.76,9.15,2.4,15.86,4.79,20.19,7.1a16.66,16.66,0,0,1,4.33,3,3.28,3.28,0,0,1,.66.91.87.87,0,0,1,.08.19c0,.06,0,.09,0,.1S6412.61,528.39,6412.53,528.57Z"/><path class="cls-2" d="M7042.24,525.17c0-1.25-1.23-4.09-8-8-6.37-3.74-16.17-7.57-29.48-11.42-26.55-7.66-65.93-15-116.93-22.05-101.93-14-249.53-26.31-432-36.39-365-20.15-869.18-31.24-1426.08-28.49s-1061,18.82-1425.73,42.58C3421.57,473.23,3274.11,487,3172.32,502c-50.94,7.5-90.24,15.28-116.71,23.2-13.28,4-23,7.91-29.37,11.7-6.74,4-7.93,6.89-7.93,8.14s1.23,4.1,8,8.07c6.37,3.73,16.16,7.56,29.48,11.41,26.56,7.66,65.94,15,116.93,22,101.94,14,249.53,26.32,432,36.4,365,20.15,869.18,31.24,1426.09,28.5s1061-18.83,1425.73-42.58C6639,597,6786.45,583.22,6888.24,568.22c50.92-7.5,90.23-15.28,116.71-23.2,13.28-4,23-7.91,29.37-11.7C7041.05,529.29,7042.25,526.44,7042.24,525.17Zm-276.5,1.74a5.55,5.55,0,0,1-.82,1.15,21.77,21.77,0,0,1-5.41,3.86c-5.42,3-13.8,6-25.26,9.16-22.82,6.24-56.73,12.36-100.67,18.27-87.85,11.82-215.1,22.71-372.51,32.11-314.77,18.81-749.77,31.62-1230.35,34S4115,619.31,3800.08,603.61c-157.49-7.84-284.84-17.47-372.8-28.43-44-5.47-78-11.26-100.86-17.27-11.48-3-19.89-6-25.33-8.91a21.81,21.81,0,0,1-5.45-3.8,4.78,4.78,0,0,1-.83-1.15.86.86,0,0,1-.11-.36.91.91,0,0,1,.1-.37,4.78,4.78,0,0,1,.83-1.15,21.47,21.47,0,0,1,5.4-3.86c5.42-3,13.81-6,25.26-9.16,22.83-6.24,56.73-12.36,100.68-18.27,87.84-11.82,215.09-22.71,372.5-32.11,314.77-18.81,749.77-31.62,1230.35-34s915.69,6.15,1230.64,21.84c157.49,7.85,284.85,17.48,372.79,28.43,44,5.49,78,11.26,100.87,17.27,11.48,3,19.89,6,25.33,8.91a21.36,21.36,0,0,1,5.44,3.81,4.36,4.36,0,0,1,.84,1.15,1,1,0,0,1,.09.23.53.53,0,0,1,0,.13A1,1,0,0,1,6765.74,526.91Zm276.5-1.74c0-1.25-1.23-4.09-8-8-6.37-3.74-16.17-7.57-29.48-11.42-26.55-7.66-65.93-15-116.93-22.05-101.93-14-249.53-26.31-432-36.39-365-20.15-869.18-31.24-1426.08-28.49s-1061,18.82-1425.73,42.58C3421.57,473.23,3274.11,487,3172.32,502c-50.94,7.5-90.24,15.28-116.71,23.2-13.28,4-23,7.91-29.37,11.7-6.74,4-7.93,6.89-7.93,8.14s1.23,4.1,8,8.07c6.37,3.73,16.16,7.56,29.48,11.41,26.56,7.66,65.94,15,116.93,22,101.94,14,249.53,26.32,432,36.4,365,20.15,869.18,31.24,1426.09,28.5s1061-18.83,1425.73-42.58C6639,597,6786.45,583.22,6888.24,568.22c50.92-7.5,90.23-15.28,116.71-23.2,13.28-4,23-7.91,29.37-11.7C7041.05,529.29,7042.25,526.44,7042.24,525.17Zm-276.5,1.74a5.55,5.55,0,0,1-.82,1.15,21.77,21.77,0,0,1-5.41,3.86c-5.42,3-13.8,6-25.26,9.16-22.82,6.24-56.73,12.36-100.67,18.27-87.85,11.82-215.1,22.71-372.51,32.11-314.77,18.81-749.77,31.62-1230.35,34S4115,619.31,3800.08,603.61c-157.49-7.84-284.84-17.47-372.8-28.43-44-5.47-78-11.26-100.86-17.27-11.48-3-19.89-6-25.33-8.91a21.81,21.81,0,0,1-5.45-3.8,4.78,4.78,0,0,1-.83-1.15.86.86,0,0,1-.11-.36.91.91,0,0,1,.1-.37,4.78,4.78,0,0,1,.83-1.15,21.47,21.47,0,0,1,5.4-3.86c5.42-3,13.81-6,25.26-9.16,22.83-6.24,56.73-12.36,100.68-18.27,87.84-11.82,215.09-22.71,372.5-32.11,314.77-18.81,749.77-31.62,1230.35-34s915.69,6.15,1230.64,21.84c157.49,7.85,284.85,17.48,372.79,28.43,44,5.49,78,11.26,100.87,17.27,11.48,3,19.89,6,25.33,8.91a21.36,21.36,0,0,1,5.44,3.81,4.36,4.36,0,0,1,.84,1.15,1,1,0,0,1,.09.23.53.53,0,0,1,0,.13A1,1,0,0,1,6765.74,526.91ZM9502.25,513c0-6.37-5.59-14.24-20.78-23.14q-22.2-13-66.83-25.92c-59.38-17.13-147.13-33.58-260.42-49.12-226.5-31.08-554.3-58.47-959.47-80.84C7384.47,289.28,6265.18,264.67,5029,270.78s-2355.21,41.77-3165,94.5c-404.91,26.37-732.44,57-958.62,90.31-113.13,16.67-200.72,34-259.91,51.7q-44.46,13.3-66.58,26.58c-15.11,9-20.58,17-20.55,23.33s5.59,14.24,20.78,23.14q22.2,13,66.83,25.92C705.28,623.4,793,639.84,906.33,655.38c226.5,31.08,554.31,58.47,959.47,80.84,810.28,44.72,1929.56,69.34,3165.78,63.24s2355.2-41.78,3165-94.51c404.92-26.38,732.44-57,958.62-90.32,113.13-16.66,200.72-34,259.91-51.69q44.46-13.31,66.58-26.58C9496.81,527.32,9502.28,519.38,9502.25,513Zm-512.74,22.72q-19.53,11.7-59.09,23.59c-52.62,15.75-130.5,31.14-231.11,45.95-201.18,29.64-492.49,56.87-852.65,80.34-720.3,46.9-1715.63,78.63-2815.22,84.06s-2095.19-16.46-2815.91-56.25c-360.39-19.9-652-44.26-853.4-71.9-100.77-13.83-178.78-28.44-231.56-43.68q-39.64-11.43-59.32-23c-13.5-7.91-18.18-14.77-18.21-20.1s4.58-12.24,18-20.28q19.55-11.72,59.11-23.59c52.61-15.75,130.49-31.14,231.1-46,201.17-29.63,492.48-56.87,852.65-80.32C2934.2,337.7,3929.53,306,5029.12,300.53S7124.3,317,7845,356.79c360.38,19.89,651.95,44.26,853.41,71.9,100.75,13.82,178.78,28.44,231.55,43.67q39.63,11.44,59.32,23c13.5,7.91,18.17,14.77,18.21,20.11S9002.93,527.71,8989.51,535.75ZM7034.23,517.12c-6.37-3.74-16.17-7.57-29.48-11.42-26.55-7.66-65.93-15-116.93-22.05-101.93-14-249.53-26.31-432-36.39-365-20.15-869.18-31.24-1426.08-28.49s-1061,18.82-1425.73,42.58C3421.57,473.23,3274.11,487,3172.32,502c-50.94,7.5-90.24,15.28-116.71,23.2-13.28,4-23,7.91-29.37,11.7-6.74,4-7.93,6.89-7.93,8.14s1.23,4.1,8,8.07c6.37,3.73,16.16,7.56,29.48,11.41,26.56,7.66,65.94,15,116.93,22,101.94,14,249.53,26.32,432,36.4,365,20.15,869.18,31.24,1426.09,28.5s1061-18.83,1425.73-42.58C6639,597,6786.45,583.22,6888.24,568.22c50.92-7.5,90.23-15.28,116.71-23.2,13.28-4,23-7.91,29.37-11.7,6.73-4,7.93-6.88,7.92-8.15S7041,521.08,7034.23,517.12Zm-268.49,9.79a5.55,5.55,0,0,1-.82,1.15,21.77,21.77,0,0,1-5.41,3.86c-5.42,3-13.8,6-25.26,9.16-22.82,6.24-56.73,12.36-100.67,18.27-87.85,11.82-215.1,22.71-372.51,32.11-314.77,18.81-749.77,31.62-1230.35,34S4115,619.31,3800.08,603.61c-157.49-7.84-284.84-17.47-372.8-28.43-44-5.47-78-11.26-100.86-17.27-11.48-3-19.89-6-25.33-8.91a21.81,21.81,0,0,1-5.45-3.8,4.78,4.78,0,0,1-.83-1.15.86.86,0,0,1-.11-.36.91.91,0,0,1,.1-.37,4.78,4.78,0,0,1,.83-1.15,21.47,21.47,0,0,1,5.4-3.86c5.42-3,13.81-6,25.26-9.16,22.83-6.24,56.73-12.36,100.68-18.27,87.84-11.82,215.09-22.71,372.5-32.11,314.77-18.81,749.77-31.62,1230.35-34s915.69,6.15,1230.64,21.84c157.49,7.85,284.85,17.48,372.79,28.43,44,5.49,78,11.26,100.87,17.27,11.48,3,19.89,6,25.33,8.91a21.36,21.36,0,0,1,5.44,3.81,4.36,4.36,0,0,1,.84,1.15,1,1,0,0,1,.09.23.53.53,0,0,1,0,.13A1,1,0,0,1,6765.74,526.91Zm276.5-1.74c0-1.25-1.23-4.09-8-8-6.37-3.74-16.17-7.57-29.48-11.42-26.55-7.66-65.93-15-116.93-22.05-101.93-14-249.53-26.31-432-36.39-365-20.15-869.18-31.24-1426.08-28.49s-1061,18.82-1425.73,42.58C3421.57,473.23,3274.11,487,3172.32,502c-50.94,7.5-90.24,15.28-116.71,23.2-13.28,4-23,7.91-29.37,11.7-6.74,4-7.93,6.89-7.93,8.14s1.23,4.1,8,8.07c6.37,3.73,16.16,7.56,29.48,11.41,26.56,7.66,65.94,15,116.93,22,101.94,14,249.53,26.32,432,36.4,365,20.15,869.18,31.24,1426.09,28.5s1061-18.83,1425.73-42.58C6639,597,6786.45,583.22,6888.24,568.22c50.92-7.5,90.23-15.28,116.71-23.2,13.28-4,23-7.91,29.37-11.7C7041.05,529.29,7042.25,526.44,7042.24,525.17Zm-276.5,1.74a5.55,5.55,0,0,1-.82,1.15,21.77,21.77,0,0,1-5.41,3.86c-5.42,3-13.8,6-25.26,9.16-22.82,6.24-56.73,12.36-100.67,18.27-87.85,11.82-215.1,22.71-372.51,32.11-314.77,18.81-749.77,31.62-1230.35,34S4115,619.31,3800.08,603.61c-157.49-7.84-284.84-17.47-372.8-28.43-44-5.47-78-11.26-100.86-17.27-11.48-3-19.89-6-25.33-8.91a21.81,21.81,0,0,1-5.45-3.8,4.78,4.78,0,0,1-.83-1.15.86.86,0,0,1-.11-.36.91.91,0,0,1,.1-.37,4.78,4.78,0,0,1,.83-1.15,21.47,21.47,0,0,1,5.4-3.86c5.42-3,13.81-6,25.26-9.16,22.83-6.24,56.73-12.36,100.68-18.27,87.84-11.82,215.09-22.71,372.5-32.11,314.77-18.81,749.77-31.62,1230.35-34s915.69,6.15,1230.64,21.84c157.49,7.85,284.85,17.48,372.79,28.43,44,5.49,78,11.26,100.87,17.27,11.48,3,19.89,6,25.33,8.91a21.36,21.36,0,0,1,5.44,3.81,4.36,4.36,0,0,1,.84,1.15,1,1,0,0,1,.09.23.53.53,0,0,1,0,.13A1,1,0,0,1,6765.74,526.91Zm276.5-1.74c0-1.25-1.23-4.09-8-8-6.37-3.74-16.17-7.57-29.48-11.42-26.55-7.66-65.93-15-116.93-22.05-101.93-14-249.53-26.31-432-36.39-365-20.15-869.18-31.24-1426.08-28.49s-1061,18.82-1425.73,42.58C3421.57,473.23,3274.11,487,3172.32,502c-50.94,7.5-90.24,15.28-116.71,23.2-13.28,4-23,7.91-29.37,11.7-6.74,4-7.93,6.89-7.93,8.14s1.23,4.1,8,8.07c6.37,3.73,16.16,7.56,29.48,11.41,26.56,7.66,65.94,15,116.93,22,101.94,14,249.53,26.32,432,36.4,365,20.15,869.18,31.24,1426.09,28.5s1061-18.83,1425.73-42.58C6639,597,6786.45,583.22,6888.24,568.22c50.92-7.5,90.23-15.28,116.71-23.2,13.28-4,23-7.91,29.37-11.7C7041.05,529.29,7042.25,526.44,7042.24,525.17Zm-276.5,1.74a5.55,5.55,0,0,1-.82,1.15,21.77,21.77,0,0,1-5.41,3.86c-5.42,3-13.8,6-25.26,9.16-22.82,6.24-56.73,12.36-100.67,18.27-87.85,11.82-215.1,22.71-372.51,32.11-314.77,18.81-749.77,31.62-1230.35,34S4115,619.31,3800.08,603.61c-157.49-7.84-284.84-17.47-372.8-28.43-44-5.47-78-11.26-100.86-17.27-11.48-3-19.89-6-25.33-8.91a21.81,21.81,0,0,1-5.45-3.8,4.78,4.78,0,0,1-.83-1.15.86.86,0,0,1-.11-.36.91.91,0,0,1,.1-.37,4.78,4.78,0,0,1,.83-1.15,21.47,21.47,0,0,1,5.4-3.86c5.42-3,13.81-6,25.26-9.16,22.83-6.24,56.73-12.36,100.68-18.27,87.84-11.82,215.09-22.71,372.5-32.11,314.77-18.81,749.77-31.62,1230.35-34s915.69,6.15,1230.64,21.84c157.49,7.85,284.85,17.48,372.79,28.43,44,5.49,78,11.26,100.87,17.27,11.48,3,19.89,6,25.33,8.91a21.36,21.36,0,0,1,5.44,3.81,4.36,4.36,0,0,1,.84,1.15,1,1,0,0,1,.09.23.53.53,0,0,1,0,.13A1,1,0,0,1,6765.74,526.91Z"/><path class="cls-2" d="M6412.53,528.57a4.31,4.31,0,0,1-.65.92,17.5,17.5,0,0,1-4.31,3.07c-4.31,2.36-11,4.81-20.12,7.3-18.18,5-45.18,9.85-80.18,14.55-70,9.41-171.32,18.09-296.69,25.57-250.71,15-597.18,25.19-979.95,27.09s-729.33-4.9-980.18-17.4C3925,583.42,3823.58,575.75,3753.52,567c-35-4.36-62.1-9-80.33-13.75-9.14-2.4-15.84-4.79-20.18-7.09a17.26,17.26,0,0,1-4.33-3,3.93,3.93,0,0,1-.67-.91.64.64,0,0,1-.09-.3,1.32,1.32,0,0,1,.09-.28,3.21,3.21,0,0,1,.66-.91,16.8,16.8,0,0,1,4.29-3.09c4.32-2.35,11-4.81,20.13-7.29,18.17-5,45.18-9.85,80.18-14.55,70-9.42,171.32-18.09,296.69-25.57,250.72-15,597.17-25.19,979.95-27.08s729.33,4.89,980.17,17.4C6135.53,486.8,6237,494.47,6307,503.19c35.05,4.37,62.1,9,80.33,13.76,9.15,2.4,15.86,4.79,20.19,7.1a16.66,16.66,0,0,1,4.33,3,3.28,3.28,0,0,1,.66.91.87.87,0,0,1,.08.19c0,.06,0,.09,0,.1S6412.61,528.39,6412.53,528.57Z"/><path class="cls-2" d="M7042.24,525.17c0-1.25-1.23-4.09-8-8-6.37-3.74-16.17-7.57-29.48-11.42-26.55-7.66-65.93-15-116.93-22.05-101.93-14-249.53-26.31-432-36.39-365-20.15-869.18-31.24-1426.08-28.49s-1061,18.82-1425.73,42.58C3421.57,473.23,3274.11,487,3172.32,502c-50.94,7.5-90.24,15.28-116.71,23.2-13.28,4-23,7.91-29.37,11.7-6.74,4-7.93,6.89-7.93,8.14s1.23,4.1,8,8.07c6.37,3.73,16.16,7.56,29.48,11.41,26.56,7.66,65.94,15,116.93,22,101.94,14,249.53,26.32,432,36.4,365,20.15,869.18,31.24,1426.09,28.5s1061-18.83,1425.73-42.58C6639,597,6786.45,583.22,6888.24,568.22c50.92-7.5,90.23-15.28,116.71-23.2,13.28-4,23-7.91,29.37-11.7C7041.05,529.29,7042.25,526.44,7042.24,525.17Z"/><path class="cls-2" d="M6765.74,526.91a5.55,5.55,0,0,1-.82,1.15,21.77,21.77,0,0,1-5.41,3.86c-5.42,3-13.8,6-25.26,9.16-22.82,6.24-56.73,12.36-100.67,18.27-87.85,11.82-215.1,22.71-372.51,32.11-314.77,18.81-749.77,31.62-1230.35,34S4115,619.31,3800.08,603.61c-157.49-7.84-284.84-17.47-372.8-28.43-44-5.47-78-11.26-100.86-17.27-11.48-3-19.89-6-25.33-8.91a21.81,21.81,0,0,1-5.45-3.8,4.78,4.78,0,0,1-.83-1.15.86.86,0,0,1-.11-.36.91.91,0,0,1,.1-.37,4.78,4.78,0,0,1,.83-1.15,21.47,21.47,0,0,1,5.4-3.86c5.42-3,13.81-6,25.26-9.16,22.83-6.24,56.73-12.36,100.68-18.27,87.84-11.82,215.09-22.71,372.5-32.11,314.77-18.81,749.77-31.62,1230.35-34s915.69,6.15,1230.64,21.84c157.49,7.85,284.85,17.48,372.79,28.43,44,5.49,78,11.26,100.87,17.27,11.48,3,19.89,6,25.33,8.91a21.36,21.36,0,0,1,5.44,3.81,4.36,4.36,0,0,1,.84,1.15,1,1,0,0,1,.09.23.53.53,0,0,1,0,.13A1,1,0,0,1,6765.74,526.91Z"/><path class="cls-2" d="M7042.24,525.17c0-1.25-1.23-4.09-8-8-6.37-3.74-16.17-7.57-29.48-11.42-26.55-7.66-65.93-15-116.93-22.05-101.93-14-249.53-26.31-432-36.39-365-20.15-869.18-31.24-1426.08-28.49s-1061,18.82-1425.73,42.58C3421.57,473.23,3274.11,487,3172.32,502c-50.94,7.5-90.24,15.28-116.71,23.2-13.28,4-23,7.91-29.37,11.7-6.74,4-7.93,6.89-7.93,8.14s1.23,4.1,8,8.07c6.37,3.73,16.16,7.56,29.48,11.41,26.56,7.66,65.94,15,116.93,22,101.94,14,249.53,26.32,432,36.4,365,20.15,869.18,31.24,1426.09,28.5s1061-18.83,1425.73-42.58C6639,597,6786.45,583.22,6888.24,568.22c50.92-7.5,90.23-15.28,116.71-23.2,13.28-4,23-7.91,29.37-11.7C7041.05,529.29,7042.25,526.44,7042.24,525.17Z"/><path class="cls-2" d="M6765.74,526.91a5.55,5.55,0,0,1-.82,1.15,21.77,21.77,0,0,1-5.41,3.86c-5.42,3-13.8,6-25.26,9.16-22.82,6.24-56.73,12.36-100.67,18.27-87.85,11.82-215.1,22.71-372.51,32.11-314.77,18.81-749.77,31.62-1230.35,34S4115,619.31,3800.08,603.61c-157.49-7.84-284.84-17.47-372.8-28.43-44-5.47-78-11.26-100.86-17.27-11.48-3-19.89-6-25.33-8.91a21.81,21.81,0,0,1-5.45-3.8,4.78,4.78,0,0,1-.83-1.15.86.86,0,0,1-.11-.36.91.91,0,0,1,.1-.37,4.78,4.78,0,0,1,.83-1.15,21.47,21.47,0,0,1,5.4-3.86c5.42-3,13.81-6,25.26-9.16,22.83-6.24,56.73-12.36,100.68-18.27,87.84-11.82,215.09-22.71,372.5-32.11,314.77-18.81,749.77-31.62,1230.35-34s915.69,6.15,1230.64,21.84c157.49,7.85,284.85,17.48,372.79,28.43,44,5.49,78,11.26,100.87,17.27,11.48,3,19.89,6,25.33,8.91a21.36,21.36,0,0,1,5.44,3.81,4.36,4.36,0,0,1,.84,1.15,1,1,0,0,1,.09.23.53.53,0,0,1,0,.13A1,1,0,0,1,6765.74,526.91Z"/><g class="cls-3"><path class="cls-4" d="M9502.25,513c0-6.37-5.59-14.24-20.78-23.14q-22.2-13-66.83-25.92c-59.38-17.13-147.13-33.58-260.42-49.12-226.5-31.08-554.3-58.47-959.47-80.84C7384.47,289.28,6265.18,264.67,5029,270.78s-2355.21,41.77-3165,94.5c-404.91,26.37-732.44,57-958.62,90.31-113.13,16.67-200.72,34-259.91,51.7q-44.46,13.3-66.58,26.58c-15.11,9-20.58,17-20.55,23.33s5.59,14.24,20.78,23.14q22.2,13,66.83,25.92C705.28,623.4,793,639.84,906.33,655.38c226.5,31.08,554.31,58.47,959.47,80.84,810.28,44.72,1929.56,69.34,3165.78,63.24s2355.2-41.78,3165-94.51c404.92-26.38,732.44-57,958.62-90.32,113.13-16.66,200.72-34,259.91-51.69q44.46-13.31,66.58-26.58C9496.81,527.32,9502.28,519.38,9502.25,513Z"/><path class="cls-4" d="M8989.51,535.75q-19.53,11.7-59.09,23.59c-52.62,15.75-130.5,31.14-231.11,45.95-201.18,29.64-492.49,56.87-852.65,80.34-720.3,46.9-1715.63,78.63-2815.22,84.06s-2095.19-16.46-2815.91-56.25c-360.39-19.9-652-44.26-853.4-71.9-100.77-13.83-178.78-28.44-231.56-43.68q-39.64-11.43-59.32-23c-13.5-7.91-18.18-14.77-18.21-20.1s4.58-12.24,18-20.28q19.55-11.72,59.11-23.59c52.61-15.75,130.49-31.14,231.1-46,201.17-29.63,492.48-56.87,852.65-80.32C2934.2,337.7,3929.53,306,5029.12,300.53S7124.3,317,7845,356.79c360.38,19.89,651.95,44.26,853.41,71.9,100.75,13.82,178.78,28.44,231.55,43.67q39.63,11.44,59.32,23c13.5,7.91,18.17,14.77,18.21,20.11S9002.93,527.71,8989.51,535.75Z"/></g><path class="cls-2" d="M7034.23,517.12c-6.37-3.74-16.17-7.57-29.48-11.42-26.55-7.66-65.93-15-116.93-22.05-101.93-14-249.53-26.31-432-36.39-365-20.15-869.18-31.24-1426.08-28.49s-1061,18.82-1425.73,42.58C3421.57,473.23,3274.11,487,3172.32,502c-50.94,7.5-90.24,15.28-116.71,23.2-13.28,4-23,7.91-29.37,11.7-6.74,4-7.93,6.89-7.93,8.14s1.23,4.1,8,8.07c6.37,3.73,16.16,7.56,29.48,11.41,26.56,7.66,65.94,15,116.93,22,101.94,14,249.53,26.32,432,36.4,365,20.15,869.18,31.24,1426.09,28.5s1061-18.83,1425.73-42.58C6639,597,6786.45,583.22,6888.24,568.22c50.92-7.5,90.23-15.28,116.71-23.2,13.28-4,23-7.91,29.37-11.7,6.73-4,7.93-6.88,7.92-8.15S7041,521.08,7034.23,517.12Z"/><path class="cls-2" d="M6765.74,526.91a5.55,5.55,0,0,1-.82,1.15,21.77,21.77,0,0,1-5.41,3.86c-5.42,3-13.8,6-25.26,9.16-22.82,6.24-56.73,12.36-100.67,18.27-87.85,11.82-215.1,22.71-372.51,32.11-314.77,18.81-749.77,31.62-1230.35,34S4115,619.31,3800.08,603.61c-157.49-7.84-284.84-17.47-372.8-28.43-44-5.47-78-11.26-100.86-17.27-11.48-3-19.89-6-25.33-8.91a21.81,21.81,0,0,1-5.45-3.8,4.78,4.78,0,0,1-.83-1.15.86.86,0,0,1-.11-.36.91.91,0,0,1,.1-.37,4.78,4.78,0,0,1,.83-1.15,21.47,21.47,0,0,1,5.4-3.86c5.42-3,13.81-6,25.26-9.16,22.83-6.24,56.73-12.36,100.68-18.27,87.84-11.82,215.09-22.71,372.5-32.11,314.77-18.81,749.77-31.62,1230.35-34s915.69,6.15,1230.64,21.84c157.49,7.85,284.85,17.48,372.79,28.43,44,5.49,78,11.26,100.87,17.27,11.48,3,19.89,6,25.33,8.91a21.36,21.36,0,0,1,5.44,3.81,4.36,4.36,0,0,1,.84,1.15,1,1,0,0,1,.09.23.53.53,0,0,1,0,.13A1,1,0,0,1,6765.74,526.91Z"/><path class="cls-2" d="M7042.24,525.17c0-1.25-1.23-4.09-8-8-6.37-3.74-16.17-7.57-29.48-11.42-26.55-7.66-65.93-15-116.93-22.05-101.93-14-249.53-26.31-432-36.39-365-20.15-869.18-31.24-1426.08-28.49s-1061,18.82-1425.73,42.58C3421.57,473.23,3274.11,487,3172.32,502c-50.94,7.5-90.24,15.28-116.71,23.2-13.28,4-23,7.91-29.37,11.7-6.74,4-7.93,6.89-7.93,8.14s1.23,4.1,8,8.07c6.37,3.73,16.16,7.56,29.48,11.41,26.56,7.66,65.94,15,116.93,22,101.94,14,249.53,26.32,432,36.4,365,20.15,869.18,31.24,1426.09,28.5s1061-18.83,1425.73-42.58C6639,597,6786.45,583.22,6888.24,568.22c50.92-7.5,90.23-15.28,116.71-23.2,13.28-4,23-7.91,29.37-11.7C7041.05,529.29,7042.25,526.44,7042.24,525.17Z"/><path class="cls-2" d="M6765.74,526.91a5.55,5.55,0,0,1-.82,1.15,21.77,21.77,0,0,1-5.41,3.86c-5.42,3-13.8,6-25.26,9.16-22.82,6.24-56.73,12.36-100.67,18.27-87.85,11.82-215.1,22.71-372.51,32.11-314.77,18.81-749.77,31.62-1230.35,34S4115,619.31,3800.08,603.61c-157.49-7.84-284.84-17.47-372.8-28.43-44-5.47-78-11.26-100.86-17.27-11.48-3-19.89-6-25.33-8.91a21.81,21.81,0,0,1-5.45-3.8,4.78,4.78,0,0,1-.83-1.15.86.86,0,0,1-.11-.36.91.91,0,0,1,.1-.37,4.78,4.78,0,0,1,.83-1.15,21.47,21.47,0,0,1,5.4-3.86c5.42-3,13.81-6,25.26-9.16,22.83-6.24,56.73-12.36,100.68-18.27,87.84-11.82,215.09-22.71,372.5-32.11,314.77-18.81,749.77-31.62,1230.35-34s915.69,6.15,1230.64,21.84c157.49,7.85,284.85,17.48,372.79,28.43,44,5.49,78,11.26,100.87,17.27,11.48,3,19.89,6,25.33,8.91a21.36,21.36,0,0,1,5.44,3.81,4.36,4.36,0,0,1,.84,1.15,1,1,0,0,1,.09.23.53.53,0,0,1,0,.13A1,1,0,0,1,6765.74,526.91Z"/><path class="cls-5" d="M9343.09,513.8c0-2.68-2.63-8.78-17.16-17.27-13.65-8-34.66-16.22-63.18-24.46-56.93-16.42-141.33-32.25-250.66-47.27-218.5-30-534.9-56.41-926.12-78-782.35-43.19-1863.16-67-3056.92-61.08S2754.76,326.06,1972.87,377c-391,25.47-707.1,55-925.29,87.17C938.4,480.22,854.14,496.9,797.4,513.88c-28.46,8.53-49.38,17-62.95,25.09-14.44,8.64-17,14.75-17,17.44s2.63,8.8,17.15,17.29c13.66,8,34.66,16.22,63.21,24.47,56.92,16.42,141.33,32.25,250.64,47.24,218.52,30,534.89,56.43,926.11,78,782.38,43.2,1863.17,67,3057,61.08S7305.8,744.17,8087.7,693.25c391-25.47,707.09-55,925.28-87.17,109.17-16.07,193.42-32.75,250.19-49.73,28.46-8.53,49.38-17,63-25.09C9340.56,522.62,9343.11,516.51,9343.09,513.8Z"/><path class="cls-5" d="M8951,515.74c0-2.44-2.4-8-15.6-15.7-12.42-7.27-31.51-14.75-57.44-22.24-51.75-14.93-128.49-29.32-227.88-43-198.63-27.25-486.26-51.28-841.92-70.92C7097,324.64,6114.4,303,5029.16,308.39s-2067.53,36.68-2778.35,83c-355.45,23.15-642.81,50-841.17,79.24-99.25,14.61-175.85,29.77-227.44,45.21-25.87,7.76-44.88,15.41-57.22,22.81-13.13,7.86-15.45,13.41-15.45,15.85s2.39,8,15.6,15.72c12.41,7.27,31.5,14.75,57.46,22.25,51.75,14.92,128.48,29.31,227.86,42.94,198.65,27.28,486.26,51.3,841.91,70.94,711.26,39.27,1693.79,60.87,2779,55.53s2067.54-36.68,2778.35-83c355.43-23.16,642.81-50,841.17-79.25,99.24-14.61,175.84-29.77,227.44-45.21,25.87-7.75,44.89-15.41,57.23-22.81C8948.71,523.76,8951,518.2,8951,515.74Z"/><path class="cls-5" d="M8594.59,517.5c0-2.21-2.18-7.26-14.18-14.27-11.29-6.61-28.65-13.41-52.22-20.22-47.05-13.57-116.81-26.65-207.16-39.07-180.58-24.77-442.06-46.61-765.39-64.46-646.57-35.7-1539.8-55.36-2526.38-50.48s-1879.57,33.35-2525.77,75.43c-323.14,21.05-584.37,45.48-764.7,72-90.23,13.28-159.87,27.06-206.76,41.1-23.52,7-40.81,14-52,20.73-11.93,7.14-14,12.19-14,14.41s2.18,7.28,14.18,14.29c11.29,6.61,28.64,13.41,52.24,20.23,47,13.56,116.8,26.65,207.14,39,180.59,24.79,442.06,46.64,765.38,64.48,646.59,35.71,1539.81,55.34,2526.4,50.49s1879.58-33.35,2525.77-75.43c323.12-21,584.38-45.48,764.7-72,90.22-13.29,159.85-27.07,206.76-41.1,23.52-7,40.81-14,52-20.74C8592.49,524.79,8594.61,519.74,8594.59,517.5Z"/><path class="cls-5" d="M8270.56,519.1c0-2-2-6.59-12.89-13-10.26-6-26-12.19-47.48-18.38-42.76-12.34-106.18-24.23-188.32-35.52-164.16-22.52-401.87-42.38-695.8-58.61-587.8-32.45-1399.82-50.32-2296.72-45.88s-1708.7,30.31-2296.15,68.57C2439.44,435.44,2202,457.65,2038,481.8c-82,12.07-145.34,24.6-188,37.36-21.38,6.41-37.1,12.74-47.29,18.85-10.85,6.5-12.77,11.09-12.77,13.1s2,6.61,12.89,13c10.26,6,26,12.19,47.49,18.39,42.77,12.33,106.18,24.23,188.31,35.49,164.17,22.54,401.87,42.4,695.8,58.63,587.81,32.45,1399.82,50.3,2296.73,45.89s1708.7-30.32,2296.15-68.57c293.75-19.14,531.25-41.35,695.18-65.49,82-12.08,145.32-24.61,188-37.37,21.38-6.41,37.1-12.73,47.3-18.85C8268.65,525.73,8270.58,521.14,8270.56,519.1Z"/><path class="cls-5" d="M7976,520.56c0-1.83-1.8-6-11.72-11.8-9.33-5.46-23.67-11.08-43.16-16.71-38.88-11.21-96.53-22-171.2-32.28-149.24-20.48-365.34-38.53-632.55-53.28C6583,377,5844.79,360.74,5029.44,364.77S3476.07,392.33,2942,427.11c-267.05,17.39-482.95,37.58-632,59.54-74.57,11-132.12,22.36-170.88,34-19.44,5.83-33.72,11.58-43,17.14-9.86,5.9-11.61,10.07-11.61,11.91s1.8,6,11.72,11.81c9.33,5.46,23.67,11.08,43.17,16.71,38.88,11.21,96.53,22,171.19,32.27C2459.89,630.94,2676,649,2943.19,663.74c534.37,29.51,1272.57,45.74,2087.93,41.72s1553.37-27.56,2087.42-62.33c267-17.4,482.95-37.59,632-59.54,74.56-11,132.11-22.37,170.88-34,19.44-5.82,33.72-11.58,43-17.13C7974.26,526.58,7976,522.41,7976,520.56Z"/><path class="cls-5" d="M7708.2,521.88c0-1.66-1.64-5.45-10.66-10.72-8.48-5-21.52-10.07-39.23-15.19-35.35-10.2-87.76-20-155.64-29.35-135.67-18.61-332.13-35-575.05-48.44-485.78-26.82-1156.87-41.59-1898.11-37.92s-1412.15,25.05-1897.65,56.67c-242.77,15.81-439,34.17-574.52,54.12-67.8,10-120.12,20.33-155.35,30.88-17.67,5.3-30.66,10.53-39.09,15.58-9,5.37-10.55,9.16-10.55,10.83s1.64,5.46,10.66,10.73c8.48,5,21.52,10.07,39.24,15.2,35.35,10.19,87.76,20,155.63,29.33,135.68,18.63,332.13,35,575,48.45,485.8,26.82,1156.88,41.57,1898.13,37.93S6443.2,664.92,6928.7,633.31c242.76-15.82,439-34.17,574.52-54.13,67.79-10,120.1-20.33,155.35-30.88,17.67-5.29,30.66-10.52,39.09-15.58C7706.62,527.36,7708.21,523.56,7708.2,521.88Z"/><path class="cls-5" d="M7464.75,523.09c0-1.52-1.49-5-9.69-9.75-7.71-4.52-19.56-9.16-35.66-13.81-32.14-9.27-79.78-18.21-141.5-26.69-123.33-16.92-301.93-31.84-522.76-44C6313.52,404.43,5703.43,391,5029.58,394.34s-1283.77,22.77-1725.13,51.51c-220.71,14.38-399.14,31.07-522.3,49.21-61.63,9.07-109.19,18.48-141.22,28.07-16.07,4.81-27.88,9.57-35.54,14.16-8.15,4.88-9.59,8.33-9.59,9.84s1.49,5,9.68,9.77c7.71,4.51,19.57,9.15,35.68,13.81,32.14,9.26,79.78,18.2,141.49,26.66,123.34,16.94,301.93,31.86,522.76,44C3747,665.81,4357.12,679.21,5031,675.9s1283.77-22.78,1725.13-51.52c220.7-14.38,399.14-31.06,522.3-49.2,61.62-9.08,109.18-18.49,141.22-28.08,16.07-4.81,27.88-9.57,35.54-14.16C7463.32,528.06,7464.76,524.61,7464.75,523.09Z"/><path class="cls-5" d="M7243.43,524.18c0-1.38-1.35-4.51-8.8-8.86-7-4.11-17.79-8.33-32.43-12.56-29.21-8.42-72.52-16.55-128.63-24.25-112.12-15.39-274.48-28.95-475.24-40-401.47-22.17-956.09-34.37-1568.68-31.35S3862.58,427.84,3461.34,454C3260.7,467,3098.49,482.21,2986.52,498.7c-56,8.25-99.26,16.8-128.38,25.52-14.6,4.38-25.34,8.7-32.3,12.87-7.41,4.44-8.73,7.57-8.72,8.95s1.35,4.52,8.8,8.88c7,4.1,17.79,8.32,32.44,12.55,29.21,8.43,72.52,16.55,128.62,24.24,112.13,15.4,274.48,29,475.24,40,401.48,22.16,956.1,34.35,1568.69,31.34S6198,642.39,6599.22,616.27C6799.85,603.19,6962.07,588,7074,571.53c56-8.24,99.25-16.8,128.38-25.52,14.6-4.37,25.34-8.7,32.3-12.87C7242.13,528.7,7243.44,525.57,7243.43,524.18Z"/><path class="cls-5" d="M7042.24,525.17c0-1.25-1.23-4.09-8-8-6.37-3.74-16.17-7.57-29.48-11.42-26.55-7.66-65.93-15-116.93-22.05-101.93-14-249.53-26.31-432-36.39-365-20.15-869.18-31.24-1426.08-28.49s-1061,18.82-1425.73,42.58C3421.57,473.23,3274.11,487,3172.32,502c-50.94,7.5-90.24,15.28-116.71,23.2-13.28,4-23,7.91-29.37,11.7-6.74,4-7.93,6.89-7.93,8.14s1.23,4.1,8,8.07c6.37,3.73,16.16,7.56,29.48,11.41,26.56,7.66,65.94,15,116.93,22,101.94,14,249.53,26.32,432,36.4,365,20.15,869.18,31.24,1426.09,28.5s1061-18.83,1425.73-42.58C6639,597,6786.45,583.22,6888.24,568.22c50.92-7.5,90.23-15.28,116.71-23.2,13.28-4,23-7.91,29.37-11.7C7041.05,529.29,7042.25,526.44,7042.24,525.17Z"/><path class="cls-6" d="M6765.74,526.91a5.55,5.55,0,0,1-.82,1.15,21.77,21.77,0,0,1-5.41,3.86c-5.42,3-13.8,6-25.26,9.16-22.82,6.24-56.73,12.36-100.67,18.27-87.85,11.82-215.1,22.71-372.51,32.11-314.77,18.81-749.77,31.62-1230.35,34S4115,619.31,3800.08,603.61c-157.49-7.84-284.84-17.47-372.8-28.43-44-5.47-78-11.26-100.86-17.27-11.48-3-19.89-6-25.33-8.91a21.81,21.81,0,0,1-5.45-3.8,4.78,4.78,0,0,1-.83-1.15.86.86,0,0,1-.11-.36.91.91,0,0,1,.1-.37,4.78,4.78,0,0,1,.83-1.15,21.47,21.47,0,0,1,5.4-3.86c5.42-3,13.81-6,25.26-9.16,22.83-6.24,56.73-12.36,100.68-18.27,87.84-11.82,215.09-22.71,372.5-32.11,314.77-18.81,749.77-31.62,1230.35-34s915.69,6.15,1230.64,21.84c157.49,7.85,284.85,17.48,372.79,28.43,44,5.49,78,11.26,100.87,17.27,11.48,3,19.89,6,25.33,8.91a21.36,21.36,0,0,1,5.44,3.81,4.36,4.36,0,0,1,.84,1.15,1,1,0,0,1,.09.23.53.53,0,0,1,0,.13A1,1,0,0,1,6765.74,526.91Z"/><path class="cls-7" d="M9954.38,510.79c0-7.3-6.38-16.09-23.11-25.91q-24.53-14.34-73.71-28.58c-65.4-18.88-162-37-286.78-54.1-249.4-34.22-610.33-64.37-1056.4-89C7622.24,264,6389.9,236.85,5028.83,243.57s-2593.07,46-3484.67,104.06c-445.82,29-806.43,62.76-1055.48,99.43-124.56,18.35-221,37.41-286.23,56.94-32.64,9.76-57.17,19.57-73.41,29.31-16.65,10-22.91,18.83-22.87,26.12s6.38,16.1,23.13,25.91q24.51,14.37,73.69,28.59c65.4,18.87,162,37,286.78,54.09,249.41,34.22,610.33,64.38,1056.41,89,892.13,49.25,2124.47,76.35,3485.54,69.63s2593.07-46,3484.68-104.07c445.81-29,806.43-62.75,1055.48-99.43,124.55-18.35,221-37.4,286.23-56.92q49-14.67,73.4-29.32C9948.16,527,9954.42,518.1,9954.38,510.79ZM9481.7,536.36q-22.07,13.23-66.58,26.58c-59.19,17.73-146.78,35-259.91,51.69C8929,647.94,8601.51,678.57,8196.59,705c-809.81,52.73-1928.8,88.4-3165,94.51s-2355.5-18.52-3165.78-63.24c-405.16-22.37-733-49.76-959.47-80.84-113.29-15.54-201.05-32-260.42-49.12q-44.58-12.87-66.83-25.92c-15.19-8.9-20.75-16.77-20.78-23.14s5.44-14.28,20.55-23.33q22.06-13.22,66.58-26.58c59.19-17.72,146.78-35,259.91-51.7,226.18-33.31,553.71-63.94,958.62-90.31,809.8-52.73,1928.8-88.4,3165-94.5s2355.5,18.5,3165.78,63.23c405.17,22.37,733,49.76,959.47,80.84,113.29,15.54,201,32,260.42,49.12q44.57,12.87,66.83,25.92c15.19,8.9,20.75,16.77,20.78,23.14S9496.81,527.32,9481.7,536.36Z"/><path class="cls-6" d="M6412.53,528.57a4.31,4.31,0,0,1-.65.92,17.5,17.5,0,0,1-4.31,3.07c-4.31,2.36-11,4.81-20.12,7.3-18.18,5-45.18,9.85-80.18,14.55-70,9.41-171.32,18.09-296.69,25.57-250.71,15-597.18,25.19-979.95,27.09s-729.33-4.9-980.18-17.4C3925,583.42,3823.58,575.75,3753.52,567c-35-4.36-62.1-9-80.33-13.75-9.14-2.4-15.84-4.79-20.18-7.09a17.26,17.26,0,0,1-4.33-3,3.93,3.93,0,0,1-.67-.91.64.64,0,0,1-.09-.3,1.32,1.32,0,0,1,.09-.28,3.21,3.21,0,0,1,.66-.91,16.8,16.8,0,0,1,4.29-3.09c4.32-2.35,11-4.81,20.13-7.29,18.17-5,45.18-9.85,80.18-14.55,70-9.42,171.32-18.09,296.69-25.57,250.72-15,597.17-25.19,979.95-27.08s729.33,4.89,980.17,17.4C6135.53,486.8,6237,494.47,6307,503.19c35.05,4.37,62.1,9,80.33,13.76,9.15,2.4,15.86,4.79,20.19,7.1a16.66,16.66,0,0,1,4.33,3,3.28,3.28,0,0,1,.66.91.87.87,0,0,1,.08.19c0,.06,0,.09,0,.1S6412.61,528.39,6412.53,528.57Z"/><path class="cls-8" d="M6765.84,526.54a.53.53,0,0,0,0-.13,1,1,0,0,0-.09-.23,4.36,4.36,0,0,0-.84-1.15,21.36,21.36,0,0,0-5.44-3.81c-5.44-2.89-13.85-5.89-25.33-8.91-22.9-6-56.85-11.78-100.87-17.27-87.94-11-215.3-20.58-372.79-28.43-314.95-15.69-750.05-24.21-1230.64-21.84s-915.58,15.19-1230.35,34c-157.41,9.4-284.66,20.29-372.5,32.11-43.95,5.91-77.85,12-100.68,18.27-11.45,3.12-19.84,6.2-25.26,9.16a21.47,21.47,0,0,0-5.4,3.86,4.78,4.78,0,0,0-.83,1.15.91.91,0,0,0-.1.37.86.86,0,0,0,.11.36,4.78,4.78,0,0,0,.83,1.15,21.81,21.81,0,0,0,5.45,3.8c5.44,2.9,13.85,5.9,25.33,8.91,22.9,6,56.86,11.8,100.86,17.27,88,11,215.31,20.59,372.8,28.43,315,15.7,750.06,24.23,1230.64,21.85s915.58-15.19,1230.35-34c157.41-9.4,284.66-20.29,372.51-32.11,43.94-5.91,77.85-12,100.67-18.27,11.46-3.13,19.84-6.2,25.26-9.16a21.77,21.77,0,0,0,5.41-3.86,5.55,5.55,0,0,0,.82-1.15A1,1,0,0,0,6765.84,526.54Zm-353.31,2a4.31,4.31,0,0,1-.65.92,17.5,17.5,0,0,1-4.31,3.07c-4.31,2.36-11,4.81-20.12,7.3-18.18,5-45.18,9.85-80.18,14.55-70,9.41-171.32,18.09-296.69,25.57-250.71,15-597.18,25.19-979.95,27.09s-729.33-4.9-980.18-17.4C3925,583.42,3823.58,575.75,3753.52,567c-35-4.36-62.1-9-80.33-13.75-9.14-2.4-15.84-4.79-20.18-7.09a17.26,17.26,0,0,1-4.33-3,3.93,3.93,0,0,1-.67-.91.64.64,0,0,1-.09-.3,1.32,1.32,0,0,1,.09-.28,3.21,3.21,0,0,1,.66-.91,16.8,16.8,0,0,1,4.29-3.09c4.32-2.35,11-4.81,20.13-7.29,18.17-5,45.18-9.85,80.18-14.55,70-9.42,171.32-18.09,296.69-25.57,250.72-15,597.17-25.19,979.95-27.08s729.33,4.89,980.17,17.4C6135.53,486.8,6237,494.47,6307,503.19c35.05,4.37,62.1,9,80.33,13.76,9.15,2.4,15.86,4.79,20.19,7.1a16.66,16.66,0,0,1,4.33,3,3.28,3.28,0,0,1,.66.91.87.87,0,0,1,.08.19c0,.06,0,.09,0,.1S6412.61,528.39,6412.53,528.57Z"/><path class="cls-9" d="M6036.39,530.35a3.35,3.35,0,0,1-.47.67,12.73,12.73,0,0,1-3.14,2.23c-3.14,1.72-8,3.5-14.64,5.32-13.24,3.62-32.89,7.16-58.37,10.59-50.93,6.85-124.7,13.16-216,18.61-182.49,10.91-434.68,18.33-713.29,19.72s-530.86-3.57-713.45-12.67c-91.3-4.55-165.13-10.13-216.13-16.48-25.51-3.18-45.2-6.54-58.47-10-6.65-1.74-11.53-3.48-14.69-5.16a12.24,12.24,0,0,1-3.15-2.21,2.72,2.72,0,0,1-.49-.66.52.52,0,0,1-.06-.21.48.48,0,0,1,.06-.21,2.78,2.78,0,0,1,.48-.67,12.22,12.22,0,0,1,3.13-2.24q4.71-2.58,14.64-5.31c13.24-3.61,32.89-7.16,58.37-10.59,50.92-6.85,124.7-13.17,216-18.61,182.48-10.91,434.66-18.34,713.28-19.71s530.86,3.56,713.44,12.66c91.32,4.55,165.15,10.13,216.13,16.48,25.52,3.18,45.2,6.53,58.47,10,6.66,1.75,11.54,3.48,14.7,5.17a12,12,0,0,1,3.15,2.21,2.52,2.52,0,0,1,.48.66l.06.13c0,.05,0,.07,0,.08A.48.48,0,0,1,6036.39,530.35Z"/><circle class="cls-10" cx="5046.54" cy="483.08" r="397.98"/><g class="cls-11"><path class="cls-12" d="M4600,539.28s139.74-69.23,270.94,58.29,561.23,111.14,541.62-99.68,168.86-136,168.86-136L5349.93,959.6,5032.35,932l-257.68-60.53L4601.22,687.07Z"/></g><circle class="cls-13" cx="5046.54" cy="483.08" r="397.98"/><g class="cls-14"><g class="cls-11"><path class="cls-15" d="M4607.06,499.36c4.86-13,180.55-284.07,383.83-158.7s465-108,306.58-229.73l339.38,408.39L5365.79,1088,4581,881.91Z"/><path class="cls-16" d="M4629.25,505.18s194.77-374,665.12,64.47c251.94,234.88,127.44-408.88,127.44-408.88L5579.22,657,5148,1105.26,4735.47,969.72Z"/><path class="cls-17" d="M4526.19,578.32c73,40.78,160,81.24,243.41,92.78,46.16,6.38,95.78.31,134-26.41,68.82-48.14,140.08-92.24,226.39-95.06,88.64-2.89,171.31,42.55,224.79,111.75,148.51,192.19,235.49,79,235.49,79l-318.79,288.95s-406.92-85.88-414.63-96.5S4526.19,578.32,4526.19,578.32Z"/></g></g><circle class="cls-18" cx="5373.33" cy="568.92" r="49.12"/><circle class="cls-19" cx="5035.5" cy="593.58" r="49.12"/><circle class="cls-18" cx="5321.06" cy="492.92" r="27.66"/><circle class="cls-18" cx="5312.66" cy="490.71" r="36.35"/><circle class="cls-18" cx="4734.03" cy="392.41" r="27.66"/><circle class="cls-18" cx="5093.52" cy="165.65" r="27.66"/><circle class="cls-18" cx="5030.36" cy="593.36" r="42.02"/><circle class="cls-20" cx="5095.77" cy="820.22" r="55.24"/><circle class="cls-21" cx="5363.79" cy="577.3" r="42.02"/><circle class="cls-21" cx="5058.57" cy="146.97" r="42.02"/><g class="cls-3"><path class="cls-22" d="M5113.58,870.66l-7.93-10.47a2.09,2.09,0,0,0-3.7.79l-3,12.79-2.6-12.87a2.09,2.09,0,0,0-3.68-.9l-8.22,10.24,3.24-12.73a2.08,2.08,0,0,0-2.92-2.39l-11.86,5.65,8.44-10.06a2.09,2.09,0,0,0-1.59-3.43l-13.13,0,12-5.4a2.09,2.09,0,0,0,.05-3.78l-11.81-5.75,13.13.33a2.08,2.08,0,0,0,1.69-3.38l-8.15-10.3,11.69,6a2.09,2.09,0,0,0,3-2.31l-2.88-12.82,7.93,10.47a2.09,2.09,0,0,0,3.7-.79l3-12.79,2.6,12.87a2.09,2.09,0,0,0,3.68.9l8.23-10.24L5111.2,823a2.1,2.1,0,0,0,2.93,2.4L5126,819.7l-8.44,10.06a2.09,2.09,0,0,0,1.59,3.43l13.14,0-12,5.4a2.09,2.09,0,0,0-.05,3.78l11.81,5.75-13.13-.33a2.09,2.09,0,0,0-1.69,3.38l8.15,10.3-11.69-6a2.09,2.09,0,0,0-3,2.31Z"/></g><g class="cls-23"><path class="cls-24" d="M4838.74,540.39l-14.63-19.32a3.85,3.85,0,0,0-6.82,1.46l-5.47,23.6-4.8-23.75a3.86,3.86,0,0,0-6.78-1.65l-15.18,18.89,6-23.48a3.85,3.85,0,0,0-5.39-4.43l-21.86,10.44,15.57-18.56a3.85,3.85,0,0,0-2.93-6.33l-24.23-.09,22.08-10a3.85,3.85,0,0,0,.1-7l-21.79-10.59,24.22.61a3.85,3.85,0,0,0,3.12-6.24l-15-19,21.56,11.05a3.85,3.85,0,0,0,5.52-4.27l-5.31-23.64,14.63,19.32a3.85,3.85,0,0,0,6.82-1.46l5.48-23.6,4.8,23.75a3.85,3.85,0,0,0,6.77,1.65l15.18-18.89-6,23.48a3.85,3.85,0,0,0,5.39,4.43l21.87-10.43L4846,465a3.85,3.85,0,0,0,2.94,6.33l24.23.09-22.09,10a3.86,3.86,0,0,0-.1,7l21.79,10.59-24.22-.61a3.85,3.85,0,0,0-3.11,6.24l15,19-21.56-11a3.85,3.85,0,0,0-5.51,4.27Z"/></g><g class="cls-25"><path class="cls-22" d="M4994.73,200.37l-7.93-10.47a2.08,2.08,0,0,0-3.69.79l-3,12.79-2.6-12.87a2.08,2.08,0,0,0-3.67-.9L4965.63,200l3.24-12.73a2.09,2.09,0,0,0-2.92-2.4l-11.86,5.66,8.45-10.06A2.09,2.09,0,0,0,4961,177l-13.14-.05,12-5.4a2.09,2.09,0,0,0,.06-3.79L4948,162l13.14.33a2.09,2.09,0,0,0,1.69-3.38l-8.16-10.3,11.69,6a2.09,2.09,0,0,0,3-2.32l-2.87-12.81,7.93,10.47a2.09,2.09,0,0,0,3.7-.79l3-12.8,2.6,12.88a2.09,2.09,0,0,0,3.67.89l8.23-10.24-3.24,12.73a2.08,2.08,0,0,0,2.92,2.4l11.86-5.65-8.45,10.06a2.09,2.09,0,0,0,1.59,3.43l13.14,0-12,5.4a2.09,2.09,0,0,0-.06,3.78l11.82,5.74-13.14-.32a2.08,2.08,0,0,0-1.68,3.38l8.15,10.3-11.69-6a2.08,2.08,0,0,0-3,2.31Z"/></g><circle class="cls-12" cx="5110.85" cy="614.53" r="18.22"/><circle class="cls-19" cx="5003.55" cy="781.1" r="85.7"/><polyline class="cls-1" points="5511.31 522.41 5442.59 522.78 4650.9 527.1 4607.17 527.34"/><polyline class="cls-24" points="5647.39 527.61 5441.93 528.8 4651.65 533.4 4559.62 533.93"/><g class="cls-26"><path class="cls-2" d="M6412.53,528.57a4.31,4.31,0,0,1-.65.92,17.5,17.5,0,0,1-4.31,3.07c-4.31,2.36-11,4.81-20.12,7.3-18.18,5-45.18,9.85-80.18,14.55-70,9.41-171.32,18.09-296.69,25.57-250.71,15-597.18,25.19-979.95,27.09s-729.33-4.9-980.18-17.4C3925,583.42,3823.58,575.75,3753.52,567c-35-4.36-62.1-9-80.33-13.75-9.14-2.4-15.84-4.79-20.18-7.09a17.26,17.26,0,0,1-4.33-3,3.93,3.93,0,0,1-.67-.91.64.64,0,0,1-.09-.3,1.32,1.32,0,0,1,.09-.28,3.21,3.21,0,0,1,.66-.91,16.8,16.8,0,0,1,4.29-3.09c4.32-2.35,11-4.81,20.13-7.29,18.17-5,45.18-9.85,80.18-14.55,70-9.42,171.32-18.09,296.69-25.57,250.72-15,597.17-25.19,979.95-27.08s729.33,4.89,980.17,17.4C6135.53,486.8,6237,494.47,6307,503.19c35.05,4.37,62.1,9,80.33,13.76,9.15,2.4,15.86,4.79,20.19,7.1a16.66,16.66,0,0,1,4.33,3,3.28,3.28,0,0,1,.66.91.87.87,0,0,1,.08.19c0,.06,0,.09,0,.1S6412.61,528.39,6412.53,528.57Z"/><path class="cls-2" d="M6412.53,528.57a4.31,4.31,0,0,1-.65.92,17.5,17.5,0,0,1-4.31,3.07c-4.31,2.36-11,4.81-20.12,7.3-18.18,5-45.18,9.85-80.18,14.55-70,9.41-171.32,18.09-296.69,25.57-250.71,15-597.18,25.19-979.95,27.09s-729.33-4.9-980.18-17.4C3925,583.42,3823.58,575.75,3753.52,567c-35-4.36-62.1-9-80.33-13.75-9.14-2.4-15.84-4.79-20.18-7.09a17.26,17.26,0,0,1-4.33-3,3.93,3.93,0,0,1-.67-.91.64.64,0,0,1-.09-.3,1.32,1.32,0,0,1,.09-.28,3.21,3.21,0,0,1,.66-.91,16.8,16.8,0,0,1,4.29-3.09c4.32-2.35,11-4.81,20.13-7.29,18.17-5,45.18-9.85,80.18-14.55,70-9.42,171.32-18.09,296.69-25.57,250.72-15,597.17-25.19,979.95-27.08s729.33,4.89,980.17,17.4C6135.53,486.8,6237,494.47,6307,503.19c35.05,4.37,62.1,9,80.33,13.76,9.15,2.4,15.86,4.79,20.19,7.1a16.66,16.66,0,0,1,4.33,3,3.28,3.28,0,0,1,.66.91.87.87,0,0,1,.08.19c0,.06,0,.09,0,.1S6412.61,528.39,6412.53,528.57Z"/><path class="cls-2" d="M7042.24,525.17c0-1.25-1.23-4.09-8-8-6.37-3.74-16.17-7.57-29.48-11.42-26.55-7.66-65.93-15-116.93-22.05-101.93-14-249.53-26.31-432-36.39-365-20.15-869.18-31.24-1426.08-28.49s-1061,18.82-1425.73,42.58C3421.57,473.23,3274.11,487,3172.32,502c-50.94,7.5-90.24,15.28-116.71,23.2-13.28,4-23,7.91-29.37,11.7-6.74,4-7.93,6.89-7.93,8.14s1.23,4.1,8,8.07c6.37,3.73,16.16,7.56,29.48,11.41,26.56,7.66,65.94,15,116.93,22,101.94,14,249.53,26.32,432,36.4,365,20.15,869.18,31.24,1426.09,28.5s1061-18.83,1425.73-42.58C6639,597,6786.45,583.22,6888.24,568.22c50.92-7.5,90.23-15.28,116.71-23.2,13.28-4,23-7.91,29.37-11.7C7041.05,529.29,7042.25,526.44,7042.24,525.17Zm-276.5,1.74a5.55,5.55,0,0,1-.82,1.15,21.77,21.77,0,0,1-5.41,3.86c-5.42,3-13.8,6-25.26,9.16-22.82,6.24-56.73,12.36-100.67,18.27-87.85,11.82-215.1,22.71-372.51,32.11-314.77,18.81-749.77,31.62-1230.35,34S4115,619.31,3800.08,603.61c-157.49-7.84-284.84-17.47-372.8-28.43-44-5.47-78-11.26-100.86-17.27-11.48-3-19.89-6-25.33-8.91a21.81,21.81,0,0,1-5.45-3.8,4.78,4.78,0,0,1-.83-1.15.86.86,0,0,1-.11-.36.91.91,0,0,1,.1-.37,4.78,4.78,0,0,1,.83-1.15,21.47,21.47,0,0,1,5.4-3.86c5.42-3,13.81-6,25.26-9.16,22.83-6.24,56.73-12.36,100.68-18.27,87.84-11.82,215.09-22.71,372.5-32.11,314.77-18.81,749.77-31.62,1230.35-34s915.69,6.15,1230.64,21.84c157.49,7.85,284.85,17.48,372.79,28.43,44,5.49,78,11.26,100.87,17.27,11.48,3,19.89,6,25.33,8.91a21.36,21.36,0,0,1,5.44,3.81,4.36,4.36,0,0,1,.84,1.15,1,1,0,0,1,.09.23.53.53,0,0,1,0,.13A1,1,0,0,1,6765.74,526.91Z"/><path class="cls-2" d="M6412.53,528.57a4.31,4.31,0,0,1-.65.92,17.5,17.5,0,0,1-4.31,3.07c-4.31,2.36-11,4.81-20.12,7.3-18.18,5-45.18,9.85-80.18,14.55-70,9.41-171.32,18.09-296.69,25.57-250.71,15-597.18,25.19-979.95,27.09s-729.33-4.9-980.18-17.4C3925,583.42,3823.58,575.75,3753.52,567c-35-4.36-62.1-9-80.33-13.75-9.14-2.4-15.84-4.79-20.18-7.09a17.26,17.26,0,0,1-4.33-3,3.93,3.93,0,0,1-.67-.91.64.64,0,0,1-.09-.3,1.32,1.32,0,0,1,.09-.28,3.21,3.21,0,0,1,.66-.91,16.8,16.8,0,0,1,4.29-3.09c4.32-2.35,11-4.81,20.13-7.29,18.17-5,45.18-9.85,80.18-14.55,70-9.42,171.32-18.09,296.69-25.57,250.72-15,597.17-25.19,979.95-27.08s729.33,4.89,980.17,17.4C6135.53,486.8,6237,494.47,6307,503.19c35.05,4.37,62.1,9,80.33,13.76,9.15,2.4,15.86,4.79,20.19,7.1a16.66,16.66,0,0,1,4.33,3,3.28,3.28,0,0,1,.66.91.87.87,0,0,1,.08.19c0,.06,0,.09,0,.1S6412.61,528.39,6412.53,528.57Z"/><path class="cls-2" d="M7042.24,525.17c0-1.25-1.23-4.09-8-8-6.37-3.74-16.17-7.57-29.48-11.42-26.55-7.66-65.93-15-116.93-22.05-101.93-14-249.53-26.31-432-36.39-365-20.15-869.18-31.24-1426.08-28.49s-1061,18.82-1425.73,42.58C3421.57,473.23,3274.11,487,3172.32,502c-50.94,7.5-90.24,15.28-116.71,23.2-13.28,4-23,7.91-29.37,11.7-6.74,4-7.93,6.89-7.93,8.14s1.23,4.1,8,8.07c6.37,3.73,16.16,7.56,29.48,11.41,26.56,7.66,65.94,15,116.93,22,101.94,14,249.53,26.32,432,36.4,365,20.15,869.18,31.24,1426.09,28.5s1061-18.83,1425.73-42.58C6639,597,6786.45,583.22,6888.24,568.22c50.92-7.5,90.23-15.28,116.71-23.2,13.28-4,23-7.91,29.37-11.7C7041.05,529.29,7042.25,526.44,7042.24,525.17Zm-276.5,1.74a5.55,5.55,0,0,1-.82,1.15,21.77,21.77,0,0,1-5.41,3.86c-5.42,3-13.8,6-25.26,9.16-22.82,6.24-56.73,12.36-100.67,18.27-87.85,11.82-215.1,22.71-372.51,32.11-314.77,18.81-749.77,31.62-1230.35,34S4115,619.31,3800.08,603.61c-157.49-7.84-284.84-17.47-372.8-28.43-44-5.47-78-11.26-100.86-17.27-11.48-3-19.89-6-25.33-8.91a21.81,21.81,0,0,1-5.45-3.8,4.78,4.78,0,0,1-.83-1.15.86.86,0,0,1-.11-.36.91.91,0,0,1,.1-.37,4.78,4.78,0,0,1,.83-1.15,21.47,21.47,0,0,1,5.4-3.86c5.42-3,13.81-6,25.26-9.16,22.83-6.24,56.73-12.36,100.68-18.27,87.84-11.82,215.09-22.71,372.5-32.11,314.77-18.81,749.77-31.62,1230.35-34s915.69,6.15,1230.64,21.84c157.49,7.85,284.85,17.48,372.79,28.43,44,5.49,78,11.26,100.87,17.27,11.48,3,19.89,6,25.33,8.91a21.36,21.36,0,0,1,5.44,3.81,4.36,4.36,0,0,1,.84,1.15,1,1,0,0,1,.09.23.53.53,0,0,1,0,.13A1,1,0,0,1,6765.74,526.91Z"/><path class="cls-2" d="M6412.53,528.57a4.31,4.31,0,0,1-.65.92,17.5,17.5,0,0,1-4.31,3.07c-4.31,2.36-11,4.81-20.12,7.3-18.18,5-45.18,9.85-80.18,14.55-70,9.41-171.32,18.09-296.69,25.57-250.71,15-597.18,25.19-979.95,27.09s-729.33-4.9-980.18-17.4C3925,583.42,3823.58,575.75,3753.52,567c-35-4.36-62.1-9-80.33-13.75-9.14-2.4-15.84-4.79-20.18-7.09a17.26,17.26,0,0,1-4.33-3,3.93,3.93,0,0,1-.67-.91.64.64,0,0,1-.09-.3,1.32,1.32,0,0,1,.09-.28,3.21,3.21,0,0,1,.66-.91,16.8,16.8,0,0,1,4.29-3.09c4.32-2.35,11-4.81,20.13-7.29,18.17-5,45.18-9.85,80.18-14.55,70-9.42,171.32-18.09,296.69-25.57,250.72-15,597.17-25.19,979.95-27.08s729.33,4.89,980.17,17.4C6135.53,486.8,6237,494.47,6307,503.19c35.05,4.37,62.1,9,80.33,13.76,9.15,2.4,15.86,4.79,20.19,7.1a16.66,16.66,0,0,1,4.33,3,3.28,3.28,0,0,1,.66.91.87.87,0,0,1,.08.19c0,.06,0,.09,0,.1S6412.61,528.39,6412.53,528.57Z"/><path class="cls-2" d="M7042.24,525.17c0-1.25-1.23-4.09-8-8-6.37-3.74-16.17-7.57-29.48-11.42-26.55-7.66-65.93-15-116.93-22.05-101.93-14-249.53-26.31-432-36.39-365-20.15-869.18-31.24-1426.08-28.49s-1061,18.82-1425.73,42.58C3421.57,473.23,3274.11,487,3172.32,502c-50.94,7.5-90.24,15.28-116.71,23.2-13.28,4-23,7.91-29.37,11.7-6.74,4-7.93,6.89-7.93,8.14s1.23,4.1,8,8.07c6.37,3.73,16.16,7.56,29.48,11.41,26.56,7.66,65.94,15,116.93,22,101.94,14,249.53,26.32,432,36.4,365,20.15,869.18,31.24,1426.09,28.5s1061-18.83,1425.73-42.58C6639,597,6786.45,583.22,6888.24,568.22c50.92-7.5,90.23-15.28,116.71-23.2,13.28-4,23-7.91,29.37-11.7C7041.05,529.29,7042.25,526.44,7042.24,525.17Zm-276.5,1.74a5.55,5.55,0,0,1-.82,1.15,21.77,21.77,0,0,1-5.41,3.86c-5.42,3-13.8,6-25.26,9.16-22.82,6.24-56.73,12.36-100.67,18.27-87.85,11.82-215.1,22.71-372.51,32.11-314.77,18.81-749.77,31.62-1230.35,34S4115,619.31,3800.08,603.61c-157.49-7.84-284.84-17.47-372.8-28.43-44-5.47-78-11.26-100.86-17.27-11.48-3-19.89-6-25.33-8.91a21.81,21.81,0,0,1-5.45-3.8,4.78,4.78,0,0,1-.83-1.15.86.86,0,0,1-.11-.36.91.91,0,0,1,.1-.37,4.78,4.78,0,0,1,.83-1.15,21.47,21.47,0,0,1,5.4-3.86c5.42-3,13.81-6,25.26-9.16,22.83-6.24,56.73-12.36,100.68-18.27,87.84-11.82,215.09-22.71,372.5-32.11,314.77-18.81,749.77-31.62,1230.35-34s915.69,6.15,1230.64,21.84c157.49,7.85,284.85,17.48,372.79,28.43,44,5.49,78,11.26,100.87,17.27,11.48,3,19.89,6,25.33,8.91a21.36,21.36,0,0,1,5.44,3.81,4.36,4.36,0,0,1,.84,1.15,1,1,0,0,1,.09.23.53.53,0,0,1,0,.13A1,1,0,0,1,6765.74,526.91Zm276.5-1.74c0-1.25-1.23-4.09-8-8-6.37-3.74-16.17-7.57-29.48-11.42-26.55-7.66-65.93-15-116.93-22.05-101.93-14-249.53-26.31-432-36.39-365-20.15-869.18-31.24-1426.08-28.49s-1061,18.82-1425.73,42.58C3421.57,473.23,3274.11,487,3172.32,502c-50.94,7.5-90.24,15.28-116.71,23.2-13.28,4-23,7.91-29.37,11.7-6.74,4-7.93,6.89-7.93,8.14s1.23,4.1,8,8.07c6.37,3.73,16.16,7.56,29.48,11.41,26.56,7.66,65.94,15,116.93,22,101.94,14,249.53,26.32,432,36.4,365,20.15,869.18,31.24,1426.09,28.5s1061-18.83,1425.73-42.58C6639,597,6786.45,583.22,6888.24,568.22c50.92-7.5,90.23-15.28,116.71-23.2,13.28-4,23-7.91,29.37-11.7C7041.05,529.29,7042.25,526.44,7042.24,525.17Zm-276.5,1.74a5.55,5.55,0,0,1-.82,1.15,21.77,21.77,0,0,1-5.41,3.86c-5.42,3-13.8,6-25.26,9.16-22.82,6.24-56.73,12.36-100.67,18.27-87.85,11.82-215.1,22.71-372.51,32.11-314.77,18.81-749.77,31.62-1230.35,34S4115,619.31,3800.08,603.61c-157.49-7.84-284.84-17.47-372.8-28.43-44-5.47-78-11.26-100.86-17.27-11.48-3-19.89-6-25.33-8.91a21.81,21.81,0,0,1-5.45-3.8,4.78,4.78,0,0,1-.83-1.15.86.86,0,0,1-.11-.36.91.91,0,0,1,.1-.37,4.78,4.78,0,0,1,.83-1.15,21.47,21.47,0,0,1,5.4-3.86c5.42-3,13.81-6,25.26-9.16,22.83-6.24,56.73-12.36,100.68-18.27,87.84-11.82,215.09-22.71,372.5-32.11,314.77-18.81,749.77-31.62,1230.35-34s915.69,6.15,1230.64,21.84c157.49,7.85,284.85,17.48,372.79,28.43,44,5.49,78,11.26,100.87,17.27,11.48,3,19.89,6,25.33,8.91a21.36,21.36,0,0,1,5.44,3.81,4.36,4.36,0,0,1,.84,1.15,1,1,0,0,1,.09.23.53.53,0,0,1,0,.13A1,1,0,0,1,6765.74,526.91ZM9502.25,513c0-6.37-5.59-14.24-20.78-23.14q-22.2-13-66.83-25.92c-59.38-17.13-147.13-33.58-260.42-49.12-226.5-31.08-554.3-58.47-959.47-80.84C7384.47,289.28,6265.18,264.67,5029,270.78s-2355.21,41.77-3165,94.5c-404.91,26.37-732.44,57-958.62,90.31-113.13,16.67-200.72,34-259.91,51.7q-44.46,13.3-66.58,26.58c-15.11,9-20.58,17-20.55,23.33s5.59,14.24,20.78,23.14q22.2,13,66.83,25.92C705.28,623.4,793,639.84,906.33,655.38c226.5,31.08,554.31,58.47,959.47,80.84,810.28,44.72,1929.56,69.34,3165.78,63.24s2355.2-41.78,3165-94.51c404.92-26.38,732.44-57,958.62-90.32,113.13-16.66,200.72-34,259.91-51.69q44.46-13.31,66.58-26.58C9496.81,527.32,9502.28,519.38,9502.25,513Zm-512.74,22.72q-19.53,11.7-59.09,23.59c-52.62,15.75-130.5,31.14-231.11,45.95-201.18,29.64-492.49,56.87-852.65,80.34-720.3,46.9-1715.63,78.63-2815.22,84.06s-2095.19-16.46-2815.91-56.25c-360.39-19.9-652-44.26-853.4-71.9-100.77-13.83-178.78-28.44-231.56-43.68q-39.64-11.43-59.32-23c-13.5-7.91-18.18-14.77-18.21-20.1s4.58-12.24,18-20.28q19.55-11.72,59.11-23.59c52.61-15.75,130.49-31.14,231.1-46,201.17-29.63,492.48-56.87,852.65-80.32C2934.2,337.7,3929.53,306,5029.12,300.53S7124.3,317,7845,356.79c360.38,19.89,651.95,44.26,853.41,71.9,100.75,13.82,178.78,28.44,231.55,43.67q39.63,11.44,59.32,23c13.5,7.91,18.17,14.77,18.21,20.11S9002.93,527.71,8989.51,535.75ZM7034.23,517.12c-6.37-3.74-16.17-7.57-29.48-11.42-26.55-7.66-65.93-15-116.93-22.05-101.93-14-249.53-26.31-432-36.39-365-20.15-869.18-31.24-1426.08-28.49s-1061,18.82-1425.73,42.58C3421.57,473.23,3274.11,487,3172.32,502c-50.94,7.5-90.24,15.28-116.71,23.2-13.28,4-23,7.91-29.37,11.7-6.74,4-7.93,6.89-7.93,8.14s1.23,4.1,8,8.07c6.37,3.73,16.16,7.56,29.48,11.41,26.56,7.66,65.94,15,116.93,22,101.94,14,249.53,26.32,432,36.4,365,20.15,869.18,31.24,1426.09,28.5s1061-18.83,1425.73-42.58C6639,597,6786.45,583.22,6888.24,568.22c50.92-7.5,90.23-15.28,116.71-23.2,13.28-4,23-7.91,29.37-11.7,6.73-4,7.93-6.88,7.92-8.15S7041,521.08,7034.23,517.12Zm-268.49,9.79a5.55,5.55,0,0,1-.82,1.15,21.77,21.77,0,0,1-5.41,3.86c-5.42,3-13.8,6-25.26,9.16-22.82,6.24-56.73,12.36-100.67,18.27-87.85,11.82-215.1,22.71-372.51,32.11-314.77,18.81-749.77,31.62-1230.35,34S4115,619.31,3800.08,603.61c-157.49-7.84-284.84-17.47-372.8-28.43-44-5.47-78-11.26-100.86-17.27-11.48-3-19.89-6-25.33-8.91a21.81,21.81,0,0,1-5.45-3.8,4.78,4.78,0,0,1-.83-1.15.86.86,0,0,1-.11-.36.91.91,0,0,1,.1-.37,4.78,4.78,0,0,1,.83-1.15,21.47,21.47,0,0,1,5.4-3.86c5.42-3,13.81-6,25.26-9.16,22.83-6.24,56.73-12.36,100.68-18.27,87.84-11.82,215.09-22.71,372.5-32.11,314.77-18.81,749.77-31.62,1230.35-34s915.69,6.15,1230.64,21.84c157.49,7.85,284.85,17.48,372.79,28.43,44,5.49,78,11.26,100.87,17.27,11.48,3,19.89,6,25.33,8.91a21.36,21.36,0,0,1,5.44,3.81,4.36,4.36,0,0,1,.84,1.15,1,1,0,0,1,.09.23.53.53,0,0,1,0,.13A1,1,0,0,1,6765.74,526.91Zm276.5-1.74c0-1.25-1.23-4.09-8-8-6.37-3.74-16.17-7.57-29.48-11.42-26.55-7.66-65.93-15-116.93-22.05-101.93-14-249.53-26.31-432-36.39-365-20.15-869.18-31.24-1426.08-28.49s-1061,18.82-1425.73,42.58C3421.57,473.23,3274.11,487,3172.32,502c-50.94,7.5-90.24,15.28-116.71,23.2-13.28,4-23,7.91-29.37,11.7-6.74,4-7.93,6.89-7.93,8.14s1.23,4.1,8,8.07c6.37,3.73,16.16,7.56,29.48,11.41,26.56,7.66,65.94,15,116.93,22,101.94,14,249.53,26.32,432,36.4,365,20.15,869.18,31.24,1426.09,28.5s1061-18.83,1425.73-42.58C6639,597,6786.45,583.22,6888.24,568.22c50.92-7.5,90.23-15.28,116.71-23.2,13.28-4,23-7.91,29.37-11.7C7041.05,529.29,7042.25,526.44,7042.24,525.17Zm-276.5,1.74a5.55,5.55,0,0,1-.82,1.15,21.77,21.77,0,0,1-5.41,3.86c-5.42,3-13.8,6-25.26,9.16-22.82,6.24-56.73,12.36-100.67,18.27-87.85,11.82-215.1,22.71-372.51,32.11-314.77,18.81-749.77,31.62-1230.35,34S4115,619.31,3800.08,603.61c-157.49-7.84-284.84-17.47-372.8-28.43-44-5.47-78-11.26-100.86-17.27-11.48-3-19.89-6-25.33-8.91a21.81,21.81,0,0,1-5.45-3.8,4.78,4.78,0,0,1-.83-1.15.86.86,0,0,1-.11-.36.91.91,0,0,1,.1-.37,4.78,4.78,0,0,1,.83-1.15,21.47,21.47,0,0,1,5.4-3.86c5.42-3,13.81-6,25.26-9.16,22.83-6.24,56.73-12.36,100.68-18.27,87.84-11.82,215.09-22.71,372.5-32.11,314.77-18.81,749.77-31.62,1230.35-34s915.69,6.15,1230.64,21.84c157.49,7.85,284.85,17.48,372.79,28.43,44,5.49,78,11.26,100.87,17.27,11.48,3,19.89,6,25.33,8.91a21.36,21.36,0,0,1,5.44,3.81,4.36,4.36,0,0,1,.84,1.15,1,1,0,0,1,.09.23.53.53,0,0,1,0,.13A1,1,0,0,1,6765.74,526.91Zm276.5-1.74c0-1.25-1.23-4.09-8-8-6.37-3.74-16.17-7.57-29.48-11.42-26.55-7.66-65.93-15-116.93-22.05-101.93-14-249.53-26.31-432-36.39-365-20.15-869.18-31.24-1426.08-28.49s-1061,18.82-1425.73,42.58C3421.57,473.23,3274.11,487,3172.32,502c-50.94,7.5-90.24,15.28-116.71,23.2-13.28,4-23,7.91-29.37,11.7-6.74,4-7.93,6.89-7.93,8.14s1.23,4.1,8,8.07c6.37,3.73,16.16,7.56,29.48,11.41,26.56,7.66,65.94,15,116.93,22,101.94,14,249.53,26.32,432,36.4,365,20.15,869.18,31.24,1426.09,28.5s1061-18.83,1425.73-42.58C6639,597,6786.45,583.22,6888.24,568.22c50.92-7.5,90.23-15.28,116.71-23.2,13.28-4,23-7.91,29.37-11.7C7041.05,529.29,7042.25,526.44,7042.24,525.17Zm-276.5,1.74a5.55,5.55,0,0,1-.82,1.15,21.77,21.77,0,0,1-5.41,3.86c-5.42,3-13.8,6-25.26,9.16-22.82,6.24-56.73,12.36-100.67,18.27-87.85,11.82-215.1,22.71-372.51,32.11-314.77,18.81-749.77,31.62-1230.35,34S4115,619.31,3800.08,603.61c-157.49-7.84-284.84-17.47-372.8-28.43-44-5.47-78-11.26-100.86-17.27-11.48-3-19.89-6-25.33-8.91a21.81,21.81,0,0,1-5.45-3.8,4.78,4.78,0,0,1-.83-1.15.86.86,0,0,1-.11-.36.91.91,0,0,1,.1-.37,4.78,4.78,0,0,1,.83-1.15,21.47,21.47,0,0,1,5.4-3.86c5.42-3,13.81-6,25.26-9.16,22.83-6.24,56.73-12.36,100.68-18.27,87.84-11.82,215.09-22.71,372.5-32.11,314.77-18.81,749.77-31.62,1230.35-34s915.69,6.15,1230.64,21.84c157.49,7.85,284.85,17.48,372.79,28.43,44,5.49,78,11.26,100.87,17.27,11.48,3,19.89,6,25.33,8.91a21.36,21.36,0,0,1,5.44,3.81,4.36,4.36,0,0,1,.84,1.15,1,1,0,0,1,.09.23.53.53,0,0,1,0,.13A1,1,0,0,1,6765.74,526.91Z"/><path class="cls-2" d="M6412.53,528.57a4.31,4.31,0,0,1-.65.92,17.5,17.5,0,0,1-4.31,3.07c-4.31,2.36-11,4.81-20.12,7.3-18.18,5-45.18,9.85-80.18,14.55-70,9.41-171.32,18.09-296.69,25.57-250.71,15-597.18,25.19-979.95,27.09s-729.33-4.9-980.18-17.4C3925,583.42,3823.58,575.75,3753.52,567c-35-4.36-62.1-9-80.33-13.75-9.14-2.4-15.84-4.79-20.18-7.09a17.26,17.26,0,0,1-4.33-3,3.93,3.93,0,0,1-.67-.91.64.64,0,0,1-.09-.3,1.32,1.32,0,0,1,.09-.28,3.21,3.21,0,0,1,.66-.91,16.8,16.8,0,0,1,4.29-3.09c4.32-2.35,11-4.81,20.13-7.29,18.17-5,45.18-9.85,80.18-14.55,70-9.42,171.32-18.09,296.69-25.57,250.72-15,597.17-25.19,979.95-27.08s729.33,4.89,980.17,17.4C6135.53,486.8,6237,494.47,6307,503.19c35.05,4.37,62.1,9,80.33,13.76,9.15,2.4,15.86,4.79,20.19,7.1a16.66,16.66,0,0,1,4.33,3,3.28,3.28,0,0,1,.66.91.87.87,0,0,1,.08.19c0,.06,0,.09,0,.1S6412.61,528.39,6412.53,528.57Z"/><path class="cls-2" d="M7042.24,525.17c0-1.25-1.23-4.09-8-8-6.37-3.74-16.17-7.57-29.48-11.42-26.55-7.66-65.93-15-116.93-22.05-101.93-14-249.53-26.31-432-36.39-365-20.15-869.18-31.24-1426.08-28.49s-1061,18.82-1425.73,42.58C3421.57,473.23,3274.11,487,3172.32,502c-50.94,7.5-90.24,15.28-116.71,23.2-13.28,4-23,7.91-29.37,11.7-6.74,4-7.93,6.89-7.93,8.14s1.23,4.1,8,8.07c6.37,3.73,16.16,7.56,29.48,11.41,26.56,7.66,65.94,15,116.93,22,101.94,14,249.53,26.32,432,36.4,365,20.15,869.18,31.24,1426.09,28.5s1061-18.83,1425.73-42.58C6639,597,6786.45,583.22,6888.24,568.22c50.92-7.5,90.23-15.28,116.71-23.2,13.28-4,23-7.91,29.37-11.7C7041.05,529.29,7042.25,526.44,7042.24,525.17Z"/><path class="cls-2" d="M6765.74,526.91a5.55,5.55,0,0,1-.82,1.15,21.77,21.77,0,0,1-5.41,3.86c-5.42,3-13.8,6-25.26,9.16-22.82,6.24-56.73,12.36-100.67,18.27-87.85,11.82-215.1,22.71-372.51,32.11-314.77,18.81-749.77,31.62-1230.35,34S4115,619.31,3800.08,603.61c-157.49-7.84-284.84-17.47-372.8-28.43-44-5.47-78-11.26-100.86-17.27-11.48-3-19.89-6-25.33-8.91a21.81,21.81,0,0,1-5.45-3.8,4.78,4.78,0,0,1-.83-1.15.86.86,0,0,1-.11-.36.91.91,0,0,1,.1-.37,4.78,4.78,0,0,1,.83-1.15,21.47,21.47,0,0,1,5.4-3.86c5.42-3,13.81-6,25.26-9.16,22.83-6.24,56.73-12.36,100.68-18.27,87.84-11.82,215.09-22.71,372.5-32.11,314.77-18.81,749.77-31.62,1230.35-34s915.69,6.15,1230.64,21.84c157.49,7.85,284.85,17.48,372.79,28.43,44,5.49,78,11.26,100.87,17.27,11.48,3,19.89,6,25.33,8.91a21.36,21.36,0,0,1,5.44,3.81,4.36,4.36,0,0,1,.84,1.15,1,1,0,0,1,.09.23.53.53,0,0,1,0,.13A1,1,0,0,1,6765.74,526.91Z"/><path class="cls-2" d="M7042.24,525.17c0-1.25-1.23-4.09-8-8-6.37-3.74-16.17-7.57-29.48-11.42-26.55-7.66-65.93-15-116.93-22.05-101.93-14-249.53-26.31-432-36.39-365-20.15-869.18-31.24-1426.08-28.49s-1061,18.82-1425.73,42.58C3421.57,473.23,3274.11,487,3172.32,502c-50.94,7.5-90.24,15.28-116.71,23.2-13.28,4-23,7.91-29.37,11.7-6.74,4-7.93,6.89-7.93,8.14s1.23,4.1,8,8.07c6.37,3.73,16.16,7.56,29.48,11.41,26.56,7.66,65.94,15,116.93,22,101.94,14,249.53,26.32,432,36.4,365,20.15,869.18,31.24,1426.09,28.5s1061-18.83,1425.73-42.58C6639,597,6786.45,583.22,6888.24,568.22c50.92-7.5,90.23-15.28,116.71-23.2,13.28-4,23-7.91,29.37-11.7C7041.05,529.29,7042.25,526.44,7042.24,525.17Z"/><path class="cls-2" d="M6765.74,526.91a5.55,5.55,0,0,1-.82,1.15,21.77,21.77,0,0,1-5.41,3.86c-5.42,3-13.8,6-25.26,9.16-22.82,6.24-56.73,12.36-100.67,18.27-87.85,11.82-215.1,22.71-372.51,32.11-314.77,18.81-749.77,31.62-1230.35,34S4115,619.31,3800.08,603.61c-157.49-7.84-284.84-17.47-372.8-28.43-44-5.47-78-11.26-100.86-17.27-11.48-3-19.89-6-25.33-8.91a21.81,21.81,0,0,1-5.45-3.8,4.78,4.78,0,0,1-.83-1.15.86.86,0,0,1-.11-.36.91.91,0,0,1,.1-.37,4.78,4.78,0,0,1,.83-1.15,21.47,21.47,0,0,1,5.4-3.86c5.42-3,13.81-6,25.26-9.16,22.83-6.24,56.73-12.36,100.68-18.27,87.84-11.82,215.09-22.71,372.5-32.11,314.77-18.81,749.77-31.62,1230.35-34s915.69,6.15,1230.64,21.84c157.49,7.85,284.85,17.48,372.79,28.43,44,5.49,78,11.26,100.87,17.27,11.48,3,19.89,6,25.33,8.91a21.36,21.36,0,0,1,5.44,3.81,4.36,4.36,0,0,1,.84,1.15,1,1,0,0,1,.09.23.53.53,0,0,1,0,.13A1,1,0,0,1,6765.74,526.91Z"/><g class="cls-3"><path class="cls-4" d="M9502.25,513c0-6.37-5.59-14.24-20.78-23.14q-22.2-13-66.83-25.92c-59.38-17.13-147.13-33.58-260.42-49.12-226.5-31.08-554.3-58.47-959.47-80.84C7384.47,289.28,6265.18,264.67,5029,270.78s-2355.21,41.77-3165,94.5c-404.91,26.37-732.44,57-958.62,90.31-113.13,16.67-200.72,34-259.91,51.7q-44.46,13.3-66.58,26.58c-15.11,9-20.58,17-20.55,23.33s5.59,14.24,20.78,23.14q22.2,13,66.83,25.92C705.28,623.4,793,639.84,906.33,655.38c226.5,31.08,554.31,58.47,959.47,80.84,810.28,44.72,1929.56,69.34,3165.78,63.24s2355.2-41.78,3165-94.51c404.92-26.38,732.44-57,958.62-90.32,113.13-16.66,200.72-34,259.91-51.69q44.46-13.31,66.58-26.58C9496.81,527.32,9502.28,519.38,9502.25,513Z"/><path class="cls-4" d="M8989.51,535.75q-19.53,11.7-59.09,23.59c-52.62,15.75-130.5,31.14-231.11,45.95-201.18,29.64-492.49,56.87-852.65,80.34-720.3,46.9-1715.63,78.63-2815.22,84.06s-2095.19-16.46-2815.91-56.25c-360.39-19.9-652-44.26-853.4-71.9-100.77-13.83-178.78-28.44-231.56-43.68q-39.64-11.43-59.32-23c-13.5-7.91-18.18-14.77-18.21-20.1s4.58-12.24,18-20.28q19.55-11.72,59.11-23.59c52.61-15.75,130.49-31.14,231.1-46,201.17-29.63,492.48-56.87,852.65-80.32C2934.2,337.7,3929.53,306,5029.12,300.53S7124.3,317,7845,356.79c360.38,19.89,651.95,44.26,853.41,71.9,100.75,13.82,178.78,28.44,231.55,43.67q39.63,11.44,59.32,23c13.5,7.91,18.17,14.77,18.21,20.11S9002.93,527.71,8989.51,535.75Z"/></g><path class="cls-2" d="M7034.23,517.12c-6.37-3.74-16.17-7.57-29.48-11.42-26.55-7.66-65.93-15-116.93-22.05-101.93-14-249.53-26.31-432-36.39-365-20.15-869.18-31.24-1426.08-28.49s-1061,18.82-1425.73,42.58C3421.57,473.23,3274.11,487,3172.32,502c-50.94,7.5-90.24,15.28-116.71,23.2-13.28,4-23,7.91-29.37,11.7-6.74,4-7.93,6.89-7.93,8.14s1.23,4.1,8,8.07c6.37,3.73,16.16,7.56,29.48,11.41,26.56,7.66,65.94,15,116.93,22,101.94,14,249.53,26.32,432,36.4,365,20.15,869.18,31.24,1426.09,28.5s1061-18.83,1425.73-42.58C6639,597,6786.45,583.22,6888.24,568.22c50.92-7.5,90.23-15.28,116.71-23.2,13.28-4,23-7.91,29.37-11.7,6.73-4,7.93-6.88,7.92-8.15S7041,521.08,7034.23,517.12Z"/><path class="cls-2" d="M6765.74,526.91a5.55,5.55,0,0,1-.82,1.15,21.77,21.77,0,0,1-5.41,3.86c-5.42,3-13.8,6-25.26,9.16-22.82,6.24-56.73,12.36-100.67,18.27-87.85,11.82-215.1,22.71-372.51,32.11-314.77,18.81-749.77,31.62-1230.35,34S4115,619.31,3800.08,603.61c-157.49-7.84-284.84-17.47-372.8-28.43-44-5.47-78-11.26-100.86-17.27-11.48-3-19.89-6-25.33-8.91a21.81,21.81,0,0,1-5.45-3.8,4.78,4.78,0,0,1-.83-1.15.86.86,0,0,1-.11-.36.91.91,0,0,1,.1-.37,4.78,4.78,0,0,1,.83-1.15,21.47,21.47,0,0,1,5.4-3.86c5.42-3,13.81-6,25.26-9.16,22.83-6.24,56.73-12.36,100.68-18.27,87.84-11.82,215.09-22.71,372.5-32.11,314.77-18.81,749.77-31.62,1230.35-34s915.69,6.15,1230.64,21.84c157.49,7.85,284.85,17.48,372.79,28.43,44,5.49,78,11.26,100.87,17.27,11.48,3,19.89,6,25.33,8.91a21.36,21.36,0,0,1,5.44,3.81,4.36,4.36,0,0,1,.84,1.15,1,1,0,0,1,.09.23.53.53,0,0,1,0,.13A1,1,0,0,1,6765.74,526.91Z"/><path class="cls-2" d="M7042.24,525.17c0-1.25-1.23-4.09-8-8-6.37-3.74-16.17-7.57-29.48-11.42-26.55-7.66-65.93-15-116.93-22.05-101.93-14-249.53-26.31-432-36.39-365-20.15-869.18-31.24-1426.08-28.49s-1061,18.82-1425.73,42.58C3421.57,473.23,3274.11,487,3172.32,502c-50.94,7.5-90.24,15.28-116.71,23.2-13.28,4-23,7.91-29.37,11.7-6.74,4-7.93,6.89-7.93,8.14s1.23,4.1,8,8.07c6.37,3.73,16.16,7.56,29.48,11.41,26.56,7.66,65.94,15,116.93,22,101.94,14,249.53,26.32,432,36.4,365,20.15,869.18,31.24,1426.09,28.5s1061-18.83,1425.73-42.58C6639,597,6786.45,583.22,6888.24,568.22c50.92-7.5,90.23-15.28,116.71-23.2,13.28-4,23-7.91,29.37-11.7C7041.05,529.29,7042.25,526.44,7042.24,525.17Z"/><path class="cls-2" d="M6765.74,526.91a5.55,5.55,0,0,1-.82,1.15,21.77,21.77,0,0,1-5.41,3.86c-5.42,3-13.8,6-25.26,9.16-22.82,6.24-56.73,12.36-100.67,18.27-87.85,11.82-215.1,22.71-372.51,32.11-314.77,18.81-749.77,31.62-1230.35,34S4115,619.31,3800.08,603.61c-157.49-7.84-284.84-17.47-372.8-28.43-44-5.47-78-11.26-100.86-17.27-11.48-3-19.89-6-25.33-8.91a21.81,21.81,0,0,1-5.45-3.8,4.78,4.78,0,0,1-.83-1.15.86.86,0,0,1-.11-.36.91.91,0,0,1,.1-.37,4.78,4.78,0,0,1,.83-1.15,21.47,21.47,0,0,1,5.4-3.86c5.42-3,13.81-6,25.26-9.16,22.83-6.24,56.73-12.36,100.68-18.27,87.84-11.82,215.09-22.71,372.5-32.11,314.77-18.81,749.77-31.62,1230.35-34s915.69,6.15,1230.64,21.84c157.49,7.85,284.85,17.48,372.79,28.43,44,5.49,78,11.26,100.87,17.27,11.48,3,19.89,6,25.33,8.91a21.36,21.36,0,0,1,5.44,3.81,4.36,4.36,0,0,1,.84,1.15,1,1,0,0,1,.09.23.53.53,0,0,1,0,.13A1,1,0,0,1,6765.74,526.91Z"/><path class="cls-5" d="M9343.09,513.8c0-2.68-2.63-8.78-17.16-17.27-13.65-8-34.66-16.22-63.18-24.46-56.93-16.42-141.33-32.25-250.66-47.27-218.5-30-534.9-56.41-926.12-78-782.35-43.19-1863.16-67-3056.92-61.08S2754.76,326.06,1972.87,377c-391,25.47-707.1,55-925.29,87.17C938.4,480.22,854.14,496.9,797.4,513.88c-28.46,8.53-49.38,17-62.95,25.09-14.44,8.64-17,14.75-17,17.44s2.63,8.8,17.15,17.29c13.66,8,34.66,16.22,63.21,24.47,56.92,16.42,141.33,32.25,250.64,47.24,218.52,30,534.89,56.43,926.11,78,782.38,43.2,1863.17,67,3057,61.08S7305.8,744.17,8087.7,693.25c391-25.47,707.09-55,925.28-87.17,109.17-16.07,193.42-32.75,250.19-49.73,28.46-8.53,49.38-17,63-25.09C9340.56,522.62,9343.11,516.51,9343.09,513.8Z"/><path class="cls-5" d="M8951,515.74c0-2.44-2.4-8-15.6-15.7-12.42-7.27-31.51-14.75-57.44-22.24-51.75-14.93-128.49-29.32-227.88-43-198.63-27.25-486.26-51.28-841.92-70.92C7097,324.64,6114.4,303,5029.16,308.39s-2067.53,36.68-2778.35,83c-355.45,23.15-642.81,50-841.17,79.24-99.25,14.61-175.85,29.77-227.44,45.21-25.87,7.76-44.88,15.41-57.22,22.81-13.13,7.86-15.45,13.41-15.45,15.85s2.39,8,15.6,15.72c12.41,7.27,31.5,14.75,57.46,22.25,51.75,14.92,128.48,29.31,227.86,42.94,198.65,27.28,486.26,51.3,841.91,70.94,711.26,39.27,1693.79,60.87,2779,55.53s2067.54-36.68,2778.35-83c355.43-23.16,642.81-50,841.17-79.25,99.24-14.61,175.84-29.77,227.44-45.21,25.87-7.75,44.89-15.41,57.23-22.81C8948.71,523.76,8951,518.2,8951,515.74Z"/><path class="cls-5" d="M8594.59,517.5c0-2.21-2.18-7.26-14.18-14.27-11.29-6.61-28.65-13.41-52.22-20.22-47.05-13.57-116.81-26.65-207.16-39.07-180.58-24.77-442.06-46.61-765.39-64.46-646.57-35.7-1539.8-55.36-2526.38-50.48s-1879.57,33.35-2525.77,75.43c-323.14,21.05-584.37,45.48-764.7,72-90.23,13.28-159.87,27.06-206.76,41.1-23.52,7-40.81,14-52,20.73-11.93,7.14-14,12.19-14,14.41s2.18,7.28,14.18,14.29c11.29,6.61,28.64,13.41,52.24,20.23,47,13.56,116.8,26.65,207.14,39,180.59,24.79,442.06,46.64,765.38,64.48,646.59,35.71,1539.81,55.34,2526.4,50.49s1879.58-33.35,2525.77-75.43c323.12-21,584.38-45.48,764.7-72,90.22-13.29,159.85-27.07,206.76-41.1,23.52-7,40.81-14,52-20.74C8592.49,524.79,8594.61,519.74,8594.59,517.5Z"/><path class="cls-5" d="M8270.56,519.1c0-2-2-6.59-12.89-13-10.26-6-26-12.19-47.48-18.38-42.76-12.34-106.18-24.23-188.32-35.52-164.16-22.52-401.87-42.38-695.8-58.61-587.8-32.45-1399.82-50.32-2296.72-45.88s-1708.7,30.31-2296.15,68.57C2439.44,435.44,2202,457.65,2038,481.8c-82,12.07-145.34,24.6-188,37.36-21.38,6.41-37.1,12.74-47.29,18.85-10.85,6.5-12.77,11.09-12.77,13.1s2,6.61,12.89,13c10.26,6,26,12.19,47.49,18.39,42.77,12.33,106.18,24.23,188.31,35.49,164.17,22.54,401.87,42.4,695.8,58.63,587.81,32.45,1399.82,50.3,2296.73,45.89s1708.7-30.32,2296.15-68.57c293.75-19.14,531.25-41.35,695.18-65.49,82-12.08,145.32-24.61,188-37.37,21.38-6.41,37.1-12.73,47.3-18.85C8268.65,525.73,8270.58,521.14,8270.56,519.1Z"/><path class="cls-5" d="M7976,520.56c0-1.83-1.8-6-11.72-11.8-9.33-5.46-23.67-11.08-43.16-16.71-38.88-11.21-96.53-22-171.2-32.28-149.24-20.48-365.34-38.53-632.55-53.28C6583,377,5844.79,360.74,5029.44,364.77S3476.07,392.33,2942,427.11c-267.05,17.39-482.95,37.58-632,59.54-74.57,11-132.12,22.36-170.88,34-19.44,5.83-33.72,11.58-43,17.14-9.86,5.9-11.61,10.07-11.61,11.91s1.8,6,11.72,11.81c9.33,5.46,23.67,11.08,43.17,16.71,38.88,11.21,96.53,22,171.19,32.27C2459.89,630.94,2676,649,2943.19,663.74c534.37,29.51,1272.57,45.74,2087.93,41.72s1553.37-27.56,2087.42-62.33c267-17.4,482.95-37.59,632-59.54,74.56-11,132.11-22.37,170.88-34,19.44-5.82,33.72-11.58,43-17.13C7974.26,526.58,7976,522.41,7976,520.56Z"/><path class="cls-5" d="M7708.2,521.88c0-1.66-1.64-5.45-10.66-10.72-8.48-5-21.52-10.07-39.23-15.19-35.35-10.2-87.76-20-155.64-29.35-135.67-18.61-332.13-35-575.05-48.44-485.78-26.82-1156.87-41.59-1898.11-37.92s-1412.15,25.05-1897.65,56.67c-242.77,15.81-439,34.17-574.52,54.12-67.8,10-120.12,20.33-155.35,30.88-17.67,5.3-30.66,10.53-39.09,15.58-9,5.37-10.55,9.16-10.55,10.83s1.64,5.46,10.66,10.73c8.48,5,21.52,10.07,39.24,15.2,35.35,10.19,87.76,20,155.63,29.33,135.68,18.63,332.13,35,575,48.45,485.8,26.82,1156.88,41.57,1898.13,37.93S6443.2,664.92,6928.7,633.31c242.76-15.82,439-34.17,574.52-54.13,67.79-10,120.1-20.33,155.35-30.88,17.67-5.29,30.66-10.52,39.09-15.58C7706.62,527.36,7708.21,523.56,7708.2,521.88Z"/><path class="cls-5" d="M7464.75,523.09c0-1.52-1.49-5-9.69-9.75-7.71-4.52-19.56-9.16-35.66-13.81-32.14-9.27-79.78-18.21-141.5-26.69-123.33-16.92-301.93-31.84-522.76-44C6313.52,404.43,5703.43,391,5029.58,394.34s-1283.77,22.77-1725.13,51.51c-220.71,14.38-399.14,31.07-522.3,49.21-61.63,9.07-109.19,18.48-141.22,28.07-16.07,4.81-27.88,9.57-35.54,14.16-8.15,4.88-9.59,8.33-9.59,9.84s1.49,5,9.68,9.77c7.71,4.51,19.57,9.15,35.68,13.81,32.14,9.26,79.78,18.2,141.49,26.66,123.34,16.94,301.93,31.86,522.76,44C3747,665.81,4357.12,679.21,5031,675.9s1283.77-22.78,1725.13-51.52c220.7-14.38,399.14-31.06,522.3-49.2,61.62-9.08,109.18-18.49,141.22-28.08,16.07-4.81,27.88-9.57,35.54-14.16C7463.32,528.06,7464.76,524.61,7464.75,523.09Z"/><path class="cls-5" d="M7243.43,524.18c0-1.38-1.35-4.51-8.8-8.86-7-4.11-17.79-8.33-32.43-12.56-29.21-8.42-72.52-16.55-128.63-24.25-112.12-15.39-274.48-28.95-475.24-40-401.47-22.17-956.09-34.37-1568.68-31.35S3862.58,427.84,3461.34,454C3260.7,467,3098.49,482.21,2986.52,498.7c-56,8.25-99.26,16.8-128.38,25.52-14.6,4.38-25.34,8.7-32.3,12.87-7.41,4.44-8.73,7.57-8.72,8.95s1.35,4.52,8.8,8.88c7,4.1,17.79,8.32,32.44,12.55,29.21,8.43,72.52,16.55,128.62,24.24,112.13,15.4,274.48,29,475.24,40,401.48,22.16,956.1,34.35,1568.69,31.34S6198,642.39,6599.22,616.27C6799.85,603.19,6962.07,588,7074,571.53c56-8.24,99.25-16.8,128.38-25.52,14.6-4.37,25.34-8.7,32.3-12.87C7242.13,528.7,7243.44,525.57,7243.43,524.18Z"/><path class="cls-5" d="M7042.24,525.17c0-1.25-1.23-4.09-8-8-6.37-3.74-16.17-7.57-29.48-11.42-26.55-7.66-65.93-15-116.93-22.05-101.93-14-249.53-26.31-432-36.39-365-20.15-869.18-31.24-1426.08-28.49s-1061,18.82-1425.73,42.58C3421.57,473.23,3274.11,487,3172.32,502c-50.94,7.5-90.24,15.28-116.71,23.2-13.28,4-23,7.91-29.37,11.7-6.74,4-7.93,6.89-7.93,8.14s1.23,4.1,8,8.07c6.37,3.73,16.16,7.56,29.48,11.41,26.56,7.66,65.94,15,116.93,22,101.94,14,249.53,26.32,432,36.4,365,20.15,869.18,31.24,1426.09,28.5s1061-18.83,1425.73-42.58C6639,597,6786.45,583.22,6888.24,568.22c50.92-7.5,90.23-15.28,116.71-23.2,13.28-4,23-7.91,29.37-11.7C7041.05,529.29,7042.25,526.44,7042.24,525.17Z"/><path class="cls-6" d="M6765.74,526.91a5.55,5.55,0,0,1-.82,1.15,21.77,21.77,0,0,1-5.41,3.86c-5.42,3-13.8,6-25.26,9.16-22.82,6.24-56.73,12.36-100.67,18.27-87.85,11.82-215.1,22.71-372.51,32.11-314.77,18.81-749.77,31.62-1230.35,34S4115,619.31,3800.08,603.61c-157.49-7.84-284.84-17.47-372.8-28.43-44-5.47-78-11.26-100.86-17.27-11.48-3-19.89-6-25.33-8.91a21.81,21.81,0,0,1-5.45-3.8,4.78,4.78,0,0,1-.83-1.15.86.86,0,0,1-.11-.36.91.91,0,0,1,.1-.37,4.78,4.78,0,0,1,.83-1.15,21.47,21.47,0,0,1,5.4-3.86c5.42-3,13.81-6,25.26-9.16,22.83-6.24,56.73-12.36,100.68-18.27,87.84-11.82,215.09-22.71,372.5-32.11,314.77-18.81,749.77-31.62,1230.35-34s915.69,6.15,1230.64,21.84c157.49,7.85,284.85,17.48,372.79,28.43,44,5.49,78,11.26,100.87,17.27,11.48,3,19.89,6,25.33,8.91a21.36,21.36,0,0,1,5.44,3.81,4.36,4.36,0,0,1,.84,1.15,1,1,0,0,1,.09.23.53.53,0,0,1,0,.13A1,1,0,0,1,6765.74,526.91Z"/><path class="cls-8" d="M9954.38,510.79c0-7.3-6.38-16.09-23.11-25.91q-24.53-14.34-73.71-28.58c-65.4-18.88-162-37-286.78-54.1-249.4-34.22-610.33-64.37-1056.4-89C7622.24,264,6389.9,236.85,5028.83,243.57s-2593.07,46-3484.67,104.06c-445.82,29-806.43,62.76-1055.48,99.43-124.56,18.35-221,37.41-286.23,56.94-32.64,9.76-57.17,19.57-73.41,29.31-16.65,10-22.91,18.83-22.87,26.12s6.38,16.1,23.13,25.91q24.51,14.37,73.69,28.59c65.4,18.87,162,37,286.78,54.09,249.41,34.22,610.33,64.38,1056.41,89,892.13,49.25,2124.47,76.35,3485.54,69.63s2593.07-46,3484.68-104.07c445.81-29,806.43-62.75,1055.48-99.43,124.55-18.35,221-37.4,286.23-56.92q49-14.67,73.4-29.32C9948.16,527,9954.42,518.1,9954.38,510.79ZM9481.7,536.36q-22.07,13.23-66.58,26.58c-59.19,17.73-146.78,35-259.91,51.69C8929,647.94,8601.51,678.57,8196.59,705c-809.81,52.73-1928.8,88.4-3165,94.51s-2355.5-18.52-3165.78-63.24c-405.16-22.37-733-49.76-959.47-80.84-113.29-15.54-201.05-32-260.42-49.12q-44.58-12.87-66.83-25.92c-15.19-8.9-20.75-16.77-20.78-23.14s5.44-14.28,20.55-23.33q22.06-13.22,66.58-26.58c59.19-17.72,146.78-35,259.91-51.7,226.18-33.31,553.71-63.94,958.62-90.31,809.8-52.73,1928.8-88.4,3165-94.5s2355.5,18.5,3165.78,63.23c405.17,22.37,733,49.76,959.47,80.84,113.29,15.54,201,32,260.42,49.12q44.57,12.87,66.83,25.92c15.19,8.9,20.75,16.77,20.78,23.14S9496.81,527.32,9481.7,536.36Z"/><path class="cls-6" d="M6412.53,528.57a4.31,4.31,0,0,1-.65.92,17.5,17.5,0,0,1-4.31,3.07c-4.31,2.36-11,4.81-20.12,7.3-18.18,5-45.18,9.85-80.18,14.55-70,9.41-171.32,18.09-296.69,25.57-250.71,15-597.18,25.19-979.95,27.09s-729.33-4.9-980.18-17.4C3925,583.42,3823.58,575.75,3753.52,567c-35-4.36-62.1-9-80.33-13.75-9.14-2.4-15.84-4.79-20.18-7.09a17.26,17.26,0,0,1-4.33-3,3.93,3.93,0,0,1-.67-.91.64.64,0,0,1-.09-.3,1.32,1.32,0,0,1,.09-.28,3.21,3.21,0,0,1,.66-.91,16.8,16.8,0,0,1,4.29-3.09c4.32-2.35,11-4.81,20.13-7.29,18.17-5,45.18-9.85,80.18-14.55,70-9.42,171.32-18.09,296.69-25.57,250.72-15,597.17-25.19,979.95-27.08s729.33,4.89,980.17,17.4C6135.53,486.8,6237,494.47,6307,503.19c35.05,4.37,62.1,9,80.33,13.76,9.15,2.4,15.86,4.79,20.19,7.1a16.66,16.66,0,0,1,4.33,3,3.28,3.28,0,0,1,.66.91.87.87,0,0,1,.08.19c0,.06,0,.09,0,.1S6412.61,528.39,6412.53,528.57Z"/><path class="cls-8" d="M6765.84,526.54a.53.53,0,0,0,0-.13,1,1,0,0,0-.09-.23,4.36,4.36,0,0,0-.84-1.15,21.36,21.36,0,0,0-5.44-3.81c-5.44-2.89-13.85-5.89-25.33-8.91-22.9-6-56.85-11.78-100.87-17.27-87.94-11-215.3-20.58-372.79-28.43-314.95-15.69-750.05-24.21-1230.64-21.84s-915.58,15.19-1230.35,34c-157.41,9.4-284.66,20.29-372.5,32.11-43.95,5.91-77.85,12-100.68,18.27-11.45,3.12-19.84,6.2-25.26,9.16a21.47,21.47,0,0,0-5.4,3.86,4.78,4.78,0,0,0-.83,1.15.91.91,0,0,0-.1.37.86.86,0,0,0,.11.36,4.78,4.78,0,0,0,.83,1.15,21.81,21.81,0,0,0,5.45,3.8c5.44,2.9,13.85,5.9,25.33,8.91,22.9,6,56.86,11.8,100.86,17.27,88,11,215.31,20.59,372.8,28.43,315,15.7,750.06,24.23,1230.64,21.85s915.58-15.19,1230.35-34c157.41-9.4,284.66-20.29,372.51-32.11,43.94-5.91,77.85-12,100.67-18.27,11.46-3.13,19.84-6.2,25.26-9.16a21.77,21.77,0,0,0,5.41-3.86,5.55,5.55,0,0,0,.82-1.15A1,1,0,0,0,6765.84,526.54Zm-353.31,2a4.31,4.31,0,0,1-.65.92,17.5,17.5,0,0,1-4.31,3.07c-4.31,2.36-11,4.81-20.12,7.3-18.18,5-45.18,9.85-80.18,14.55-70,9.41-171.32,18.09-296.69,25.57-250.71,15-597.18,25.19-979.95,27.09s-729.33-4.9-980.18-17.4C3925,583.42,3823.58,575.75,3753.52,567c-35-4.36-62.1-9-80.33-13.75-9.14-2.4-15.84-4.79-20.18-7.09a17.26,17.26,0,0,1-4.33-3,3.93,3.93,0,0,1-.67-.91.64.64,0,0,1-.09-.3,1.32,1.32,0,0,1,.09-.28,3.21,3.21,0,0,1,.66-.91,16.8,16.8,0,0,1,4.29-3.09c4.32-2.35,11-4.81,20.13-7.29,18.17-5,45.18-9.85,80.18-14.55,70-9.42,171.32-18.09,296.69-25.57,250.72-15,597.17-25.19,979.95-27.08s729.33,4.89,980.17,17.4C6135.53,486.8,6237,494.47,6307,503.19c35.05,4.37,62.1,9,80.33,13.76,9.15,2.4,15.86,4.79,20.19,7.1a16.66,16.66,0,0,1,4.33,3,3.28,3.28,0,0,1,.66.91.87.87,0,0,1,.08.19c0,.06,0,.09,0,.1S6412.61,528.39,6412.53,528.57Z"/><path class="cls-9" d="M6036.39,530.35a3.35,3.35,0,0,1-.47.67,12.73,12.73,0,0,1-3.14,2.23c-3.14,1.72-8,3.5-14.64,5.32-13.24,3.62-32.89,7.16-58.37,10.59-50.93,6.85-124.7,13.16-216,18.61-182.49,10.91-434.68,18.33-713.29,19.72s-530.86-3.57-713.45-12.67c-91.3-4.55-165.13-10.13-216.13-16.48-25.51-3.18-45.2-6.54-58.47-10-6.65-1.74-11.53-3.48-14.69-5.16a12.24,12.24,0,0,1-3.15-2.21,2.72,2.72,0,0,1-.49-.66.52.52,0,0,1-.06-.21.48.48,0,0,1,.06-.21,2.78,2.78,0,0,1,.48-.67,12.22,12.22,0,0,1,3.13-2.24q4.71-2.58,14.64-5.31c13.24-3.61,32.89-7.16,58.37-10.59,50.92-6.85,124.7-13.17,216-18.61,182.48-10.91,434.66-18.34,713.28-19.71s530.86,3.56,713.44,12.66c91.32,4.55,165.15,10.13,216.13,16.48,25.52,3.18,45.2,6.53,58.47,10,6.66,1.75,11.54,3.48,14.7,5.17a12,12,0,0,1,3.15,2.21,2.52,2.52,0,0,1,.48.66l.06.13c0,.05,0,.07,0,.08A.48.48,0,0,1,6036.39,530.35Z"/></g></g></svg>