<svg width="97" height="111" viewBox="0 0 97 111" fill="none" xmlns="http://www.w3.org/2000/svg">
<g filter="url(#filter0_d)">
<path d="M14.2338 79.171V23.7055C14.324 23.7072 14.4145 23.708 14.5052 23.708C22.2147 23.708 28.4644 17.6285 28.4644 10.1289L66.2757 10.1287C75.1123 10.1287 82.2757 17.2921 82.2757 26.1287V76.7479C82.2757 85.5844 75.1123 92.7479 66.2757 92.7479L28.4644 92.7475C28.4644 85.248 22.2147 79.1684 14.5052 79.1684C14.4145 79.1684 14.324 79.1693 14.2338 79.171Z" fill="white"/>
</g>
<path d="M68.7934 52.5035C68.7934 51.5769 68.4248 50.7135 67.7897 50.0767C68.5097 49.2889 68.8766 48.2328 68.7764 47.1335C68.596 45.1739 66.8306 43.6383 64.7555 43.6383H55.2319C55.7037 42.206 56.4592 39.5804 56.4592 37.4713C56.4592 34.1272 53.6177 31.3042 51.8339 31.3042C50.2335 31.3042 49.088 32.2061 49.0402 32.2431C48.8567 32.3896 48.7503 32.6116 48.7503 32.8459V38.0741L44.3085 47.6932L44.125 47.7872V47.4927C44.125 47.0672 43.7796 46.7218 43.3541 46.7218H35.6453C33.5192 46.7219 31.7909 48.4502 31.7909 50.5763V62.9104C31.7909 65.0366 33.5192 66.7648 35.6453 66.7648H40.2706C41.9372 66.7648 43.3618 65.701 43.8984 64.2163C45.1812 64.8762 46.9079 65.2231 47.9795 65.2231H62.1314C63.8104 65.2231 65.2797 64.0914 65.625 62.5312C65.8023 61.7264 65.699 60.9169 65.3475 60.2139C66.4853 59.6419 67.2516 58.4655 67.2516 57.1288C67.2516 56.583 67.1267 56.0604 66.8908 55.5886C68.0287 55.015 68.7934 53.8402 68.7934 52.5035ZM65.5418 54.406C65.2442 54.4415 64.9929 54.6434 64.8973 54.9287C64.8033 55.2139 64.8819 55.5269 65.1008 55.7335C65.4925 56.102 65.7099 56.5984 65.7099 57.1288C65.7099 58.1016 64.9744 58.9188 64.0016 59.0313C63.7041 59.0668 63.4527 59.2687 63.3572 59.554C63.2631 59.8392 63.3418 60.1522 63.5607 60.3588C64.0679 60.8367 64.2715 61.5074 64.1188 62.1981C63.9292 63.0585 63.0935 63.6814 62.1315 63.6814H47.9795C46.7275 63.6814 44.6276 63.0939 43.8999 62.3647C43.6795 62.1458 43.3464 62.081 43.0597 62.1981C42.7714 62.3169 42.5833 62.599 42.5833 62.9104C42.5833 64.1855 41.5457 65.2231 40.2706 65.2231H35.6453C34.3702 65.2231 33.3326 64.1855 33.3326 62.9104V50.5763C33.3326 49.3012 34.3702 48.2636 35.6453 48.2636H42.5833V49.0345C42.5833 49.3013 42.722 49.5494 42.9502 49.6913C43.1753 49.827 43.459 49.8408 43.6995 49.7237L45.2412 48.9528C45.397 48.8757 45.5218 48.7462 45.5958 48.5874L50.2212 38.5659C50.2674 38.4641 50.292 38.3531 50.292 38.2421V33.2637C50.6128 33.0865 51.1694 32.8459 51.8339 32.8459C52.6788 32.8459 54.9174 34.9458 54.9174 37.4713C54.9174 40.1848 53.4404 44.0962 53.4266 44.1348C53.3372 44.3707 53.368 44.6374 53.5113 44.8471C53.6562 45.0552 53.8937 45.1801 54.1465 45.1801H64.7555C66.0413 45.1801 67.1329 46.1006 67.2408 47.2754C67.3225 48.1542 66.9 48.9899 66.143 49.457C65.9072 49.6019 65.7669 49.864 65.7777 50.1431C65.7884 50.4221 65.9488 50.6719 66.1954 50.7999C66.8476 51.1314 67.2515 51.7851 67.2515 52.5035C67.2516 53.4763 66.5162 54.2935 65.5418 54.406Z" fill="black"/>
<defs>
<filter id="filter0_d" x="0.233765" y="0.128662" width="96.0419" height="110.619" filterUnits="userSpaceOnUse" color-interpolation-filters="sRGB">
<feFlood flood-opacity="0" result="BackgroundImageFix"/>
<feColorMatrix in="SourceAlpha" type="matrix" values="0 0 0 0 0 0 0 0 0 0 0 0 0 0 0 0 0 0 127 0"/>
<feOffset dy="4"/>
<feGaussianBlur stdDeviation="7"/>
<feColorMatrix type="matrix" values="0 0 0 0 0 0 0 0 0 0 0 0 0 0 0 0 0 0 0.2 0"/>
<feBlend mode="normal" in2="BackgroundImageFix" result="effect1_dropShadow"/>
<feBlend mode="normal" in="SourceGraphic" in2="effect1_dropShadow" result="shape"/>
</filter>
</defs>
</svg>
