<svg width="375" height="163" viewBox="0 0 375 163" fill="none" xmlns="http://www.w3.org/2000/svg">
<g filter="url(#filter0_d)">
<path fill-rule="evenodd" clip-rule="evenodd" d="M276.314 10.5816C276.314 22.6936 266.495 32.5123 254.383 32.5123C242.272 32.5123 232.453 22.6936 232.453 10.5816V10.5806H39.5483C25.7412 10.5806 14.5483 21.7735 14.5483 35.5806V119.013C14.5483 132.82 25.7412 144.013 39.5483 144.013L232.453 144.013C232.453 131.901 242.272 122.082 254.383 122.082C266.495 122.082 276.314 131.901 276.314 144.013L335.854 144.013C349.661 144.013 360.854 132.82 360.854 119.013V35.5806C360.854 21.7735 349.661 10.5806 335.854 10.5806H276.314V10.5816Z" fill="white"/>
</g>
<path d="M260.712 35.2974V119.373" stroke="#C4C4C4" stroke-width="3" stroke-dasharray="8 8"/>
<path d="M340.456 78.9085C340.456 77.5066 339.898 76.2003 338.937 75.2369C340.027 74.0449 340.582 72.447 340.43 70.7839C340.157 67.819 337.486 65.4957 334.347 65.4957H319.938C320.652 63.3286 321.794 59.3562 321.794 56.1651C321.794 51.1055 317.495 46.8345 314.796 46.8345C312.375 46.8345 310.642 48.1991 310.57 48.2551C310.292 48.4767 310.131 48.8126 310.131 49.1671V57.0771L303.411 71.6306L303.133 71.7729V71.3273C303.133 70.6835 302.611 70.1609 301.967 70.1609H290.304C287.087 70.161 284.472 72.776 284.472 75.9927V94.654C284.472 97.8708 287.087 100.486 290.304 100.486H297.302C299.823 100.486 301.978 98.8761 302.79 96.6297C304.731 97.6281 307.344 98.153 308.965 98.153H330.376C332.917 98.153 335.14 96.4408 335.662 94.0802C335.93 92.8625 335.774 91.6379 335.242 90.5742C336.964 89.7087 338.123 87.9289 338.123 85.9065C338.123 85.0808 337.934 84.29 337.577 83.5762C339.299 82.7084 340.456 80.9309 340.456 78.9085ZM335.536 81.787C335.086 81.8407 334.706 82.1462 334.561 82.5778C334.419 83.0093 334.538 83.4828 334.869 83.7954C335.462 84.353 335.791 85.104 335.791 85.9065C335.791 87.3784 334.678 88.6147 333.206 88.785C332.756 88.8387 332.376 89.1442 332.231 89.5758C332.089 90.0073 332.208 90.4808 332.539 90.7934C333.306 91.5165 333.614 92.5312 333.383 93.5763C333.096 94.8779 331.832 95.8204 330.377 95.8204H308.965C307.071 95.8204 303.894 94.9316 302.793 93.8282C302.459 93.497 301.955 93.3991 301.521 93.5763C301.085 93.756 300.801 94.1828 300.801 94.654C300.801 96.5831 299.231 98.153 297.302 98.153H290.304C288.374 98.153 286.805 96.5831 286.805 94.654V75.9927C286.805 74.0635 288.374 72.4937 290.304 72.4937H300.801V73.66C300.801 74.0636 301.01 74.4391 301.356 74.6538C301.696 74.859 302.125 74.88 302.489 74.7027L304.822 73.5364C305.058 73.4197 305.247 73.2238 305.359 72.9835L312.356 57.8212C312.426 57.6672 312.464 57.4993 312.464 57.3313V49.7992C312.949 49.531 313.791 49.1671 314.796 49.1671C316.075 49.1671 319.462 52.3442 319.462 56.1651C319.462 60.2706 317.227 66.1885 317.206 66.2469C317.071 66.6038 317.118 67.0074 317.334 67.3246C317.554 67.6395 317.913 67.8284 318.295 67.8284H334.347C336.292 67.8284 337.944 69.221 338.107 70.9985C338.23 72.3281 337.591 73.5925 336.446 74.2993C336.089 74.5185 335.877 74.9151 335.893 75.3373C335.909 75.7594 336.152 76.1373 336.525 76.331C337.512 76.8325 338.123 77.8215 338.123 78.9085C338.123 80.3804 337.01 81.6168 335.536 81.787Z" fill="black"/>
<defs>
<filter id="filter0_d" x="0.54834" y="0.580627" width="374.306" height="161.432" filterUnits="userSpaceOnUse" color-interpolation-filters="sRGB">
<feFlood flood-opacity="0" result="BackgroundImageFix"/>
<feColorMatrix in="SourceAlpha" type="matrix" values="0 0 0 0 0 0 0 0 0 0 0 0 0 0 0 0 0 0 127 0"/>
<feOffset dy="4"/>
<feGaussianBlur stdDeviation="7"/>
<feColorMatrix type="matrix" values="0 0 0 0 0 0 0 0 0 0 0 0 0 0 0 0 0 0 0.2 0"/>
<feBlend mode="normal" in2="BackgroundImageFix" result="effect1_dropShadow"/>
<feBlend mode="normal" in="SourceGraphic" in2="effect1_dropShadow" result="shape"/>
</filter>
</defs>
</svg>
